<?xml version="1.0" encoding="utf-8"?>
<!-- Generator: Adobe Illustrator 26.2.1, SVG Export Plug-In . SVG Version: 6.00 Build 0)  -->
<svg version="1.1" id="Layer_1" xmlns="http://www.w3.org/2000/svg" xmlns:xlink="http://www.w3.org/1999/xlink" x="0px" y="0px"
	 viewBox="0 0 50 50" style="enable-background:new 0 0 50 50;" xml:space="preserve">
<style type="text/css">
	.st0{fill:#DC5C00;}
</style>
<path class="st0" d="M45.7,8.3c0-0.5,0.7-0.9,1.6-0.9c0.9,0,1.6,0.4,1.6,0.9c0,0.5-0.7,0.9-1.6,0.9C46.4,9.2,45.7,8.8,45.7,8.3z
	 M47.3,12.4c-0.9,0-1.6,0.4-1.6,0.9c0,0.5,0.7,0.9,1.6,0.9c0.9,0,1.6-0.4,1.6-0.9C49,12.8,48.2,12.4,47.3,12.4z M47.4,19.2
	c0.9,0,1.6-0.4,1.6-0.9c0-0.5-0.7-0.9-1.6-0.9c-0.9,0-1.6,0.4-1.6,0.9C45.7,18.8,46.5,19.2,47.4,19.2z M47.4,24.1
	c0.9,0,1.6-0.4,1.6-0.9c0-0.5-0.7-0.9-1.6-0.9c-0.9,0-1.6,0.4-1.6,0.9C45.7,23.7,46.5,24.1,47.4,24.1z M47.4,29.1
	c0.9,0,1.6-0.4,1.6-0.9c0-0.5-0.7-0.9-1.6-0.9c-0.9,0-1.6,0.4-1.6,0.9C45.8,28.7,46.5,29.1,47.4,29.1z M47.5,34.1
	c0.9,0,1.6-0.4,1.6-0.9c0-0.5-0.7-0.9-1.6-0.9c-0.9,0-1.6,0.4-1.6,0.9C45.8,33.7,46.6,34.1,47.5,34.1z M47.5,39.1
	c0.9,0,1.6-0.4,1.6-0.9c0-0.5-0.7-0.9-1.6-0.9c-0.9,0-1.6,0.4-1.6,0.9C45.8,38.7,46.6,39.1,47.5,39.1z M47.5,44.1
	c0.9,0,1.6-0.4,1.6-0.9s-0.7-0.9-1.6-0.9c-0.9,0-1.6,0.4-1.6,0.9C45.9,43.7,46.6,44.1,47.5,44.1z M47.5,47.3c-0.9,0-1.6,0.4-1.6,0.9
	c0,0.5,0.7,0.9,1.6,0.9c0.9,0,1.6-0.4,1.6-0.9C49.1,47.7,48.4,47.3,47.5,47.3z M41.6,9.1c0.9,0,1.6-0.4,1.6-0.9
	c0-0.5-0.7-0.9-1.6-0.9c-0.9,0-1.6,0.4-1.6,0.9C40,8.7,40.7,9.1,41.6,9.1z M41.7,14.1c0.9,0,1.6-0.4,1.6-0.9c0-0.5-0.7-0.9-1.6-0.9
	c-0.9,0-1.6,0.4-1.6,0.9C40,13.7,40.8,14.1,41.7,14.1z M41.7,19c0.9,0,1.6-0.4,1.6-0.9c0-0.5-0.7-0.9-1.6-0.9
	c-0.9,0-1.6,0.4-1.6,0.9C40.1,18.6,40.8,19,41.7,19z M41.8,24c0.9,0,1.6-0.4,1.6-0.9c0-0.5-0.7-0.9-1.6-0.9c-0.9,0-1.6,0.4-1.6,0.9
	C40.1,23.6,40.9,24,41.8,24z M41.8,29c0.9,0,1.6-0.4,1.6-0.9c0-0.5-0.7-0.9-1.6-0.9c-0.9,0-1.6,0.4-1.6,0.9
	C40.1,28.6,40.9,29,41.8,29z M41.8,34c0.9,0,1.6-0.4,1.6-0.9c0-0.5-0.7-0.9-1.6-0.9c-0.9,0-1.6,0.4-1.6,0.9
	C40.2,33.6,40.9,34,41.8,34z M41.8,39c0.9,0,1.6-0.4,1.6-0.9c0-0.5-0.7-0.9-1.6-0.9c-0.9,0-1.6,0.4-1.6,0.9
	C40.2,38.6,40.9,39,41.8,39z M41.8,44c0.9,0,1.6-0.4,1.6-0.9c0-0.5-0.7-0.9-1.6-0.9c-0.9,0-1.6,0.4-1.6,0.9C40.2,43.6,41,44,41.8,44
	z M41.9,47.2c-0.9,0-1.6,0.4-1.6,0.9c0,0.5,0.7,0.9,1.6,0.9c0.9,0,1.6-0.4,1.6-0.9C43.5,47.6,42.8,47.2,41.9,47.2z M36,9.3
	c0.9,0,1.6-0.4,1.6-0.9c0-0.5-0.7-0.9-1.6-0.9c-0.9,0-1.6,0.4-1.6,0.9C34.4,8.9,35.1,9.3,36,9.3z M36,14.2c0.9,0,1.6-0.4,1.6-0.9
	c0-0.5-0.7-0.9-1.6-0.9c-0.9,0-1.6,0.4-1.6,0.9C34.4,13.8,35.1,14.2,36,14.2z M36.1,19.2c0.9,0,1.6-0.4,1.6-0.9
	c0-0.5-0.7-0.9-1.6-0.9c-0.9,0-1.6,0.4-1.6,0.9C34.4,18.8,35.2,19.2,36.1,19.2z M36.1,24.2c0.9,0,1.6-0.4,1.6-0.9
	c0-0.5-0.7-0.9-1.6-0.9c-0.9,0-1.6,0.4-1.6,0.9C34.5,23.8,35.2,24.2,36.1,24.2z M36.1,29.2c0.9,0,1.6-0.4,1.6-0.9
	c0-0.5-0.7-0.9-1.6-0.9c-0.9,0-1.6,0.4-1.6,0.9C34.5,28.8,35.2,29.2,36.1,29.2z M36.1,34.1c0.9,0,1.6-0.4,1.6-0.9
	c0-0.5-0.7-0.9-1.6-0.9c-0.9,0-1.6,0.4-1.6,0.9C34.5,33.8,35.3,34.1,36.1,34.1z M36.2,37.4c-0.9,0-1.6,0.4-1.6,0.9
	c0,0.5,0.7,0.9,1.6,0.9c0.9,0,1.6-0.4,1.6-0.9C37.8,37.8,37.1,37.4,36.2,37.4z M36.2,44.1c0.9,0,1.6-0.4,1.6-0.9
	c0-0.5-0.7-0.9-1.6-0.9c-0.9,0-1.6,0.4-1.6,0.9S35.3,44.1,36.2,44.1z M36.2,47.3c-0.9,0-1.6,0.4-1.6,0.9c0,0.5,0.7,0.9,1.6,0.9
	c0.9,0,1.6-0.4,1.6-0.9C37.8,47.7,37.1,47.3,36.2,47.3z M30.4,9.1c0.9,0,1.6-0.4,1.6-0.9c0-0.5-0.7-0.9-1.6-0.9
	c-0.9,0-1.6,0.4-1.6,0.9C28.7,8.7,29.5,9.1,30.4,9.1z M30.4,14.1c0.9,0,1.6-0.4,1.6-0.9c0-0.5-0.7-0.9-1.6-0.9
	c-0.9,0-1.6,0.4-1.6,0.9C28.8,13.7,29.5,14.1,30.4,14.1z M30.4,19.1c0.9,0,1.6-0.4,1.6-0.9s-0.7-0.9-1.6-0.9c-0.9,0-1.6,0.4-1.6,0.9
	C28.8,18.7,29.5,19.1,30.4,19.1z M30.4,24.1c0.9,0,1.6-0.4,1.6-0.9c0-0.5-0.7-0.9-1.6-0.9c-0.9,0-1.6,0.4-1.6,0.9
	C28.8,23.7,29.6,24.1,30.4,24.1z M30.5,29.1c0.9,0,1.6-0.4,1.6-0.9c0-0.5-0.7-0.9-1.6-0.9c-0.9,0-1.6,0.4-1.6,0.9
	C28.8,28.7,29.6,29.1,30.5,29.1z M30.5,34c0.9,0,1.6-0.4,1.6-0.9c0-0.5-0.7-0.9-1.6-0.9c-0.9,0-1.6,0.4-1.6,0.9
	C28.9,33.7,29.6,34.1,30.5,34z M30.5,39c0.9,0,1.6-0.4,1.6-0.9c0-0.5-0.7-0.9-1.6-0.9c-0.9,0-1.6,0.4-1.6,0.9
	C28.9,38.6,29.6,39,30.5,39z M30.5,44c0.9,0,1.6-0.4,1.6-0.9c0-0.5-0.7-0.9-1.6-0.9c-0.9,0-1.6,0.4-1.6,0.9
	C28.9,43.6,29.6,44,30.5,44z M30.6,47.2c-0.9,0-1.6,0.4-1.6,0.9c0,0.5,0.7,0.9,1.6,0.9c0.9,0,1.6-0.4,1.6-0.9
	C32.2,47.6,31.5,47.2,30.6,47.2z M24.7,9.3c0.9,0,1.6-0.4,1.6-0.9c0-0.5-0.7-0.9-1.6-0.9c-0.9,0-1.6,0.4-1.6,0.9
	C23.1,8.9,23.8,9.3,24.7,9.3z M24.7,14.3c0.9,0,1.6-0.4,1.6-0.9c0-0.5-0.7-0.9-1.6-0.9c-0.9,0-1.6,0.4-1.6,0.9
	C23.1,13.9,23.8,14.3,24.7,14.3z M24.8,19.3c0.9,0,1.6-0.4,1.6-0.9c0-0.5-0.7-0.9-1.6-0.9c-0.9,0-1.6,0.4-1.6,0.9
	C23.1,18.9,23.9,19.3,24.8,19.3z M24.8,22.5c-0.9,0-1.6,0.4-1.6,0.9c0,0.5,0.7,0.9,1.6,0.9c0.9,0,1.6-0.4,1.6-0.9
	C26.4,22.9,25.7,22.5,24.8,22.5z M24.8,29.2c0.9,0,1.6-0.4,1.6-0.9c0-0.5-0.7-0.9-1.6-0.9c-0.9,0-1.6,0.4-1.6,0.9
	S23.9,29.2,24.8,29.2z M24.8,34.2c0.9,0,1.6-0.4,1.6-0.9c0-0.5-0.7-0.9-1.6-0.9c-0.9,0-1.6,0.4-1.6,0.9
	C23.2,33.8,23.9,34.2,24.8,34.2z M24.9,39.2c0.9,0,1.6-0.4,1.6-0.9c0-0.5-0.7-0.9-1.6-0.9c-0.9,0-1.6,0.4-1.6,0.9
	C23.2,38.8,24,39.2,24.9,39.2z M24.9,44.2c0.9,0,1.6-0.4,1.6-0.9c0-0.5-0.7-0.9-1.6-0.9c-0.9,0-1.6,0.4-1.6,0.9
	C23.3,43.8,24,44.2,24.9,44.2z M24.9,47.4c-0.9,0-1.6,0.4-1.6,0.9c0,0.5,0.7,0.9,1.6,0.9c0.9,0,1.6-0.4,1.6-0.9
	C26.6,47.8,25.8,47.4,24.9,47.4z M19.1,9.2c0.9,0,1.6-0.4,1.6-0.9c0-0.5-0.7-0.9-1.6-0.9c-0.9,0-1.6,0.4-1.6,0.9S18.2,9.2,19.1,9.2z
	 M19.1,14.2c0.9,0,1.6-0.4,1.6-0.9c0-0.5-0.7-0.9-1.6-0.9c-0.9,0-1.6,0.4-1.6,0.9C17.5,13.8,18.2,14.2,19.1,14.2z M19.1,19.2
	c0.9,0,1.6-0.4,1.6-0.9c0-0.5-0.7-0.9-1.6-0.9c-0.9,0-1.6,0.4-1.6,0.9C17.5,18.8,18.2,19.2,19.1,19.2z M19.1,24.2
	c0.9,0,1.6-0.4,1.6-0.9c0-0.5-0.7-0.9-1.6-0.9c-0.9,0-1.6,0.4-1.6,0.9C17.5,23.8,18.2,24.2,19.1,24.2z M19.2,29.1
	c0.9,0,1.6-0.4,1.6-0.9c0-0.5-0.7-0.9-1.6-0.9c-0.9,0-1.6,0.4-1.6,0.9C17.5,28.7,18.3,29.1,19.2,29.1z M19.2,34.1
	c0.9,0,1.6-0.4,1.6-0.9c0-0.5-0.7-0.9-1.6-0.9c-0.9,0-1.6,0.4-1.6,0.9C17.6,33.7,18.3,34.1,19.2,34.1z M19.2,39.1
	c0.9,0,1.6-0.4,1.6-0.9c0-0.5-0.7-0.9-1.6-0.9c-0.9,0-1.6,0.4-1.6,0.9C17.6,38.7,18.3,39.1,19.2,39.1z M19.3,44.1
	c0.9,0,1.6-0.4,1.6-0.9s-0.7-0.9-1.6-0.9c-0.9,0-1.6,0.4-1.6,0.9C17.6,43.7,18.4,44.1,19.3,44.1z M19.3,47.3c-0.9,0-1.6,0.4-1.6,0.9
	c0,0.5,0.7,0.9,1.6,0.9c0.9,0,1.6-0.4,1.6-0.9S20.2,47.3,19.3,47.3z M13.4,9.4c0.9,0,1.6-0.4,1.6-0.9s-0.7-0.9-1.6-0.9
	c-0.9,0-1.6,0.4-1.6,0.9C11.8,9,12.6,9.4,13.4,9.4z M13.5,12.5c-0.9,0-1.6,0.4-1.6,0.9c0,0.5,0.7,0.9,1.6,0.9c0.9,0,1.6-0.4,1.6-0.9
	C15.1,12.9,14.4,12.5,13.5,12.5z M13.5,19.3c0.9,0,1.6-0.4,1.6-0.9c0-0.5-0.7-0.9-1.6-0.9c-0.9,0-1.6,0.4-1.6,0.9
	C11.8,18.9,12.6,19.3,13.5,19.3z M13.5,24.3c0.9,0,1.6-0.4,1.6-0.9c0-0.5-0.7-0.9-1.6-0.9c-0.9,0-1.6,0.4-1.6,0.9
	C11.9,23.9,12.6,24.3,13.5,24.3z M13.5,29.3c0.9,0,1.6-0.4,1.6-0.9c0-0.5-0.7-0.9-1.6-0.9c-0.9,0-1.6,0.4-1.6,0.9
	C11.9,28.9,12.6,29.3,13.5,29.3z M13.6,34.3c0.9,0,1.6-0.4,1.6-0.9c0-0.5-0.7-0.9-1.6-0.9c-0.9,0-1.6,0.4-1.6,0.9
	C11.9,33.9,12.7,34.3,13.6,34.3z M13.6,39.3c0.9,0,1.6-0.4,1.6-0.9c0-0.5-0.7-0.9-1.6-0.9c-0.9,0-1.6,0.4-1.6,0.9
	C12,38.9,12.7,39.3,13.6,39.3z M13.6,44.2c0.9,0,1.6-0.4,1.6-0.9c0-0.5-0.7-0.9-1.6-0.9c-0.9,0-1.6,0.4-1.6,0.9
	C12,43.9,12.7,44.2,13.6,44.2z M13.6,47.4c-0.9,0-1.6,0.4-1.6,0.9c0,0.5,0.7,0.9,1.6,0.9c0.9,0,1.6-0.4,1.6-0.9
	C15.3,47.8,14.5,47.4,13.6,47.4z M7.8,9.3c0.9,0,1.6-0.4,1.6-0.9c0-0.5-0.7-0.9-1.6-0.9c-0.9,0-1.6,0.4-1.6,0.9
	C6.1,8.9,6.9,9.3,7.8,9.3z M7.8,14.2c0.9,0,1.6-0.4,1.6-0.9c0-0.5-0.7-0.9-1.6-0.9c-0.9,0-1.6,0.4-1.6,0.9
	C6.2,13.8,6.9,14.2,7.8,14.2z M7.8,19.2c0.9,0,1.6-0.4,1.6-0.9c0-0.5-0.7-0.9-1.6-0.9c-0.9,0-1.6,0.4-1.6,0.9
	C6.2,18.8,6.9,19.2,7.8,19.2z M7.9,24.2c0.9,0,1.6-0.4,1.6-0.9c0-0.5-0.7-0.9-1.6-0.9c-0.9,0-1.6,0.4-1.6,0.9
	C6.2,23.8,7,24.2,7.9,24.2z M7.9,29.2c0.9,0,1.6-0.4,1.6-0.9c0-0.5-0.7-0.9-1.6-0.9c-0.9,0-1.6,0.4-1.6,0.9
	C6.3,28.8,7,29.2,7.9,29.2z M7.9,32.4c-0.9,0-1.6,0.4-1.6,0.9c0,0.5,0.7,0.9,1.6,0.9c0.9,0,1.6-0.4,1.6-0.9
	C9.5,32.8,8.8,32.4,7.9,32.4z M7.9,39.1c0.9,0,1.6-0.4,1.6-0.9c0-0.5-0.7-0.9-1.6-0.9c-0.9,0-1.6,0.4-1.6,0.9
	C6.3,38.8,7,39.1,7.9,39.1z M8,44.1c0.9,0,1.6-0.4,1.6-0.9c0-0.5-0.7-0.9-1.6-0.9c-0.9,0-1.6,0.4-1.6,0.9C6.3,43.8,7.1,44.1,8,44.1z
	 M8,47.3c-0.9,0-1.6,0.4-1.6,0.9c0,0.5,0.7,0.9,1.6,0.9c0.9,0,1.6-0.4,1.6-0.9C9.6,47.7,8.9,47.3,8,47.3z M2.1,9.2
	c0.9,0,1.6-0.4,1.6-0.9c0-0.5-0.7-0.9-1.6-0.9c-0.9,0-1.6,0.4-1.6,0.9C0.5,8.8,1.2,9.2,2.1,9.2z M2.2,14.2c0.9,0,1.6-0.4,1.6-0.9
	c0-0.5-0.7-0.9-1.6-0.9c-0.9,0-1.6,0.4-1.6,0.9C0.5,13.8,1.3,14.2,2.2,14.2z M2.2,19.1c0.9,0,1.6-0.4,1.6-0.9c0-0.5-0.7-0.9-1.6-0.9
	c-0.9,0-1.6,0.4-1.6,0.9C0.6,18.7,1.3,19.1,2.2,19.1z M2.2,24.1c0.9,0,1.6-0.4,1.6-0.9c0-0.5-0.7-0.9-1.6-0.9
	c-0.9,0-1.6,0.4-1.6,0.9C0.6,23.7,1.3,24.1,2.2,24.1z M2.2,29.1c0.9,0,1.6-0.4,1.6-0.9c0-0.5-0.7-0.9-1.6-0.9
	c-0.9,0-1.6,0.4-1.6,0.9C0.6,28.7,1.3,29.1,2.2,29.1z M2.3,34.1c0.9,0,1.6-0.4,1.6-0.9c0-0.5-0.7-0.9-1.6-0.9
	c-0.9,0-1.6,0.4-1.6,0.9C0.6,33.7,1.4,34.1,2.3,34.1z M2.3,39c0.9,0,1.6-0.4,1.6-0.9c0-0.5-0.7-0.9-1.6-0.9c-0.9,0-1.6,0.4-1.6,0.9
	C0.7,38.7,1.4,39.1,2.3,39z M2.3,44c0.9,0,1.6-0.4,1.6-0.9c0-0.5-0.7-0.9-1.6-0.9c-0.9,0-1.6,0.4-1.6,0.9C0.7,43.7,1.4,44.1,2.3,44z
	 M2.3,47.3c-0.9,0-1.6,0.4-1.6,0.9c0,0.5,0.7,0.9,1.6,0.9C3.2,49,4,48.6,4,48.2C4,47.7,3.2,47.3,2.3,47.3z"/>
</svg>
