<?xml version="1.0" encoding="utf-8"?>
<!-- Generator: Adobe Illustrator 26.2.1, SVG Export Plug-In . SVG Version: 6.00 Build 0)  -->
<svg version="1.1" id="Layer_1" xmlns="http://www.w3.org/2000/svg" xmlns:xlink="http://www.w3.org/1999/xlink" x="0px" y="0px"
	 viewBox="0 0 106.1 96.9" style="enable-background:new 0 0 106.1 96.9;" xml:space="preserve">
<style type="text/css">
	.st0{fill:#B8C5D0;}
</style>
<path class="st0" d="M34.3,16.9c0-1.3,0.5-2.3,1.2-2.3c0.7,0,1.2,1,1.3,2.3c0,1.3-0.5,2.3-1.2,2.3C34.8,19.2,34.3,18.2,34.3,16.9z
	 M42.5,19.2c0.7,0,1.2-1,1.2-2.3c0-1.3-0.6-2.3-1.3-2.3c-0.7,0-1.2,1-1.2,2.3C41.3,18.1,41.8,19.2,42.5,19.2z M49.5,19.1
	c0.7,0,1.2-1,1.2-2.3c0-1.3-0.6-2.3-1.3-2.3s-1.2,1-1.2,2.3C48.2,18.1,48.8,19.1,49.5,19.1z M56.5,19c0.7,0,1.2-1,1.2-2.3
	c0-1.3-0.6-2.3-1.3-2.3c-0.7,0-1.2,1-1.2,2.3C55.2,18,55.8,19,56.5,19z M63.4,19c0.7,0,1.2-1,1.2-2.3c0-1.3-0.6-2.3-1.3-2.3
	s-1.2,1-1.2,2.3C62.2,18,62.7,19,63.4,19z M70.4,19c0.7,0,1.2-1,1.2-2.3c0-1.3-0.6-2.3-1.3-2.3c-0.7,0-1.2,1-1.2,2.3
	C69.1,18,69.7,19,70.4,19z M28.4,27.1c0.7,0,1.2-1,1.2-2.3c0-1.3-0.6-2.3-1.3-2.3c-0.7,0-1.2,1-1.2,2.3S27.7,27.2,28.4,27.1z
	 M35.4,27.1c0.7,0,1.2-1,1.2-2.3c0-1.3-0.6-2.3-1.3-2.3c-0.7,0-1.2,1-1.2,2.3C34.2,26.1,34.7,27.1,35.4,27.1z M42.4,27.1
	c0.7,0,1.2-1,1.2-2.3c0-1.3-0.6-2.3-1.3-2.3c-0.7,0-1.2,1-1.2,2.3C41.1,26.1,41.7,27.1,42.4,27.1z M49.3,27c0.7,0,1.2-1,1.2-2.3
	c0-1.3-0.6-2.3-1.3-2.3c-0.7,0-1.2,1-1.2,2.3C48.1,26,48.7,27,49.3,27z M56.3,27c0.7,0,1.2-1,1.2-2.3c0-1.3-0.6-2.3-1.3-2.3
	c-0.7,0-1.2,1-1.2,2.3C55.1,26,55.6,27,56.3,27z M63.3,26.9c0.7,0,1.2-1,1.2-2.3c0-1.3-0.6-2.3-1.3-2.3c-0.7,0-1.2,1-1.2,2.3
	C62.1,25.9,62.6,26.9,63.3,26.9z M70.3,26.9c0.7,0,1.2-1,1.2-2.3c0-1.3-0.6-2.3-1.3-2.3c-0.7,0-1.2,1-1.2,2.3
	C69,25.8,69.6,26.9,70.3,26.9z M77.3,26.8c0.7,0,1.2-1,1.2-2.3c0-1.3-0.6-2.3-1.3-2.3c-0.7,0-1.2,1-1.2,2.3
	C76,25.8,76.6,26.8,77.3,26.8z M21.7,35.1c0.7,0,1.2-1,1.2-2.3c0-1.3-0.6-2.3-1.3-2.3c-0.7,0-1.2,1-1.2,2.3
	C20.4,34.1,21,35.1,21.7,35.1z M28.6,30.5c-0.7,0-1.2,1-1.2,2.3c0,1.3,0.6,2.3,1.3,2.3c0.7,0,1.2-1,1.2-2.3
	C29.9,31.5,29.3,30.5,28.6,30.5z M35.6,30.4c-0.7,0-1.2,1-1.2,2.3c0,1.3,0.6,2.3,1.3,2.3c0.7,0,1.2-1,1.2-2.3
	C36.9,31.4,36.3,30.4,35.6,30.4z M42.6,30.4c-0.7,0-1.2,1-1.2,2.3c0,1.3,0.6,2.3,1.3,2.3s1.2-1,1.2-2.3
	C43.8,31.4,43.3,30.4,42.6,30.4z M49.5,30.4c-0.7,0-1.2,1-1.2,2.3c0,1.3,0.6,2.3,1.3,2.3c0.7,0,1.2-1,1.2-2.3
	C50.8,31.4,50.2,30.4,49.5,30.4z M56.5,30.3c-0.7,0-1.2,1-1.2,2.3c0,1.3,0.6,2.3,1.3,2.3c0.7,0,1.2-1,1.2-2.3
	C57.8,31.4,57.2,30.3,56.5,30.3z M63.5,30.3c-0.7,0-1.2,1-1.2,2.3c0,1.3,0.6,2.3,1.3,2.3c0.7,0,1.2-1,1.2-2.3
	C64.8,31.3,64.2,30.3,63.5,30.3z M70.5,30.2c-0.7,0-1.2,1-1.2,2.3c0,1.3,0.6,2.3,1.3,2.3c0.7,0,1.2-1,1.2-2.3
	C71.7,31.2,71.2,30.2,70.5,30.2z M77.5,30.2c-0.7,0-1.2,1-1.2,2.3c0,1.3,0.6,2.3,1.3,2.3s1.2-1,1.2-2.3
	C78.7,31.2,78.2,30.2,77.5,30.2z M84.4,34.7c0.7,0,1.2-1,1.2-2.3c0-1.3-0.6-2.3-1.3-2.3c-0.7,0-1.2,1-1.2,2.3
	C83.2,33.7,83.8,34.7,84.4,34.7z M21.5,43c0.7,0,1.2-1,1.2-2.3c0-1.3-0.6-2.3-1.3-2.3c-0.7,0-1.2,1-1.2,2.3C20.3,42,20.9,43,21.5,43
	z M27.3,40.7c0,1.3,0.6,2.3,1.3,2.3s1.2-1,1.2-2.3c0-1.3-0.6-2.3-1.3-2.3C27.8,38.4,27.2,39.4,27.3,40.7z M34.3,40.7
	c0,1.3,0.6,2.3,1.3,2.3c0.7,0,1.2-1,1.2-2.3c0-1.3-0.6-2.3-1.3-2.3C34.8,38.4,34.2,39.4,34.3,40.7z M41.2,40.6
	c0,1.3,0.6,2.3,1.3,2.3c0.7,0,1.2-1,1.2-2.3c0-1.3-0.6-2.3-1.3-2.3C41.8,38.3,41.2,39.4,41.2,40.6z M48.2,40.5
	c0,1.3,0.6,2.3,1.3,2.3c0.7,0,1.2-1,1.2-2.3c0-1.3-0.6-2.3-1.3-2.3C48.8,38.3,48.2,39.3,48.2,40.5z M55.2,40.5
	c0,1.3,0.6,2.3,1.3,2.3c0.7,0,1.2-1,1.2-2.3c0-1.3-0.6-2.3-1.3-2.3C55.7,38.2,55.2,39.2,55.2,40.5z M62.2,40.5
	c0,1.3,0.6,2.3,1.3,2.3s1.2-1,1.2-2.3c0-1.3-0.6-2.3-1.3-2.3C62.7,38.2,62.2,39.2,62.2,40.5z M70.4,42.7c0.7,0,1.2-1,1.2-2.3
	c0-1.3-0.6-2.3-1.3-2.3c-0.7,0-1.2,1-1.2,2.3C69.1,41.7,69.7,42.7,70.4,42.7z M76.1,40.4c0,1.3,0.6,2.3,1.3,2.3c0.7,0,1.2-1,1.2-2.3
	c0-1.3-0.6-2.3-1.3-2.3C76.6,38.1,76.1,39.2,76.1,40.4z M84.4,42.6c0.7,0,1.2-1,1.2-2.3c0-1.3-0.6-2.3-1.3-2.3c-0.7,0-1.2,1-1.2,2.3
	C83.1,41.6,83.7,42.6,84.4,42.6z M21.7,46.3c-0.7,0-1.2,1-1.2,2.3c0,1.3,0.6,2.3,1.3,2.3c0.7,0,1.2-1,1.2-2.3
	C23,47.3,22.4,46.3,21.7,46.3z M28.7,46.3c-0.7,0-1.2,1-1.2,2.3c0,1.3,0.6,2.3,1.3,2.3s1.2-1,1.2-2.3C30,47.3,29.4,46.3,28.7,46.3z
	 M35.7,46.3c-0.7,0-1.2,1-1.2,2.3c0,1.3,0.6,2.3,1.3,2.3c0.7,0,1.2-1,1.2-2.3C36.9,47.3,36.4,46.3,35.7,46.3z M42.7,46.2
	c-0.7,0-1.2,1-1.2,2.3c0,1.3,0.6,2.3,1.3,2.3c0.7,0,1.2-1,1.2-2.3C43.9,47.2,43.4,46.2,42.7,46.2z M49.7,46.2c-0.7,0-1.2,1-1.2,2.3
	c0,1.3,0.6,2.3,1.3,2.3c0.7,0,1.2-1,1.2-2.3C50.9,47.2,50.3,46.2,49.7,46.2z M56.7,46.1c-0.7,0-1.2,1-1.2,2.3c0,1.3,0.6,2.3,1.3,2.3
	c0.7,0,1.2-1,1.2-2.3C57.9,47.1,57.3,46.1,56.7,46.1z M63.6,46.1c-0.7,0-1.2,1-1.2,2.3c0,1.3,0.6,2.3,1.3,2.3c0.7,0,1.2-1,1.2-2.3
	C64.9,47.1,64.3,46.1,63.6,46.1z M70.6,46c-0.7,0-1.2,1-1.2,2.3c0,1.3,0.6,2.3,1.3,2.3c0.7,0,1.2-1,1.2-2.3
	C71.8,47.1,71.3,46,70.6,46z M77.6,46c-0.7,0-1.2,1-1.2,2.3c0,1.3,0.6,2.3,1.3,2.3c0.7,0,1.2-1,1.2-2.3C78.8,47,78.3,46,77.6,46z
	 M84.5,46c-0.7,0-1.2,1-1.2,2.3c0,1.3,0.6,2.3,1.3,2.3c0.7,0,1.2-1,1.2-2.3C85.8,47,85.2,46,84.5,46z M21.6,54.3
	c-0.7,0-1.2,1-1.2,2.3c0,1.3,0.6,2.3,1.3,2.3c0.7,0,1.2-1,1.2-2.3C22.9,55.3,22.3,54.3,21.6,54.3z M29.9,56.5c0-1.3-0.6-2.3-1.3-2.3
	c-0.7,0-1.2,1-1.2,2.3c0,1.3,0.6,2.3,1.3,2.3C29.3,58.8,29.9,57.7,29.9,56.5z M36.9,56.4c0-1.3-0.6-2.3-1.3-2.3
	c-0.7,0-1.2,1-1.2,2.3c0,1.3,0.6,2.3,1.3,2.3C36.3,58.7,36.9,57.7,36.9,56.4z M43.8,56.4c0-1.3-0.6-2.3-1.3-2.3
	c-0.7,0-1.2,1-1.2,2.3c0,1.3,0.6,2.3,1.3,2.3C43.3,58.7,43.8,57.7,43.8,56.4z M50.8,56.4c0-1.3-0.6-2.3-1.3-2.3
	c-0.7,0-1.2,1-1.2,2.3c0,1.3,0.6,2.3,1.3,2.3S50.8,57.6,50.8,56.4z M57.7,56.4c0-1.3-0.6-2.3-1.3-2.3c-0.7,0-1.2,1-1.2,2.3
	c0,1.3,0.6,2.3,1.3,2.3S57.8,57.6,57.7,56.4z M64.7,56.3c0-1.3-0.6-2.3-1.3-2.3c-0.7,0-1.2,1-1.2,2.3c0,1.3,0.6,2.3,1.3,2.3
	C64.2,58.6,64.8,57.5,64.7,56.3z M71.7,56.2c0-1.3-0.6-2.3-1.3-2.3c-0.7,0-1.2,1-1.2,2.3c0,1.3,0.6,2.3,1.3,2.3
	C71.2,58.5,71.7,57.5,71.7,56.2z M78.7,56.2c0-1.3-0.6-2.3-1.3-2.3c-0.7,0-1.2,1-1.2,2.3c0,1.3,0.6,2.3,1.3,2.3
	C78.2,58.5,78.7,57.4,78.7,56.2z M84.5,53.9c-0.7,0-1.2,1-1.2,2.3c0,1.3,0.6,2.3,1.3,2.3c0.7,0,1.2-1,1.2-2.3
	C85.7,54.9,85.1,53.9,84.5,53.9z M21.5,62.2c-0.7,0-1.2,1-1.2,2.3c0,1.3,0.6,2.3,1.3,2.3c0.7,0,1.2-1,1.2-2.3
	C22.8,63.2,22.2,62.2,21.5,62.2z M28.5,66.7c0.7,0,1.2-1,1.2-2.3c0-1.3-0.6-2.3-1.3-2.3c-0.7,0-1.2,1-1.2,2.3
	C27.3,65.7,27.8,66.7,28.5,66.7z M35.5,66.6c0.7,0,1.2-1,1.2-2.3c0-1.3-0.6-2.3-1.3-2.3c-0.7,0-1.2,1-1.2,2.3
	C34.2,65.6,34.8,66.6,35.5,66.6z M42.4,66.6c0.7,0,1.2-1,1.2-2.3c0-1.3-0.6-2.3-1.3-2.3c-0.7,0-1.2,1-1.2,2.3
	C41.2,65.6,41.7,66.6,42.4,66.6z M49.4,66.6c0.7,0,1.2-1,1.2-2.3c0-1.3-0.6-2.3-1.3-2.3c-0.7,0-1.2,1-1.2,2.3
	C48.2,65.5,48.7,66.6,49.4,66.6z M56.4,66.5c0.7,0,1.2-1,1.2-2.3c0-1.3-0.6-2.3-1.3-2.3c-0.7,0-1.2,1-1.2,2.3
	C55.1,65.5,55.7,66.5,56.4,66.5z M63.4,66.5c0.7,0,1.2-1,1.2-2.3c0-1.3-0.6-2.3-1.3-2.3c-0.7,0-1.2,1-1.2,2.3
	C62.1,65.5,62.7,66.5,63.4,66.5z M70.4,66.4c0.7,0,1.2-1,1.2-2.3c0-1.3-0.6-2.3-1.3-2.3c-0.7,0-1.2,1-1.2,2.3
	C69.1,65.4,69.7,66.4,70.4,66.4z M77.3,66.3c0.7,0,1.2-1,1.2-2.3c0-1.3-0.6-2.3-1.3-2.3c-0.7,0-1.2,1-1.2,2.3
	C76.1,65.3,76.6,66.3,77.3,66.3z M84.3,61.7c-0.7,0-1.2,1-1.2,2.3c0,1.3,0.6,2.3,1.3,2.3c0.7,0,1.2-1,1.2-2.3
	C85.5,62.8,85,61.7,84.3,61.7z M28.7,70c-0.7,0-1.2,1-1.2,2.3c0,1.3,0.6,2.3,1.3,2.3c0.7,0,1.2-1,1.2-2.3C29.9,71,29.4,70,28.7,70z
	 M35.7,70c-0.7,0-1.2,1-1.2,2.3c0,1.3,0.6,2.3,1.3,2.3c0.7,0,1.2-1,1.2-2.3C36.9,71,36.4,70,35.7,70z M42.6,70c-0.7,0-1.2,1-1.2,2.3
	c0,1.3,0.6,2.3,1.3,2.3c0.7,0,1.2-1,1.2-2.3C43.9,71,43.3,69.9,42.6,70z M49.7,69.9c-0.7,0-1.2,1-1.2,2.3c0,1.3,0.6,2.3,1.3,2.3
	c0.7,0,1.2-1,1.2-2.3C50.9,70.9,50.3,69.9,49.7,69.9z M56.6,69.9c-0.7,0-1.2,1-1.2,2.3c0,1.3,0.6,2.3,1.3,2.3c0.7,0,1.2-1,1.2-2.3
	C57.9,70.9,57.3,69.9,56.6,69.9z M63.6,69.8c-0.7,0-1.2,1-1.2,2.3c0,1.3,0.6,2.3,1.3,2.3s1.2-1,1.2-2.3S64.3,69.8,63.6,69.8z
	 M70.5,69.7c-0.7,0-1.2,1-1.2,2.3c0,1.3,0.6,2.3,1.3,2.3c0.7,0,1.2-1,1.2-2.3C71.8,70.8,71.2,69.7,70.5,69.7z M77.5,69.7
	c-0.7,0-1.2,1-1.2,2.3c0,1.3,0.6,2.3,1.3,2.3s1.2-1,1.2-2.3C78.8,70.7,78.2,69.7,77.5,69.7z M35.6,77.9c-0.7,0-1.2,1-1.2,2.3
	c0,1.3,0.6,2.3,1.3,2.3c0.7,0,1.2-1,1.2-2.3C36.8,78.9,36.3,77.9,35.6,77.9z M42.5,77.9c-0.7,0-1.2,1-1.2,2.3c0,1.3,0.6,2.3,1.3,2.3
	c0.7,0,1.2-1,1.2-2.3C43.8,78.9,43.2,77.9,42.5,77.9z M49.5,77.8c-0.7,0-1.2,1-1.2,2.3c0,1.3,0.6,2.3,1.3,2.3c0.7,0,1.2-1,1.2-2.3
	C50.8,78.8,50.2,77.8,49.5,77.8z M56.4,77.7c-0.7,0-1.2,1-1.2,2.3c0,1.3,0.6,2.3,1.3,2.3c0.7,0,1.2-1,1.2-2.3
	C57.7,78.8,57.1,77.7,56.4,77.7z M63.4,77.7c-0.7,0-1.2,1-1.2,2.3c0,1.3,0.6,2.3,1.3,2.3c0.7,0,1.2-1,1.2-2.3
	C64.7,78.7,64.1,77.7,63.4,77.7z M70.5,77.7c-0.7,0-1.2,1-1.2,2.3c0,1.3,0.6,2.3,1.3,2.3c0.7,0,1.2-1,1.2-2.3
	C71.7,78.7,71.1,77.7,70.5,77.7z"/>
</svg>
