<?xml version="1.0" encoding="utf-8"?>
<!-- Generator: Adobe Illustrator 26.2.1, SVG Export Plug-In . SVG Version: 6.00 Build 0)  -->
<svg version="1.1" id="Layer_1" xmlns="http://www.w3.org/2000/svg" xmlns:xlink="http://www.w3.org/1999/xlink" x="0px" y="0px"
	 viewBox="0 0 50 50" style="enable-background:new 0 0 50 50;" xml:space="preserve">
<style type="text/css">
	.st0{fill:#FFFFFF;}
</style>
<path class="st0" d="M25.2,1.1C12,1.1,1.3,11.9,1.3,25.1S12,49,25.2,49s23.9-10.7,23.9-23.9S38.4,1.1,25.2,1.1z M22.2,13.4h6v17.3
	h-6V13.4z M14.2,13.4h6v4.2h-6C14.2,17.6,14.2,13.4,14.2,13.4z M20.2,31.2c0,1.8-0.4,3.1-1.1,4c-0.8,1-2.2,1.5-4,1.5h-0.9V19.4h6
	V31.2z M36.2,36.8h-14v-4.1h14V36.8z M36.2,30.8h-6.1V19.4h1c2.7,0,4.3,0.9,4.9,2.8c0.2,0.6,0.3,1.3,0.3,2.1L36.2,30.8L36.2,30.8z"
	/>
</svg>
