<?xml version="1.0" encoding="utf-8"?>
<!-- Generator: Adobe Illustrator 26.2.1, SVG Export Plug-In . SVG Version: 6.00 Build 0)  -->
<svg version="1.1" id="Layer_1" xmlns="http://www.w3.org/2000/svg" xmlns:xlink="http://www.w3.org/1999/xlink" x="0px" y="0px"
	 viewBox="0 0 106.1 179.6" style="enable-background:new 0 0 106.1 179.6;" xml:space="preserve">
<style type="text/css">
	.st0{fill:#9EC6DB;}
	.st1{fill:#0062AA;}
</style>
<g>
	<path class="st0" d="M7.1,3.4c25.1,4.7,39.1,9.9,48,28.1c2.9,6.3,6.7,14.9,8.7,26.4C66.5,73.6,74,84.6,74,84.6
		c-46.6-8.8-62.3-20-68-40.1C0.7,28.6,7,3.7,7.1,3.4z"/>
	<path class="st1" d="M74,84.6c-46.6-8.8-62.3-20-68-40.1C0.7,28.6,7,3.7,7.1,3.4C7.1,3.4,6.2,30.6,74,84.6z"/>
</g>
<path class="st0" d="M81.5,148c-10.1-27.4-18.4-35.8-31.2-37.2c-10.2-1.6-24.7,4.8-24.8,4.8c5.4,14.8,10,22.7,21.9,26.3
	c4.1,1.2,9.7,2.6,16.9,2.6C74.1,144.6,81.5,148,81.5,148"/>
<g>
	<path d="M86.9,141.1l-0.9-0.4c-0.1,0-7.4-3.4-17.1-3.5c-6.9,0-12.5-1.3-17-2.6C40,131,35.2,123.2,29.6,108l-0.2-0.4l0.5-0.2
		c3.5-1.5,15.8-6.2,24.9-4.8c13.7,1.6,22,11.4,31.6,37.5L86.9,141.1z M30.6,108.1c5.5,14.9,10,22.2,21.5,25.7
		c4.5,1.3,10,2.6,16.8,2.6c7.8,0,14.2,2.2,16.5,3.2c-9.3-25.1-17.4-34.5-30.5-36C46,102.1,33.6,106.8,30.6,108.1z"/>
</g>
</svg>
