<?xml version="1.0" encoding="utf-8"?>
<!-- Generator: Adobe Illustrator 26.2.1, SVG Export Plug-In . SVG Version: 6.00 Build 0)  -->
<svg version="1.1" id="Layer_1" xmlns="http://www.w3.org/2000/svg" xmlns:xlink="http://www.w3.org/1999/xlink" x="0px" y="0px"
	 viewBox="0 0 500 195.8" style="enable-background:new 0 0 500 195.8;" xml:space="preserve">
<style type="text/css">
	.st0{fill:#0062AA;}
	.st1{fill:#DC5C00;}
	.st2{fill:#B8C5D0;}
	.st3{fill:#DDE7EC;}
	.st4{clip-path:url(#SVGID_00000129917881238169019430000007603719608769535903_);}
	.st5{fill:none;stroke:#344154;stroke-width:1.1876;stroke-linecap:round;stroke-linejoin:round;stroke-miterlimit:10;}
	.st6{fill:none;stroke:#344154;stroke-width:1.1876;stroke-miterlimit:10;}
	.st7{fill:#F3A56D;}
	.st8{fill:#EB690B;}
	.st9{clip-path:url(#SVGID_00000080917358556882101490000015382088028143737261_);}
	.st10{fill:none;stroke:#344154;stroke-width:1.1876;stroke-linecap:round;stroke-miterlimit:10;}
	.st11{fill:#9EC6DB;}
	.st12{clip-path:url(#SVGID_00000000917034517368991460000018319330525778014372_);}
</style>
<path class="st0" d="M434.6,122.6c0-0.9,0.4-1.7,0.9-1.7c0.5,0,0.9,0.7,0.9,1.7c0,0.9-0.4,1.7-0.9,1.7
	C435,124.2,434.6,123.5,434.6,122.6z M440.7,124.2c0.5,0,0.9-0.8,0.9-1.7c0-0.9-0.4-1.7-0.9-1.7c-0.5,0-0.9,0.8-0.9,1.7
	C439.8,123.5,440.2,124.2,440.7,124.2z M445.8,124.2c0.5,0,0.9-0.8,0.9-1.7c0-0.9-0.4-1.7-0.9-1.7s-0.9,0.8-0.9,1.7
	C444.9,123.4,445.3,124.2,445.8,124.2z M451,124.1c0.5,0,0.9-0.8,0.9-1.7c0-0.9-0.4-1.7-0.9-1.7c-0.5,0-0.9,0.8-0.9,1.7
	C450.1,123.4,450.5,124.1,451,124.1z M456.2,124.1c0.5,0,0.9-0.8,0.9-1.7c0-0.9-0.4-1.7-0.9-1.7c-0.5,0-0.9,0.8-0.9,1.7
	C455.2,123.4,455.6,124.1,456.2,124.1z M461.3,124.1c0.5,0,0.9-0.8,0.9-1.7c0-0.9-0.4-1.7-0.9-1.7c-0.5,0-0.9,0.8-0.9,1.7
	C460.4,123.3,460.8,124.1,461.3,124.1z M430.3,130.1c0.5,0,0.9-0.8,0.9-1.7c0-0.9-0.4-1.7-0.9-1.7c-0.5,0-0.9,0.8-0.9,1.7
	C429.3,129.4,429.8,130.1,430.3,130.1z M435.4,130.1c0.5,0,0.9-0.8,0.9-1.7c0-0.9-0.4-1.7-0.9-1.7c-0.5,0-0.9,0.8-0.9,1.7
	C434.5,129.3,434.9,130.1,435.4,130.1z M440.6,130.1c0.5,0,0.9-0.8,0.9-1.7c0-0.9-0.4-1.7-0.9-1.7c-0.5,0-0.9,0.8-0.9,1.7
	C439.7,129.3,440.1,130.1,440.6,130.1z M445.7,130c0.5,0,0.9-0.8,0.9-1.7c0-0.9-0.4-1.7-0.9-1.7c-0.5,0-0.9,0.8-0.9,1.7
	C444.8,129.3,445.2,130,445.7,130z M450.9,130c0.5,0,0.9-0.8,0.9-1.7c0-0.9-0.4-1.7-0.9-1.7c-0.5,0-0.9,0.8-0.9,1.7
	C450,129.2,450.4,130,450.9,130z M456.1,130c0.5,0,0.9-0.8,0.9-1.7c0-0.9-0.4-1.7-0.9-1.7c-0.5,0-0.9,0.8-0.9,1.7
	C455.1,129.2,455.6,130,456.1,130z M461.2,129.9c0.5,0,0.9-0.8,0.9-1.7c0-0.9-0.4-1.7-0.9-1.7c-0.5,0-0.9,0.8-0.9,1.7
	C460.3,129.2,460.7,129.9,461.2,129.9z M466.4,129.9c0.5,0,0.9-0.8,0.9-1.7c0-0.9-0.4-1.7-0.9-1.7c-0.5,0-0.9,0.8-0.9,1.7
	C465.5,129.1,465.9,129.9,466.4,129.9z M425.3,136c0.5,0,0.9-0.8,0.9-1.7c0-0.9-0.4-1.7-0.9-1.7c-0.5,0-0.9,0.8-0.9,1.7
	C424.4,135.3,424.8,136,425.3,136z M430.4,132.6c-0.5,0-0.9,0.8-0.9,1.7c0,0.9,0.4,1.7,0.9,1.7c0.5,0,0.9-0.8,0.9-1.7
	C431.4,133.3,430.9,132.6,430.4,132.6z M435.6,132.5c-0.5,0-0.9,0.8-0.9,1.7c0,0.9,0.4,1.7,0.9,1.7c0.5,0,0.9-0.8,0.9-1.7
	C436.5,133.3,436.1,132.5,435.6,132.5z M440.7,132.5c-0.5,0-0.9,0.8-0.9,1.7c0,0.9,0.4,1.7,0.9,1.7c0.5,0,0.9-0.8,0.9-1.7
	C441.6,133.3,441.2,132.5,440.7,132.5z M445.9,132.5c-0.5,0-0.9,0.8-0.9,1.7c0,0.9,0.4,1.7,0.9,1.7c0.5,0,0.9-0.8,0.9-1.7
	C446.8,133.3,446.4,132.5,445.9,132.5z M451,132.5c-0.5,0-0.9,0.8-0.9,1.7c0,0.9,0.4,1.7,0.9,1.7c0.5,0,0.9-0.8,0.9-1.7
	C452,133.2,451.6,132.5,451,132.5z M456.2,132.4c-0.5,0-0.9,0.8-0.9,1.7c0,0.9,0.4,1.7,0.9,1.7c0.5,0,0.9-0.8,0.9-1.7
	C457.1,133.2,456.7,132.4,456.2,132.4z M461.4,132.4c-0.5,0-0.9,0.8-0.9,1.7c0,0.9,0.4,1.7,0.9,1.7c0.5,0,0.9-0.8,0.9-1.7
	C462.3,133.1,461.9,132.4,461.4,132.4z M466.5,132.4c-0.5,0-0.9,0.8-0.9,1.7c0,0.9,0.4,1.7,0.9,1.7c0.5,0,0.9-0.8,0.9-1.7
	C467.5,133.1,467.1,132.4,466.5,132.4z M471.7,135.7c0.5,0,0.9-0.8,0.9-1.7c0-0.9-0.4-1.7-0.9-1.7c-0.5,0-0.9,0.8-0.9,1.7
	C470.8,134.9,471.2,135.7,471.7,135.7z M425.2,141.9c0.5,0,0.9-0.8,0.9-1.7c0-0.9-0.4-1.7-0.9-1.7c-0.5,0-0.9,0.8-0.9,1.7
	C424.3,141.1,424.7,141.9,425.2,141.9z M429.4,140.1c0,0.9,0.4,1.7,0.9,1.7c0.5,0,0.9-0.8,0.9-1.7c0-0.9-0.4-1.7-0.9-1.7
	C429.8,138.5,429.4,139.2,429.4,140.1z M434.6,140.1c0,0.9,0.4,1.7,0.9,1.7c0.5,0,0.9-0.8,0.9-1.7c0-0.9-0.4-1.7-0.9-1.7
	C435,138.4,434.6,139.2,434.6,140.1z M439.7,140.1c0,0.9,0.4,1.7,0.9,1.7c0.5,0,0.9-0.8,0.9-1.7c0-0.9-0.4-1.7-0.9-1.7
	C440.1,138.4,439.7,139.2,439.7,140.1z M444.9,140c0,0.9,0.4,1.7,0.9,1.7c0.5,0,0.9-0.8,0.9-1.7c0-0.9-0.4-1.7-0.9-1.7
	C445.3,138.3,444.9,139.1,444.9,140z M450,140c0,0.9,0.4,1.7,0.9,1.7c0.5,0,0.9-0.8,0.9-1.7c0-0.9-0.4-1.7-0.9-1.7
	C450.4,138.3,450,139.1,450,140z M455.2,140c0,0.9,0.4,1.7,0.9,1.7c0.5,0,0.9-0.8,0.9-1.7c0-0.9-0.4-1.7-0.9-1.7
	C455.6,138.3,455.2,139,455.2,140z M461.3,141.6c0.5,0,0.9-0.8,0.9-1.7c0-0.9-0.4-1.7-0.9-1.7c-0.5,0-0.9,0.8-0.9,1.7
	C460.3,140.9,460.8,141.6,461.3,141.6z M465.5,139.9c0,0.9,0.4,1.7,0.9,1.7c0.5,0,0.9-0.8,0.9-1.7c0-0.9-0.4-1.7-0.9-1.7
	C465.9,138.2,465.5,139,465.5,139.9z M471.6,141.5c0.5,0,0.9-0.8,0.9-1.7c0-0.9-0.4-1.7-0.9-1.7c-0.5,0-0.9,0.8-0.9,1.7
	C470.7,140.8,471.1,141.5,471.6,141.5z M425.3,144.3c-0.5,0-0.9,0.8-0.9,1.7c0,0.9,0.4,1.7,0.9,1.7c0.5,0,0.9-0.8,0.9-1.7
	C426.2,145.1,425.8,144.3,425.3,144.3z M430.5,144.3c-0.5,0-0.9,0.8-0.9,1.7c0,0.9,0.4,1.7,0.9,1.7s0.9-0.8,0.9-1.7
	C431.4,145.1,431,144.3,430.5,144.3z M435.6,144.3c-0.5,0-0.9,0.8-0.9,1.7c0,0.9,0.4,1.7,0.9,1.7c0.5,0,0.9-0.8,0.9-1.7
	C436.6,145,436.1,144.3,435.6,144.3z M440.8,144.2c-0.5,0-0.9,0.8-0.9,1.7c0,0.9,0.4,1.7,0.9,1.7c0.5,0,0.9-0.8,0.9-1.7
	C441.7,145,441.3,144.2,440.8,144.2z M446,144.2c-0.5,0-0.9,0.8-0.9,1.7c0,0.9,0.4,1.7,0.9,1.7c0.5,0,0.9-0.8,0.9-1.7
	C446.9,144.9,446.5,144.2,446,144.2z M451.1,144.2c-0.5,0-0.9,0.8-0.9,1.7c0,0.9,0.4,1.7,0.9,1.7c0.5,0,0.9-0.8,0.9-1.7
	C452.1,144.9,451.6,144.1,451.1,144.2z M456.3,144.1c-0.5,0-0.9,0.8-0.9,1.7c0,0.9,0.4,1.7,0.9,1.7c0.5,0,0.9-0.8,0.9-1.7
	C457.2,144.9,456.8,144.1,456.3,144.1z M461.4,144.1c-0.5,0-0.9,0.8-0.9,1.7c0,0.9,0.4,1.7,0.9,1.7c0.5,0,0.9-0.8,0.9-1.7
	C462.4,144.8,461.9,144.1,461.4,144.1z M466.6,144.1c-0.5,0-0.9,0.8-0.9,1.7c0,0.9,0.4,1.7,0.9,1.7c0.5,0,0.9-0.8,0.9-1.7
	C467.5,144.8,467.1,144.1,466.6,144.1z M471.8,144c-0.5,0-0.9,0.8-0.9,1.7c0,0.9,0.4,1.7,0.9,1.7c0.5,0,0.9-0.8,0.9-1.7
	C472.7,144.8,472.3,144,471.8,144z M425.2,150.2c-0.5,0-0.9,0.8-0.9,1.7c0,0.9,0.4,1.7,0.9,1.7c0.5,0,0.9-0.8,0.9-1.7
	C426.1,150.9,425.7,150.2,425.2,150.2z M431.3,151.8c0-0.9-0.4-1.7-0.9-1.7c-0.5,0-0.9,0.8-0.9,1.7c0,0.9,0.4,1.7,0.9,1.7
	C430.9,153.5,431.3,152.7,431.3,151.8z M436.5,151.8c0-0.9-0.4-1.7-0.9-1.7c-0.5,0-0.9,0.8-0.9,1.7c0,0.9,0.4,1.7,0.9,1.7
	C436.1,153.5,436.5,152.7,436.5,151.8z M441.7,151.7c0-0.9-0.4-1.7-0.9-1.7c-0.5,0-0.9,0.8-0.9,1.7c0,0.9,0.4,1.7,0.9,1.7
	C441.3,153.4,441.7,152.7,441.7,151.7z M446.8,151.7c0-0.9-0.4-1.7-0.9-1.7c-0.5,0-0.9,0.8-0.9,1.7c0,0.9,0.4,1.7,0.9,1.7
	S446.8,152.6,446.8,151.7z M451.9,151.7c0-0.9-0.4-1.7-0.9-1.7c-0.5,0-0.9,0.8-0.9,1.7c0,0.9,0.4,1.7,0.9,1.7S452,152.6,451.9,151.7
	z M457.1,151.6c0-0.9-0.4-1.7-0.9-1.7c-0.5,0-0.9,0.8-0.9,1.7c0,0.9,0.4,1.7,0.9,1.7C456.7,153.3,457.1,152.6,457.1,151.6z
	 M462.3,151.6c0-0.9-0.4-1.7-0.9-1.7c-0.5,0-0.9,0.8-0.9,1.7c0,0.9,0.4,1.7,0.9,1.7C461.9,153.3,462.3,152.5,462.3,151.6z
	 M467.4,151.6c0-0.9-0.4-1.7-0.9-1.7c-0.5,0-0.9,0.8-0.9,1.7c0,0.9,0.4,1.7,0.9,1.7C467,153.3,467.5,152.5,467.4,151.6z
	 M471.7,149.9c-0.5,0-0.9,0.8-0.9,1.7c0,0.9,0.4,1.7,0.9,1.7c0.5,0,0.9-0.8,0.9-1.7C472.6,150.6,472.2,149.9,471.7,149.9z
	 M425.2,156c-0.5,0-0.9,0.8-0.9,1.7c0,0.9,0.4,1.7,0.9,1.7c0.5,0,0.9-0.8,0.9-1.7C426.1,156.8,425.7,156,425.2,156z M430.3,159.3
	c0.5,0,0.9-0.8,0.9-1.7c0-0.9-0.4-1.7-0.9-1.7c-0.5,0-0.9,0.8-0.9,1.7C429.4,158.6,429.8,159.3,430.3,159.3z M435.5,159.3
	c0.5,0,0.9-0.8,0.9-1.7c0-0.9-0.4-1.7-0.9-1.7c-0.5,0-0.9,0.8-0.9,1.7C434.6,158.6,435,159.3,435.5,159.3z M440.6,159.3
	c0.5,0,0.9-0.8,0.9-1.7c0-0.9-0.4-1.7-0.9-1.7c-0.5,0-0.9,0.8-0.9,1.7C439.7,158.5,440.1,159.3,440.6,159.3z M445.8,159.3
	c0.5,0,0.9-0.8,0.9-1.7c0-0.9-0.4-1.7-0.9-1.7c-0.5,0-0.9,0.8-0.9,1.7C444.9,158.5,445.3,159.3,445.8,159.3z M450.9,159.2
	c0.5,0,0.9-0.8,0.9-1.7c0-0.9-0.4-1.7-0.9-1.7c-0.5,0-0.9,0.8-0.9,1.7C450,158.5,450.4,159.2,450.9,159.2z M456.1,159.2
	c0.5,0,0.9-0.8,0.9-1.7c0-0.9-0.4-1.7-0.9-1.7c-0.5,0-0.9,0.8-0.9,1.7C455.2,158.4,455.6,159.2,456.1,159.2z M461.3,159.2
	c0.5,0,0.9-0.8,0.9-1.7c0-0.9-0.4-1.7-0.9-1.7c-0.5,0-0.9,0.8-0.9,1.7C460.4,158.4,460.8,159.2,461.3,159.2z M466.4,159.1
	c0.5,0,0.9-0.8,0.9-1.7c0-0.9-0.4-1.7-0.9-1.7c-0.5,0-0.9,0.8-0.9,1.7C465.5,158.4,465.9,159.1,466.4,159.1z M471.6,155.7
	c-0.5,0-0.9,0.8-0.9,1.7c0,0.9,0.4,1.7,0.9,1.7c0.5,0,0.9-0.8,0.9-1.7C472.5,156.4,472.1,155.7,471.6,155.7z M430.5,161.8
	c-0.5,0-0.9,0.8-0.9,1.7c0,0.9,0.4,1.7,0.9,1.7c0.5,0,0.9-0.8,0.9-1.7C431.4,162.6,431,161.8,430.5,161.8z M435.6,161.8
	c-0.5,0-0.9,0.8-0.9,1.7c0,0.9,0.4,1.7,0.9,1.7c0.5,0,0.9-0.8,0.9-1.7C436.6,162.5,436.1,161.8,435.6,161.8z M440.8,161.8
	c-0.5,0-0.9,0.8-0.9,1.7c0,0.9,0.4,1.7,0.9,1.7c0.5,0,0.9-0.8,0.9-1.7C441.7,162.5,441.3,161.8,440.8,161.8z M446,161.7
	c-0.5,0-0.9,0.8-0.9,1.7c0,0.9,0.4,1.7,0.9,1.7c0.5,0,0.9-0.8,0.9-1.7C446.9,162.5,446.5,161.7,446,161.7z M451.1,161.7
	c-0.5,0-0.9,0.8-0.9,1.7c0,0.9,0.4,1.7,0.9,1.7c0.5,0,0.9-0.8,0.9-1.7C452,162.5,451.6,161.7,451.1,161.7z M456.3,161.7
	c-0.5,0-0.9,0.8-0.9,1.7c0,0.9,0.4,1.7,0.9,1.7c0.5,0,0.9-0.8,0.9-1.7C457.2,162.4,456.8,161.7,456.3,161.7z M461.4,161.6
	c-0.5,0-0.9,0.8-0.9,1.7c0,0.9,0.4,1.7,0.9,1.7c0.5,0,0.9-0.8,0.9-1.7C462.3,162.4,461.9,161.6,461.4,161.6z M466.6,161.6
	c-0.5,0-0.9,0.8-0.9,1.7c0,0.9,0.4,1.7,0.9,1.7c0.5,0,0.9-0.8,0.9-1.7C467.5,162.3,467.1,161.6,466.6,161.6z M435.5,167.6
	c-0.5,0-0.9,0.8-0.9,1.7c0,0.9,0.4,1.7,0.9,1.7c0.5,0,0.9-0.8,0.9-1.7C436.5,168.4,436.1,167.6,435.5,167.6z M440.7,167.6
	c-0.5,0-0.9,0.8-0.9,1.7c0,0.9,0.4,1.7,0.9,1.7c0.5,0,0.9-0.8,0.9-1.7C441.6,168.4,441.2,167.6,440.7,167.6z M445.9,167.6
	c-0.5,0-0.9,0.8-0.9,1.7c0,0.9,0.4,1.7,0.9,1.7c0.5,0,0.9-0.8,0.9-1.7C446.8,168.3,446.4,167.6,445.9,167.6z M451,167.5
	c-0.5,0-0.9,0.8-0.9,1.7c0,0.9,0.4,1.7,0.9,1.7c0.5,0,0.9-0.8,0.9-1.7C451.9,168.3,451.5,167.5,451,167.5z M456.2,167.5
	c-0.5,0-0.9,0.8-0.9,1.7c0,0.9,0.4,1.7,0.9,1.7c0.5,0,0.9-0.8,0.9-1.7C457.1,168.2,456.7,167.5,456.2,167.5z M461.3,167.5
	c-0.5,0-0.9,0.8-0.9,1.7c0,0.9,0.4,1.7,0.9,1.7c0.5,0,0.9-0.8,0.9-1.7C462.3,168.2,461.8,167.5,461.3,167.5z"/>
<circle class="st1" cx="453.2" cy="42.8" r="24.4"/>
<g>
	<path class="st2" d="M205.3,118.5c-18.5,2.5-28.9,5.7-36.2,18.7c-2.4,4.5-5.5,10.6-7.3,19c-2.6,11.4-8.5,19.1-8.5,19.1
		c34.4-4.6,46.2-12.2,51.2-26.7C209,137.1,205.4,118.7,205.3,118.5z"/>
	<g>
		<path d="M160,183.2l0.8-1c0.1-0.1,5.9-7.7,8.4-18.9c1.8-8,4.7-14.1,7.4-19.1c7.2-12.9,17.5-16.4,36.5-18.9l0.5-0.1l0.1,0.6
			c0.8,4.5,3.1,19.9-0.8,30.2c-5.3,15.5-18.8,22.6-51.6,27L160,183.2z M212.7,126.4c-18.7,2.6-28.3,5.9-35.3,18.4
			c-2.6,4.9-5.5,10.9-7.3,18.8c-2.1,9.1-6.2,15.9-7.9,18.3c31.5-4.4,44.5-11.3,49.6-26.2C215.7,145.7,213.4,130.2,212.7,126.4z"/>
	</g>
</g>
<g>
	<circle class="st3" cx="163.6" cy="39" r="11.7"/>
	<g>
		<defs>
			<rect id="SVGID_1_" x="163.6" y="23.5" width="52.8" height="38.6"/>
		</defs>
		<clipPath id="SVGID_00000057857976760631809570000001781815905811217029_">
			<use xlink:href="#SVGID_1_"  style="overflow:visible;"/>
		</clipPath>
		<g style="clip-path:url(#SVGID_00000057857976760631809570000001781815905811217029_);">
			<path class="st5" d="M186.5,54.5h6.5c0,0-0.2,1.6,0.2,3.3c0.2,1.2,1.2,2.4,2.5,3.1c0.4,0.2,0.2,0.7-0.2,0.7h-8.9h-8.9
				c-0.4,0-0.6-0.5-0.2-0.7c1.3-0.7,2.3-1.8,2.5-3.1c0.3-1.6,0.2-3.3,0.2-3.3H186.5z"/>
			<path class="st5" d="M186.9,51.8c0,0.2-0.2,0.5-0.4,0.5c-0.2,0-0.4-0.2-0.4-0.5c0-0.2,0.2-0.5,0.4-0.5
				C186.7,51.4,186.9,51.6,186.9,51.8z"/>
			<path class="st5" d="M201.4,54.5H180h-13.5c-1.2,0-2.2-1-2.2-2.2v-3.2h8.6"/>
			<path class="st5" d="M201.4,49.1h-37.1v-6V26.5c0-1.3,1.1-2.4,2.4-2.4h39.6c1.3,0,2.4,1.1,2.4,2.4v11.1"/>
			<path class="st6" d="M214.4,56.7h-11.6"/>
			<path class="st6" d="M214.8,61.5h-12.3c-0.6,0-1.1-0.5-1.1-1.1V49.1V38.6c0-0.6,0.5-1.1,1.1-1.1h6.1h6.1c0.6,0,1.1,0.5,1.1,1.1
				v21.7C215.9,61,215.4,61.5,214.8,61.5z"/>
			<path class="st6" d="M209,59.1c0-0.2-0.2-0.4-0.4-0.4s-0.4,0.2-0.4,0.4c0,0.2,0.2,0.4,0.4,0.4C208.8,59.5,209,59.3,209,59.1z"/>
			<path class="st5" d="M207.2,39.9h1.4h1.4"/>
		</g>
	</g>
</g>
<g>
	<path class="st7" d="M19.5,170.3c17.3,2.2,27.4,1.8,37.1-8.1c3.2-3.4,7.5-8.3,11.2-15.3c5.1-9.7,12.3-15.2,12.3-15.2
		c-32.1-4.1-44.6-0.2-52.6,11.7C20.7,152.7,19.5,170.1,19.5,170.3z"/>
	<path class="st8" d="M80,131.8c-32.1-4.1-44.6-0.2-52.6,11.7c-6.8,9.2-7.9,26.7-8,26.9C19.5,170.3,24.6,152.5,80,131.8z"/>
</g>
<g>
	<circle class="st7" cx="58.6" cy="60.3" r="11.7"/>
	<g>
		<defs>
			<rect id="SVGID_00000068644115424616004080000009288860389501877156_" x="29.2" y="13.6" width="33.8" height="51.1"/>
		</defs>
		<clipPath id="SVGID_00000063617962580763883560000012334009640555403193_">
			<use xlink:href="#SVGID_00000068644115424616004080000009288860389501877156_"  style="overflow:visible;"/>
		</clipPath>
		<g style="clip-path:url(#SVGID_00000063617962580763883560000012334009640555403193_);">
			<path class="st6" d="M48.7,17v-0.2c0-1.5-1.2-2.6-2.6-2.6s-2.6,1.2-2.6,2.6V17"/>
			<path class="st6" d="M40.5,17.7v5.6c0,0.5,0.4,1,1,1h0.4c0.5,0,0.9-0.4,0.9-0.8v-0.1c0.2-1.7,1.6-2.9,3.3-2.9
				c1.7,0,3.1,1.3,3.3,2.9v0.1c0.1,0.5,0.5,0.8,0.9,0.8c0.5,0,1-0.4,1-1v-5.6c0-0.4-0.3-0.7-0.7-0.7h-9.3
				C40.8,17,40.5,17.3,40.5,17.7z"/>
			<path class="st6" d="M40.5,19.2h-8.2c-1.4,0-2.6,1.2-2.6,2.6v39.7c0,1.4,1.2,2.6,2.6,2.6h27.5c1.4,0,2.6-1.2,2.6-2.6V21.8
				c0-1.4-1.2-2.6-2.6-2.6h-8.6"/>
			<path class="st10" d="M37.6,23.1h-4v37.1h19.4l5.7-5.7V23.1h-4"/>
			<path class="st6" d="M43.2,38.9l-3,3.2l-1.5-1.5"/>
			<path class="st6" d="M38.9,33.1l3.6-3.6"/>
			<path class="st6" d="M42.4,33.1l-3.6-3.6"/>
			<path class="st6" d="M38.9,51.8l3.6-3.6"/>
			<path class="st6" d="M42.4,51.8l-3.6-3.6"/>
			<path class="st6" d="M45,33.1h10.5"/>
			<path class="st6" d="M45,42.3h10.5"/>
			<path class="st10" d="M51.7,57.9v-4.6h4.6"/>
		</g>
	</g>
</g>
<g>
	<path class="st0" d="M291.5,167.5c2.1-15.4,4.7-24.1,15.5-30.2c3.7-2,8.8-4.6,15.8-6.2c9.5-2.2,15.9-7.1,15.9-7.1
		c-3.8,28.6-10.1,38.5-22.1,42.7C307,170.5,291.6,167.5,291.5,167.5z"/>
	<g>
		<path class="st3" d="M325.9,175.8c-0.3,0-0.6,0.4-0.6,1c0,0.1,0,0.1,0,0.2c0.4-0.1,0.8-0.2,1.1-0.3
			C326.4,176.2,326.2,175.8,325.9,175.8z"/>
		<path class="st3" d="M322.7,175.5c-0.3,0-0.6,0.4-0.7,1c0,0.5,0.1,0.9,0.3,1l0.5-0.1c0.2-0.2,0.3-0.5,0.4-0.9
			C323.2,176.1,323,175.6,322.7,175.5z"/>
		<path class="st3" d="M319.4,175.3c-0.3,0-0.6,0.4-0.6,1c0,0.6,0.2,1.1,0.5,1.1c0.3,0,0.6-0.4,0.6-1
			C320,175.8,319.8,175.3,319.4,175.3z"/>
		<path class="st3" d="M316.2,175.1c-0.3,0-0.6,0.4-0.6,1c0,0.6,0.2,1.1,0.5,1.1c0.3,0,0.6-0.4,0.6-1
			C316.8,175.6,316.5,175.1,316.2,175.1z"/>
		<path class="st3" d="M313,174.9c-0.3,0-0.6,0.4-0.6,1c0,0.6,0.2,1.1,0.5,1.1c0.3,0,0.6-0.4,0.6-1
			C313.6,175.4,313.3,174.9,313,174.9z"/>
		<path class="st3" d="M309.8,174.6c-0.3,0-0.6,0.4-0.6,1c0,0.6,0.2,1.1,0.5,1.1c0.3,0,0.6-0.4,0.6-1
			C310.3,175.1,310.1,174.6,309.8,174.6z"/>
		<path class="st3" d="M332.5,172.6c-0.3,0-0.6,0.4-0.7,1c0,0.3,0,0.5,0.1,0.7l1.1-0.6c0,0,0,0,0,0
			C333,173.1,332.8,172.6,332.5,172.6z"/>
		<path class="st3" d="M329.3,172.4c-0.3,0-0.6,0.4-0.6,1c0,0.6,0.2,1.1,0.5,1.1c0.3,0,0.6-0.4,0.6-1
			C329.8,172.9,329.6,172.4,329.3,172.4z"/>
		<path class="st3" d="M326.1,172.1c-0.3,0-0.6,0.4-0.6,1c0,0.6,0.2,1.1,0.5,1.1c0.3,0,0.6-0.4,0.6-1
			C326.6,172.6,326.4,172.1,326.1,172.1z"/>
		<path class="st3" d="M322.8,171.9c-0.3,0-0.6,0.4-0.6,1c0,0.6,0.2,1.1,0.5,1.1c0.3,0,0.6-0.4,0.6-1
			C323.4,172.4,323.2,171.9,322.8,171.9z"/>
		<path class="st3" d="M319.6,171.7c-0.3,0-0.6,0.4-0.6,1c0,0.6,0.2,1.1,0.5,1.1c0.3,0,0.6-0.4,0.6-1
			C320.2,172.2,319.9,171.7,319.6,171.7z"/>
		<path class="st3" d="M316.4,171.4c-0.3,0-0.6,0.4-0.6,1c0,0.6,0.2,1.1,0.5,1.1c0.3,0,0.6-0.4,0.6-1
			C317,171.9,316.7,171.5,316.4,171.4z"/>
		<path class="st3" d="M313.2,171.2c-0.3,0-0.6,0.4-0.6,1c0,0.6,0.2,1.1,0.5,1.1c0.3,0,0.6-0.4,0.6-1
			C313.7,171.7,313.5,171.2,313.2,171.2z"/>
		<path class="st3" d="M310,171c-0.3,0-0.6,0.4-0.6,1c0,0.6,0.2,1.1,0.5,1.1c0.3,0,0.6-0.4,0.6-1C310.5,171.5,310.3,171,310,171z"/>
		<path class="st3" d="M336.1,169.2c-0.3,0-0.6,0.4-0.6,1c0,0.6,0.2,1.1,0.5,1.1c0.3,0,0.6-0.4,0.6-1
			C336.6,169.7,336.4,169.2,336.1,169.2z"/>
		<path class="st3" d="M332.8,168.9c-0.3,0-0.6,0.4-0.6,1c0,0.6,0.2,1.1,0.5,1.1c0.3,0,0.6-0.4,0.6-1
			C333.4,169.5,333.2,169,332.8,168.9z"/>
		<path class="st3" d="M329.6,168.7c-0.3,0-0.6,0.4-0.6,1c0,0.6,0.2,1.1,0.5,1.1c0.3,0,0.6-0.4,0.6-1
			C330.2,169.2,329.9,168.7,329.6,168.7z"/>
		<path class="st3" d="M326.4,168.5c-0.3,0-0.6,0.4-0.6,1c0,0.6,0.2,1.1,0.5,1.1c0.3,0,0.6-0.4,0.6-1
			C326.9,169,326.7,168.5,326.4,168.5z"/>
		<path class="st3" d="M323.2,168.3c-0.3,0-0.6,0.4-0.6,1c0,0.6,0.2,1.1,0.5,1.1c0.3,0,0.6-0.4,0.6-1
			C323.7,168.8,323.5,168.3,323.2,168.3z"/>
		<path class="st3" d="M320,168c-0.3,0-0.6,0.4-0.6,1c0,0.6,0.2,1.1,0.5,1.1c0.3,0,0.6-0.4,0.6-1C320.5,168.5,320.3,168,320,168z"/>
		<path class="st3" d="M316.8,167.8c-0.3,0-0.6,0.4-0.6,1c0,0.6,0.2,1.1,0.5,1.1c0.3,0,0.6-0.4,0.6-1
			C317.3,168.3,317.1,167.8,316.8,167.8z"/>
		<path class="st3" d="M313.5,167.6c-0.3,0-0.6,0.4-0.6,1c0,0.6,0.2,1.1,0.5,1.1c0.3,0,0.6-0.4,0.6-1
			C314.1,168.1,313.8,167.6,313.5,167.6z"/>
		<path class="st3" d="M310.3,167.3c-0.3,0-0.6,0.4-0.6,1c0,0.6,0.2,1.1,0.5,1.1c0.3,0,0.6-0.4,0.6-1
			C310.9,167.8,310.6,167.3,310.3,167.3z"/>
		<path class="st3" d="M339.5,165.7c-0.3,0-0.6,0.4-0.7,1c0,0.5,0.1,0.9,0.4,1.1l0.8-1.2C339.9,166.1,339.7,165.8,339.5,165.7z"/>
		<path class="st3" d="M336.2,165.5c-0.3,0-0.6,0.4-0.6,1c0,0.6,0.2,1.1,0.5,1.1c0.3,0,0.6-0.4,0.6-1
			C336.8,166,336.6,165.6,336.2,165.5z"/>
		<path class="st3" d="M333,165.3c-0.3,0-0.6,0.4-0.6,1c0,0.6,0.2,1.1,0.5,1.1c0.3,0,0.6-0.4,0.6-1
			C333.6,165.8,333.3,165.3,333,165.3z"/>
		<path class="st3" d="M329.8,165c-0.3,0-0.6,0.4-0.6,1c0,0.6,0.2,1.1,0.5,1.1c0.3,0,0.6-0.4,0.6-1
			C330.3,165.6,330.1,165.1,329.8,165z"/>
		<path class="st3" d="M326.6,164.8c-0.3,0-0.6,0.4-0.6,1c0,0.6,0.2,1.1,0.5,1.1c0.3,0,0.6-0.4,0.6-1
			C327.1,165.3,326.9,164.8,326.6,164.8z"/>
		<path class="st3" d="M323.4,164.6c-0.3,0-0.6,0.4-0.6,1c0,0.6,0.2,1.1,0.5,1.1c0.3,0,0.6-0.4,0.6-1
			C323.9,165.1,323.7,164.6,323.4,164.6z"/>
		<path class="st3" d="M320.1,164.4c-0.3,0-0.6,0.4-0.6,1c0,0.6,0.2,1.1,0.5,1.1c0.3,0,0.6-0.4,0.6-1
			C320.7,164.9,320.5,164.4,320.1,164.4z"/>
		<path class="st3" d="M316.9,164.1c-0.3,0-0.6,0.4-0.6,1c0,0.6,0.2,1.1,0.5,1.1c0.3,0,0.6-0.4,0.6-1
			C317.5,164.6,317.2,164.2,316.9,164.1z"/>
		<path class="st3" d="M313.7,163.9c-0.3,0-0.6,0.4-0.6,1c0,0.6,0.2,1.1,0.5,1.1c0.3,0,0.6-0.4,0.6-1
			C314.3,164.4,314,163.9,313.7,163.9z"/>
		<path class="st3" d="M310.5,163.7c-0.3,0-0.6,0.4-0.6,1c0,0.6,0.2,1.1,0.5,1.1c0.3,0,0.6-0.4,0.6-1
			C311,164.2,310.8,163.7,310.5,163.7z"/>
		<path class="st3" d="M339.8,162.1c-0.3,0-0.6,0.4-0.6,1c0,0.6,0.2,1.1,0.5,1.1c0.3,0,0.6-0.4,0.6-1
			C340.3,162.6,340.1,162.1,339.8,162.1z"/>
		<path class="st3" d="M336.6,161.9c-0.3,0-0.6,0.4-0.6,1c0,0.6,0.2,1.1,0.5,1.1c0.3,0,0.6-0.4,0.6-1
			C337.1,162.4,336.9,161.9,336.6,161.9z"/>
		<path class="st3" d="M333.4,161.6c-0.3,0-0.6,0.4-0.6,1c0,0.6,0.2,1.1,0.5,1.1c0.3,0,0.6-0.4,0.6-1
			C333.9,162.1,333.7,161.7,333.4,161.6z"/>
		<path class="st3" d="M330.2,161.4c-0.3,0-0.6,0.4-0.6,1c0,0.6,0.2,1.1,0.5,1.1c0.3,0,0.6-0.4,0.6-1
			C330.7,161.9,330.5,161.4,330.2,161.4z"/>
		<path class="st3" d="M326.9,161.2c-0.3,0-0.6,0.4-0.6,1c0,0.6,0.2,1.1,0.5,1.1c0.3,0,0.6-0.4,0.6-1
			C327.5,161.7,327.2,161.2,326.9,161.2z"/>
		<path class="st3" d="M323.7,161c-0.3,0-0.6,0.4-0.6,1c0,0.6,0.2,1.1,0.5,1.1c0.3,0,0.6-0.4,0.6-1C324.2,161.5,324,161,323.7,161z"
			/>
		<path class="st3" d="M320.5,160.7c-0.3,0-0.6,0.4-0.6,1c0,0.6,0.2,1.1,0.5,1.1c0.3,0,0.6-0.4,0.6-1
			C321,161.2,320.8,160.7,320.5,160.7z"/>
		<path class="st3" d="M317.3,160.5c-0.3,0-0.6,0.4-0.6,1c0,0.6,0.2,1.1,0.5,1.1c0.3,0,0.6-0.4,0.6-1
			C317.8,161,317.6,160.5,317.3,160.5z"/>
		<path class="st3" d="M314.1,160.2c-0.3,0-0.6,0.4-0.6,1c0,0.6,0.2,1.1,0.5,1.1c0.3,0,0.6-0.4,0.6-1
			C314.6,160.8,314.4,160.3,314.1,160.2z"/>
		<path class="st3" d="M310.8,160c-0.3,0-0.6,0.4-0.6,1c0,0.6,0.2,1.1,0.5,1.1c0.3,0,0.6-0.4,0.6-1C311.4,160.5,311.1,160,310.8,160
			z"/>
		<path class="st3" d="M342.5,159.7c0,0.4,0.1,0.7,0.2,0.9l0.6-1.9c0,0-0.1,0-0.1,0C342.9,158.7,342.6,159.1,342.5,159.7z"/>
		<path class="st3" d="M340,158.5c-0.3,0-0.6,0.4-0.6,1c0,0.6,0.2,1.1,0.5,1.1c0.3,0,0.6-0.4,0.6-1C340.5,159,340.3,158.5,340,158.5
			z"/>
		<path class="st3" d="M336.8,158.2c-0.3,0-0.6,0.4-0.6,1c0,0.6,0.2,1.1,0.5,1.1c0.3,0,0.6-0.4,0.6-1
			C337.3,158.7,337.1,158.2,336.8,158.2z"/>
		<path class="st3" d="M333.6,158c-0.3,0-0.6,0.4-0.6,1c0,0.6,0.2,1.1,0.5,1.1c0.3,0,0.6-0.4,0.6-1C334.1,158.5,333.9,158,333.6,158
			z"/>
		<path class="st3" d="M330.3,157.8c-0.3,0-0.6,0.4-0.6,1c0,0.6,0.2,1.1,0.5,1.1c0.3,0,0.6-0.4,0.6-1
			C330.9,158.3,330.6,157.8,330.3,157.8z"/>
		<path class="st3" d="M327.1,157.5c-0.3,0-0.6,0.4-0.6,1c0,0.6,0.2,1.1,0.5,1.1c0.3,0,0.6-0.4,0.6-1
			C327.6,158,327.4,157.5,327.1,157.5z"/>
		<path class="st3" d="M323.9,157.3c-0.3,0-0.6,0.4-0.6,1c0,0.6,0.2,1.1,0.5,1.1c0.3,0,0.6-0.4,0.6-1
			C324.4,157.8,324.2,157.3,323.9,157.3z"/>
		<path class="st3" d="M320.7,157.1c-0.3,0-0.6,0.4-0.6,1c0,0.6,0.2,1.1,0.5,1.1c0.3,0,0.6-0.4,0.6-1
			C321.2,157.6,321,157.1,320.7,157.1z"/>
		<path class="st3" d="M317.5,156.8c-0.3,0-0.6,0.4-0.6,1c0,0.6,0.2,1.1,0.5,1.1c0.3,0,0.6-0.4,0.6-1
			C318,157.3,317.8,156.9,317.5,156.8z"/>
		<path class="st3" d="M314.2,156.6c-0.3,0-0.6,0.4-0.6,1c0,0.6,0.2,1.1,0.5,1.1c0.3,0,0.6-0.4,0.6-1
			C314.8,157.1,314.5,156.6,314.2,156.6z"/>
		<path class="st3" d="M310.8,158.5C310.8,158.5,310.8,158.5,310.8,158.5c0.4,0,0.6-0.4,0.7-1c0-0.1,0-0.2,0-0.3
			C311.3,157.6,311,158,310.8,158.5z"/>
		<path class="st3" d="M343.5,155c-0.3,0-0.6,0.4-0.6,1c0,0.6,0.2,1.1,0.5,1.1c0.3,0,0.6-0.4,0.6-1
			C344.1,155.5,343.9,155.1,343.5,155z"/>
		<path class="st3" d="M340.3,154.8c-0.3,0-0.6,0.4-0.6,1c0,0.6,0.2,1.1,0.5,1.1c0.3,0,0.6-0.4,0.6-1
			C340.9,155.3,340.7,154.8,340.3,154.8z"/>
		<path class="st3" d="M337.1,154.6c-0.3,0-0.6,0.4-0.6,1c0,0.6,0.2,1.1,0.5,1.1c0.3,0,0.6-0.4,0.6-1
			C337.6,155.1,337.4,154.6,337.1,154.6z"/>
		<path class="st3" d="M333.9,154.4c-0.3,0-0.6,0.4-0.6,1c0,0.6,0.2,1.1,0.5,1.1c0.3,0,0.6-0.4,0.6-1
			C334.4,154.9,334.2,154.4,333.9,154.4z"/>
		<path class="st3" d="M330.7,154.1c-0.3,0-0.6,0.4-0.6,1c0,0.6,0.2,1.1,0.5,1.1c0.3,0,0.6-0.4,0.6-1S331,154.1,330.7,154.1z"/>
		<path class="st3" d="M327.5,153.9c-0.3,0-0.6,0.4-0.6,1c0,0.6,0.2,1.1,0.5,1.1c0.3,0,0.6-0.4,0.6-1
			C328,154.4,327.8,153.9,327.5,153.9z"/>
		<path class="st3" d="M324.2,153.6c-0.3,0-0.6,0.4-0.6,1c0,0.6,0.2,1.1,0.5,1.1c0.3,0,0.6-0.4,0.6-1
			C324.8,154.2,324.6,153.7,324.2,153.6z"/>
		<path class="st3" d="M321,153.4c-0.3,0-0.6,0.4-0.6,1c0,0.6,0.2,1.1,0.5,1.1c0.3,0,0.6-0.4,0.6-1
			C321.5,153.9,321.3,153.5,321,153.4z"/>
		<path class="st3" d="M317.8,153.2c-0.3,0-0.6,0.4-0.6,1c0,0.6,0.2,1.1,0.5,1.1c0.3,0,0.6-0.4,0.6-1
			C318.3,153.7,318.1,153.2,317.8,153.2z"/>
		<path class="st3" d="M314.6,153l-0.7,0.7c0,0.1,0,0.2,0,0.3c0,0.6,0.2,1.1,0.5,1.1c0.3,0,0.6-0.4,0.7-1
			C315.1,153.5,314.9,153,314.6,153z"/>
		<path class="st3" d="M343.9,151.4c-0.3,0-0.6,0.4-0.6,1c0,0.6,0.2,1.1,0.5,1.1c0.3,0,0.6-0.4,0.6-1
			C344.4,151.9,344.2,151.4,343.9,151.4z"/>
		<path class="st3" d="M340.7,151.2c-0.3,0-0.6,0.4-0.6,1c0,0.6,0.2,1.1,0.5,1.1c0.3,0,0.6-0.4,0.6-1
			C341.2,151.7,341,151.2,340.7,151.2z"/>
		<path class="st3" d="M337.5,150.9c-0.3,0-0.6,0.4-0.6,1c0,0.6,0.2,1.1,0.5,1.1c0.3,0,0.6-0.4,0.6-1
			C338,151.4,337.8,151,337.5,150.9z"/>
		<path class="st3" d="M334.2,150.7c-0.3,0-0.6,0.4-0.6,1c0,0.6,0.2,1.1,0.5,1.1c0.3,0,0.6-0.4,0.6-1
			C334.8,151.2,334.6,150.7,334.2,150.7z"/>
		<path class="st3" d="M331,150.5c-0.3,0-0.6,0.4-0.6,1c0,0.6,0.2,1.1,0.5,1.1c0.3,0,0.6-0.4,0.6-1C331.6,151,331.3,150.5,331,150.5
			z"/>
		<path class="st3" d="M327.8,150.3c-0.3,0-0.6,0.4-0.6,1c0,0.6,0.2,1.1,0.5,1.1c0.3,0,0.6-0.4,0.6-1
			C328.3,150.8,328.1,150.3,327.8,150.3z"/>
		<path class="st3" d="M324.6,150c-0.3,0-0.6,0.4-0.6,1c0,0.6,0.2,1.1,0.5,1.1c0.3,0,0.6-0.4,0.6-1C325.1,150.5,324.9,150,324.6,150
			z"/>
		<path class="st3" d="M321.3,149.8c-0.3,0-0.6,0.4-0.6,1c0,0.6,0.2,1.1,0.5,1.1c0.3,0,0.6-0.4,0.6-1
			C321.9,150.3,321.7,149.8,321.3,149.8z"/>
		<path class="st3" d="M317.5,150.4c0,0.1,0,0.1,0,0.2c0,0.6,0.2,1.1,0.5,1.1c0.3,0,0.6-0.4,0.7-1c0-0.4-0.1-0.8-0.2-1L317.5,150.4z
			"/>
		<path class="st3" d="M344.1,147.7c-0.3,0-0.6,0.4-0.6,1c0,0.6,0.2,1.1,0.5,1.1c0.3,0,0.6-0.4,0.6-1
			C344.6,148.3,344.4,147.8,344.1,147.7z"/>
		<path class="st3" d="M340.9,147.5c-0.3,0-0.6,0.4-0.6,1c0,0.6,0.2,1.1,0.5,1.1c0.3,0,0.6-0.4,0.6-1
			C341.4,148,341.2,147.5,340.9,147.5z"/>
		<path class="st3" d="M337.6,147.3c-0.3,0-0.6,0.4-0.6,1c0,0.6,0.2,1.1,0.5,1.1c0.3,0,0.6-0.4,0.6-1
			C338.2,147.8,337.9,147.3,337.6,147.3z"/>
		<path class="st3" d="M334.4,147.1c-0.3,0-0.6,0.4-0.6,1c0,0.6,0.2,1.1,0.5,1.1c0.3,0,0.6-0.4,0.6-1
			C334.9,147.6,334.7,147.1,334.4,147.1z"/>
		<path class="st3" d="M331.2,146.8c-0.3,0-0.6,0.4-0.6,1c0,0.6,0.2,1.1,0.5,1.1c0.3,0,0.6-0.4,0.6-1
			C331.7,147.3,331.5,146.9,331.2,146.8z"/>
		<path class="st3" d="M328,146.6c-0.3,0-0.6,0.4-0.6,1c0,0.6,0.2,1.1,0.5,1.1c0.3,0,0.6-0.4,0.6-1
			C328.5,147.1,328.3,146.6,328,146.6z"/>
		<path class="st3" d="M324.6,148.5c0.3,0,0.6-0.4,0.6-1c0-0.6-0.2-1.1-0.5-1.1c-0.3,0-0.6,0.4-0.6,1
			C324.1,147.9,324.3,148.4,324.6,148.5z"/>
		<path class="st3" d="M321.4,148.2c0.3,0,0.6-0.3,0.6-0.9c-0.3,0.2-0.7,0.4-1,0.6C321.1,148.1,321.2,148.2,321.4,148.2z"/>
		<path class="st3" d="M344.4,144.1c-0.3,0-0.6,0.4-0.6,1c0,0.6,0.2,1.1,0.5,1.1c0.3,0,0.6-0.4,0.6-1
			C345,144.6,344.7,144.1,344.4,144.1z"/>
		<path class="st3" d="M341.2,143.9c-0.3,0-0.6,0.4-0.6,1c0,0.6,0.2,1.1,0.5,1.1c0.3,0,0.6-0.4,0.6-1
			C341.7,144.4,341.5,143.9,341.2,143.9z"/>
		<path class="st3" d="M338,143.6c-0.3,0-0.6,0.4-0.6,1c0,0.6,0.2,1.1,0.5,1.1c0.3,0,0.6-0.4,0.6-1
			C338.5,144.2,338.3,143.7,338,143.6z"/>
		<path class="st3" d="M334.8,143.4c-0.3,0-0.6,0.4-0.6,1c0,0.6,0.2,1.1,0.5,1.1s0.6-0.4,0.6-1C335.3,143.9,335.1,143.4,334.8,143.4
			z"/>
		<path class="st3" d="M331.5,143.2c-0.3,0-0.6,0.4-0.6,1c0,0.6,0.2,1.1,0.5,1.1c0.3,0,0.6-0.4,0.6-1
			C332.1,143.7,331.9,143.2,331.5,143.2z"/>
		<path class="st3" d="M328.8,143.9c-0.4,0.2-0.8,0.3-1.2,0.5c0.1,0.4,0.3,0.6,0.5,0.7c0.3,0,0.6-0.4,0.7-1
			C328.8,144,328.8,143.9,328.8,143.9z"/>
		<path class="st3" d="M344.6,140.4c-0.3,0-0.6,0.4-0.6,1c0,0.6,0.2,1.1,0.5,1.1c0.3,0,0.6-0.4,0.6-1
			C345.1,141,344.9,140.5,344.6,140.4z"/>
		<path class="st3" d="M341.4,140.2c-0.3,0-0.6,0.4-0.6,1c0,0.6,0.2,1.1,0.5,1.1c0.3,0,0.6-0.4,0.6-1
			C341.9,140.7,341.7,140.2,341.4,140.2z"/>
		<path class="st3" d="M337.7,140.4c-0.1,0.2-0.1,0.4-0.2,0.6c0,0.6,0.2,1.1,0.5,1.1c0.3,0,0.6-0.4,0.7-1c0-0.5-0.1-0.9-0.3-1
			L337.7,140.4z"/>
		<path class="st3" d="M344.9,136.8c-0.3,0-0.6,0.4-0.6,1c0,0.6,0.2,1.1,0.5,1.1c0.3,0,0.6-0.4,0.6-1
			C345.5,137.3,345.3,136.8,344.9,136.8z"/>
		<path class="st3" d="M341.6,138.7c0.3,0,0.5-0.4,0.6-0.9c-0.3,0.2-0.6,0.4-1,0.6C341.3,138.6,341.4,138.7,341.6,138.7z"/>
	</g>
	<g>
		<path d="M311.4,173.3c-6.9,0-13.9-1.6-16.4-2.2l-0.6-0.1l0.1-0.5c3.3-15.7,6.8-24.1,18-29.3c4.5-2,9.6-4,16.3-5
			c9.4-1.4,16.1-5.8,16.2-5.8l1-0.7l-0.3,1.2c-5.6,27-12.3,37.8-25.6,41.3C317.5,173,314.4,173.3,311.4,173.3z M295.6,170.2
			c3.3,0.8,15.9,3.6,24.3,1c12.7-3.3,19.2-13.7,24.6-39.4c-2.3,1.3-8.1,4.2-15.6,5.4c-6.6,1-11.6,3-16.1,4.9
			C302.2,147.1,298.8,154.9,295.6,170.2z"/>
	</g>
</g>
<g>
	<circle class="st11" cx="334.6" cy="30.3" r="11.7"/>
	<g>
		<defs>
			<rect id="SVGID_00000170275276040120769400000009989344281353005955_" x="291.2" y="26.5" width="46.3" height="40.4"/>
		</defs>
		<clipPath id="SVGID_00000160161987179430709260000014481208545160763550_">
			<use xlink:href="#SVGID_00000170275276040120769400000009989344281353005955_"  style="overflow:visible;"/>
		</clipPath>
		<g style="clip-path:url(#SVGID_00000160161987179430709260000014481208545160763550_);">
			<path class="st6" d="M307.6,30.5c0-0.1-0.1-0.2-0.2-0.2c-0.1,0-0.2,0.1-0.2,0.2c0,0.1,0.1,0.2,0.2,0.2
				C307.5,30.8,307.6,30.7,307.6,30.5z"/>
			<path class="st6" d="M333.7,30.9c0-0.1-0.1-0.2-0.2-0.2c-0.1,0-0.2,0.1-0.2,0.2c0,0.1,0.1,0.2,0.2,0.2
				C333.6,31.1,333.7,31,333.7,30.9z"/>
			<path class="st10" d="M291.8,66.3H336"/>
			<path class="st6" d="M296.7,46.7h-4.8v15.5h4.8V46.7z"/>
			<path class="st6" d="M335.9,38.7h-4.8v23.5h4.8V38.7z"/>
			<path class="st6" d="M309.8,38.4h-4.8v23.8h4.8V38.4z"/>
			<path class="st6" d="M310.5,31.9c0.7-1.7-0.1-3.7-1.9-4.5c-1.7-0.7-3.7,0.1-4.5,1.9c-0.7,1.7,0.1,3.7,1.9,4.5
				C307.8,34.4,309.8,33.6,310.5,31.9z"/>
			<path class="st6" d="M334.1,34.2c1.9-0.3,3.1-2.1,2.8-3.9c-0.3-1.9-2.1-3.1-3.9-2.8c-1.9,0.3-3.1,2.1-2.8,3.9
				C330.5,33.3,332.2,34.5,334.1,34.2z"/>
			<path class="st6" d="M322.9,45.8H318v16.3h4.8V45.8z"/>
			<path class="st6" d="M320.4,40.1c1.1,0,2.1-0.9,2.1-2.1c0-1.1-0.9-2.1-2.1-2.1c-1.1,0-2.1,0.9-2.1,2.1
				C318.4,39.1,319.3,40.1,320.4,40.1z"/>
			<path class="st6" d="M296.3,38.9c0-1.1-0.9-2.1-2.1-2.1c-1.1,0-2.1,0.9-2.1,2.1c0,1.1,0.9,2.1,2.1,2.1
				C295.4,41,296.3,40,296.3,38.9z"/>
			<path class="st6" d="M295.8,37.5l8.6-5.2"/>
			<path class="st6" d="M310.5,31.9l7.9,4.9"/>
			<path class="st6" d="M322.3,37l8.2-4.7"/>
		</g>
	</g>
</g>
</svg>
