<?xml version="1.0" encoding="utf-8"?>
<!-- Generator: Adobe Illustrator 26.2.1, SVG Export Plug-In . SVG Version: 6.00 Build 0)  -->
<svg version="1.1" id="Layer_1" xmlns="http://www.w3.org/2000/svg" xmlns:xlink="http://www.w3.org/1999/xlink" x="0px" y="0px"
	 viewBox="0 0 593.4 124.6" style="enable-background:new 0 0 593.4 124.6;" xml:space="preserve">
<style type="text/css">
	.st0{fill:#B8C5D0;}
	.st1{fill:#0062AA;}
	.st2{fill:#DDE7EC;}
	.st3{fill:#F3A56D;}
	.st4{fill:#DC5C00;}
	.st5{fill:#FFFFFF;}
</style>
<path class="st0" d="M537.8,41.1c0-0.5,0.2-1,0.5-1s0.5,0.4,0.5,1c0,0.5-0.2,1-0.5,1C538.1,42.1,537.8,41.6,537.8,41.1z M541.4,42.1
	c0.3,0,0.5-0.4,0.5-1c0-0.5-0.2-1-0.5-1s-0.5,0.4-0.5,1C540.8,41.6,541.1,42.1,541.4,42.1z M544.4,42c0.3,0,0.5-0.4,0.5-1
	c0-0.5-0.2-1-0.5-1s-0.5,0.4-0.5,1C543.8,41.6,544.1,42,544.4,42z M547.4,42c0.3,0,0.5-0.4,0.5-1c0-0.5-0.2-1-0.5-1s-0.5,0.4-0.5,1
	S547.1,42,547.4,42z M550.4,42c0.3,0,0.5-0.4,0.5-1c0-0.5-0.2-1-0.5-1s-0.5,0.4-0.5,1S550.1,42,550.4,42z M553.4,42
	c0.3,0,0.5-0.4,0.5-1c0-0.5-0.2-1-0.5-1s-0.5,0.4-0.5,1C552.9,41.5,553.1,42,553.4,42z M535.3,45.5c0.3,0,0.5-0.4,0.5-1
	c0-0.5-0.2-1-0.5-1s-0.5,0.4-0.5,1S535,45.5,535.3,45.5z M538.3,45.5c0.3,0,0.5-0.4,0.5-1c0-0.5-0.2-1-0.5-1s-0.5,0.4-0.5,1
	C537.8,45,538,45.5,538.3,45.5z M541.3,45.5c0.3,0,0.5-0.4,0.5-1c0-0.5-0.2-1-0.5-1s-0.5,0.4-0.5,1C540.8,45,541,45.5,541.3,45.5z
	 M544.3,45.4c0.3,0,0.5-0.4,0.5-1c0-0.5-0.2-1-0.5-1s-0.5,0.4-0.5,1S544,45.4,544.3,45.4z M547.3,45.4c0.3,0,0.5-0.4,0.5-1
	c0-0.5-0.2-1-0.5-1s-0.5,0.4-0.5,1S547,45.4,547.3,45.4z M550.3,45.4c0.3,0,0.5-0.4,0.5-1c0-0.5-0.2-1-0.5-1s-0.5,0.4-0.5,1
	S550,45.4,550.3,45.4z M553.3,45.4c0.3,0,0.5-0.4,0.5-1c0-0.5-0.2-1-0.5-1s-0.5,0.4-0.5,1C552.8,44.9,553,45.4,553.3,45.4z
	 M556.4,45.4c0.3,0,0.5-0.4,0.5-1c0-0.5-0.2-1-0.5-1s-0.5,0.4-0.5,1C555.8,44.9,556.1,45.4,556.4,45.4z M532.4,48.9
	c0.3,0,0.5-0.4,0.5-1c0-0.5-0.2-1-0.5-1s-0.5,0.4-0.5,1S532.1,48.9,532.4,48.9z M535.4,46.9c-0.3,0-0.5,0.4-0.5,1c0,0.5,0.2,1,0.5,1
	s0.5-0.4,0.5-1C536,47.4,535.7,46.9,535.4,46.9z M538.4,46.9c-0.3,0-0.5,0.4-0.5,1c0,0.5,0.2,1,0.5,1s0.5-0.4,0.5-1
	C539,47.3,538.7,46.9,538.4,46.9z M541.4,46.9c-0.3,0-0.5,0.4-0.5,1c0,0.5,0.2,1,0.5,1s0.5-0.4,0.5-1
	C541.9,47.3,541.7,46.9,541.4,46.9z M544.4,46.9c-0.3,0-0.5,0.4-0.5,1c0,0.5,0.2,1,0.5,1s0.5-0.4,0.5-1
	C544.9,47.3,544.7,46.9,544.4,46.9z M547.4,46.9c-0.3,0-0.5,0.4-0.5,1c0,0.5,0.2,1,0.5,1s0.5-0.4,0.5-1
	C548,47.3,547.7,46.9,547.4,46.9z M550.4,46.8c-0.3,0-0.5,0.4-0.5,1c0,0.5,0.2,1,0.5,1s0.5-0.4,0.5-1
	C551,47.3,550.7,46.8,550.4,46.8z M553.4,46.8c-0.3,0-0.5,0.4-0.5,1c0,0.5,0.2,1,0.5,1s0.5-0.4,0.5-1
	C554,47.3,553.7,46.8,553.4,46.8z M556.4,46.8c-0.3,0-0.5,0.4-0.5,1c0,0.5,0.2,1,0.5,1s0.5-0.4,0.5-1
	C557,47.2,556.7,46.8,556.4,46.8z M559.4,48.7c0.3,0,0.5-0.4,0.5-1c0-0.5-0.2-1-0.5-1s-0.5,0.4-0.5,1S559.1,48.7,559.4,48.7z
	 M532.4,52.3c0.3,0,0.5-0.4,0.5-1c0-0.5-0.2-1-0.5-1s-0.5,0.4-0.5,1C531.8,51.9,532.1,52.3,532.4,52.3z M534.8,51.3
	c0,0.5,0.2,1,0.5,1s0.5-0.4,0.5-1c0-0.5-0.2-1-0.5-1C535,50.4,534.8,50.8,534.8,51.3z M537.8,51.3c0,0.5,0.2,1,0.5,1s0.5-0.4,0.5-1
	c0-0.5-0.2-1-0.5-1C538.1,50.3,537.8,50.8,537.8,51.3z M540.8,51.3c0,0.5,0.2,1,0.5,1s0.5-0.4,0.5-1c0-0.5-0.2-1-0.5-1
	C541.1,50.3,540.8,50.8,540.8,51.3z M543.8,51.3c0,0.5,0.2,1,0.5,1s0.5-0.4,0.5-1c0-0.5-0.2-1-0.5-1
	C544.1,50.3,543.8,50.7,543.8,51.3z M546.8,51.2c0,0.5,0.2,1,0.5,1s0.5-0.4,0.5-1c0-0.5-0.2-1-0.5-1
	C547.1,50.3,546.8,50.7,546.8,51.2z M549.9,51.2c0,0.5,0.2,1,0.5,1s0.5-0.4,0.5-1c0-0.5-0.2-1-0.5-1
	C550.1,50.2,549.8,50.7,549.9,51.2z M553.4,52.2c0.3,0,0.5-0.4,0.5-1c0-0.5-0.2-1-0.5-1s-0.5,0.4-0.5,1
	C552.8,51.8,553.1,52.2,553.4,52.2z M555.8,51.2c0,0.5,0.2,1,0.5,1s0.5-0.4,0.5-1c0-0.5-0.2-1-0.5-1
	C556.1,50.2,555.8,50.7,555.8,51.2z M559.4,52.2c0.3,0,0.5-0.4,0.5-1c0-0.5-0.2-1-0.5-1s-0.5,0.4-0.5,1
	C558.9,51.7,559.1,52.2,559.4,52.2z M532.4,53.8c-0.3,0-0.5,0.4-0.5,1c0,0.5,0.2,1,0.5,1s0.5-0.4,0.5-1
	C533,54.2,532.7,53.8,532.4,53.8z M535.5,53.8c-0.3,0-0.5,0.4-0.5,1c0,0.5,0.2,1,0.5,1s0.5-0.4,0.5-1S535.7,53.8,535.5,53.8z
	 M538.4,53.7c-0.3,0-0.5,0.4-0.5,1c0,0.5,0.2,1,0.5,1s0.5-0.4,0.5-1C539,54.2,538.7,53.7,538.4,53.7z M541.5,53.7
	c-0.3,0-0.5,0.4-0.5,1c0,0.5,0.2,1,0.5,1s0.5-0.4,0.5-1C542,54.1,541.8,53.7,541.5,53.7z M544.5,53.7c-0.3,0-0.5,0.4-0.5,1
	c0,0.5,0.2,1,0.5,1s0.5-0.4,0.5-1C545,54.1,544.8,53.7,544.5,53.7z M547.5,53.7c-0.3,0-0.5,0.4-0.5,1c0,0.5,0.2,1,0.5,1
	s0.5-0.4,0.5-1C548,54.1,547.8,53.7,547.5,53.7z M550.5,53.6c-0.3,0-0.5,0.4-0.5,1c0,0.5,0.2,1,0.5,1s0.5-0.4,0.5-1
	C551,54.1,550.8,53.6,550.5,53.6z M553.5,53.6c-0.3,0-0.5,0.4-0.5,1c0,0.5,0.2,1,0.5,1s0.5-0.4,0.5-1
	C554,54.1,553.8,53.6,553.5,53.6z M556.5,53.6c-0.3,0-0.5,0.4-0.5,1c0,0.5,0.2,1,0.5,1s0.5-0.4,0.5-1S556.8,53.6,556.5,53.6z
	 M559.5,53.6c-0.3,0-0.5,0.4-0.5,1c0,0.5,0.2,1,0.5,1s0.5-0.4,0.5-1S559.8,53.6,559.5,53.6z M532.4,57.2c-0.3,0-0.5,0.4-0.5,1
	c0,0.5,0.2,1,0.5,1s0.5-0.4,0.5-1C532.9,57.6,532.7,57.2,532.4,57.2z M535.9,58.1c0-0.5-0.2-1-0.5-1s-0.5,0.4-0.5,1
	c0,0.5,0.2,1,0.5,1S535.9,58.7,535.9,58.1z M539,58.1c0-0.5-0.2-1-0.5-1s-0.5,0.4-0.5,1c0,0.5,0.2,1,0.5,1
	C538.7,59.1,539,58.6,539,58.1z M542,58.1c0-0.5-0.2-1-0.5-1s-0.5,0.4-0.5,1c0,0.5,0.2,1,0.5,1C541.7,59.1,542,58.6,542,58.1z
	 M544.9,58.1c0-0.5-0.2-1-0.5-1s-0.5,0.4-0.5,1c0,0.5,0.2,1,0.5,1S545,58.6,544.9,58.1z M547.9,58.1c0-0.5-0.2-1-0.5-1
	s-0.5,0.4-0.5,1c0,0.5,0.2,1,0.5,1S547.9,58.6,547.9,58.1z M551,58c0-0.5-0.2-1-0.5-1s-0.5,0.4-0.5,1c0,0.5,0.2,1,0.5,1
	C550.7,59,551,58.6,551,58z M554,58c0-0.5-0.2-1-0.5-1s-0.5,0.4-0.5,1c0,0.5,0.2,1,0.5,1C553.7,59,554,58.6,554,58z M557,58
	c0-0.5-0.2-1-0.5-1s-0.5,0.4-0.5,1c0,0.5,0.2,1,0.5,1C556.7,59,557,58.5,557,58z M559.4,57c-0.3,0-0.5,0.4-0.5,1c0,0.5,0.2,1,0.5,1
	s0.5-0.4,0.5-1C560,57.4,559.7,57,559.4,57z M532.3,60.6c-0.3,0-0.5,0.4-0.5,1c0,0.5,0.2,1,0.5,1s0.5-0.4,0.5-1
	C532.9,61,532.6,60.6,532.3,60.6z M535.4,62.5c0.3,0,0.5-0.4,0.5-1c0-0.5-0.2-1-0.5-1s-0.5,0.4-0.5,1
	C534.8,62.1,535.1,62.5,535.4,62.5z M538.4,62.5c0.3,0,0.5-0.4,0.5-1c0-0.5-0.2-1-0.5-1s-0.5,0.4-0.5,1
	C537.8,62.1,538.1,62.5,538.4,62.5z M541.4,62.5c0.3,0,0.5-0.4,0.5-1c0-0.5-0.2-1-0.5-1s-0.5,0.4-0.5,1
	C540.8,62,541.1,62.5,541.4,62.5z M544.4,62.5c0.3,0,0.5-0.4,0.5-1c0-0.5-0.2-1-0.5-1s-0.5,0.4-0.5,1
	C543.8,62,544.1,62.5,544.4,62.5z M547.4,62.4c0.3,0,0.5-0.4,0.5-1c0-0.5-0.2-1-0.5-1s-0.5,0.4-0.5,1
	C546.8,62,547.1,62.4,547.4,62.4z M550.4,62.4c0.3,0,0.5-0.4,0.5-1c0-0.5-0.2-1-0.5-1s-0.5,0.4-0.5,1
	C549.8,62,550.1,62.4,550.4,62.4z M553.4,62.4c0.3,0,0.5-0.4,0.5-1c0-0.5-0.2-1-0.5-1s-0.5,0.4-0.5,1S553.1,62.4,553.4,62.4z
	 M556.4,62.4c0.3,0,0.5-0.4,0.5-1c0-0.5-0.2-1-0.5-1s-0.5,0.4-0.5,1C555.8,61.9,556.1,62.4,556.4,62.4z M559.4,60.4
	c-0.3,0-0.5,0.4-0.5,1c0,0.5,0.2,1,0.5,1s0.5-0.4,0.5-1C559.9,60.8,559.7,60.4,559.4,60.4z M535.4,64c-0.3,0-0.5,0.4-0.5,1
	c0,0.5,0.2,1,0.5,1s0.5-0.4,0.5-1C536,64.4,535.7,64,535.4,64z M538.4,63.9c-0.3,0-0.5,0.4-0.5,1c0,0.5,0.2,1,0.5,1s0.5-0.4,0.5-1
	C539,64.4,538.7,63.9,538.4,63.9z M541.4,63.9c-0.3,0-0.5,0.4-0.5,1c0,0.5,0.2,1,0.5,1s0.5-0.4,0.5-1
	C542,64.4,541.7,63.9,541.4,63.9z M544.5,63.9c-0.3,0-0.5,0.4-0.5,1c0,0.5,0.2,1,0.5,1s0.5-0.4,0.5-1S544.8,63.9,544.5,63.9z
	 M547.5,63.9c-0.3,0-0.5,0.4-0.5,1c0,0.5,0.2,1,0.5,1s0.5-0.4,0.5-1S547.8,63.9,547.5,63.9z M550.5,63.9c-0.3,0-0.5,0.4-0.5,1
	c0,0.5,0.2,1,0.5,1s0.5-0.4,0.5-1S550.8,63.9,550.5,63.9z M553.4,63.8c-0.3,0-0.5,0.4-0.5,1c0,0.5,0.2,1,0.5,1s0.5-0.4,0.5-1
	C554,64.3,553.7,63.8,553.4,63.8z M556.5,63.8c-0.3,0-0.5,0.4-0.5,1c0,0.5,0.2,1,0.5,1s0.5-0.4,0.5-1
	C557,64.3,556.8,63.8,556.5,63.8z M538.4,67.3c-0.3,0-0.5,0.4-0.5,1c0,0.5,0.2,1,0.5,1s0.5-0.4,0.5-1
	C538.9,67.8,538.7,67.3,538.4,67.3z M541.4,67.3c-0.3,0-0.5,0.4-0.5,1c0,0.5,0.2,1,0.5,1s0.5-0.4,0.5-1
	C541.9,67.8,541.7,67.3,541.4,67.3z M544.4,67.3c-0.3,0-0.5,0.4-0.5,1c0,0.5,0.2,1,0.5,1s0.5-0.4,0.5-1
	C544.9,67.7,544.7,67.3,544.4,67.3z M547.4,67.3c-0.3,0-0.5,0.4-0.5,1c0,0.5,0.2,1,0.5,1s0.5-0.4,0.5-1
	C547.9,67.7,547.7,67.3,547.4,67.3z M550.4,67.3c-0.3,0-0.5,0.4-0.5,1c0,0.5,0.2,1,0.5,1s0.5-0.4,0.5-1
	C550.9,67.7,550.7,67.3,550.4,67.3z M553.4,67.3c-0.3,0-0.5,0.4-0.5,1c0,0.5,0.2,1,0.5,1s0.5-0.4,0.5-1
	C554,67.7,553.7,67.3,553.4,67.3z"/>
<circle class="st1" cx="76.4" cy="105.2" r="4"/>
<g>
	<path class="st2" d="M407.8,45.7c-1.2,9.1-2.8,14.1-9.1,17.7c-2.2,1.2-5.2,2.7-9.3,3.6c-5.6,1.3-9.3,4.2-9.3,4.2
		c2.2-16.8,5.9-22.6,13-25.1C398.7,44,407.7,45.7,407.8,45.7z"/>
	<path class="st1" d="M387.3,40.3c0.2-0.1,0.5-0.1,0.7-0.2v0.1c0,0.3-0.2,0.6-0.4,0.6C387.4,40.8,387.3,40.6,387.3,40.3z M389.4,41
		c0.2,0,0.4-0.2,0.4-0.6c0-0.3-0.1-0.5-0.2-0.6h-0.3c-0.1,0.1-0.2,0.3-0.2,0.5C389.1,40.7,389.3,41,389.4,41z M391.3,41.1
		c0.2,0,0.4-0.3,0.4-0.6s-0.1-0.6-0.3-0.6c-0.2,0-0.4,0.3-0.4,0.6S391.2,41.1,391.3,41.1z M393.2,41.3c0.2,0,0.4-0.3,0.4-0.6
		s-0.1-0.6-0.3-0.6c-0.2,0-0.4,0.3-0.4,0.6C392.9,41,393,41.3,393.2,41.3z M395.1,41.4c0.2,0,0.4-0.3,0.4-0.6s-0.1-0.6-0.3-0.6
		c-0.2,0-0.4,0.3-0.4,0.6C394.8,41.1,394.9,41.4,395.1,41.4z M397,41.5c0.2,0,0.4-0.3,0.4-0.6s-0.1-0.6-0.3-0.6
		c-0.2,0-0.4,0.3-0.4,0.6S396.8,41.5,397,41.5z M383.7,42.8c0.2,0,0.4-0.3,0.4-0.6c0-0.2,0-0.3-0.1-0.4l-0.6,0.4l0,0
		C383.4,42.5,383.5,42.7,383.7,42.8z M385.6,42.9c0.2,0,0.4-0.3,0.4-0.6s-0.1-0.6-0.3-0.6c-0.2,0-0.4,0.3-0.4,0.6
		C385.3,42.6,385.4,42.9,385.6,42.9z M387.5,43c0.2,0,0.4-0.3,0.4-0.6s-0.1-0.6-0.3-0.6c-0.2,0-0.4,0.3-0.4,0.6
		C387.1,42.7,387.3,43,387.5,43z M389.4,43.1c0.2,0,0.4-0.3,0.4-0.6s-0.1-0.6-0.3-0.6c-0.2,0-0.4,0.3-0.4,0.6
		C389,42.8,389.2,43.1,389.4,43.1z M391.2,43.3c0.2,0,0.4-0.3,0.4-0.6s-0.1-0.6-0.3-0.6c-0.2,0-0.4,0.3-0.4,0.6
		C390.9,43,391.1,43.3,391.2,43.3z M393.1,43.4c0.2,0,0.4-0.3,0.4-0.6s-0.1-0.6-0.3-0.6c-0.2,0-0.4,0.3-0.4,0.6
		C392.8,43.1,392.9,43.4,393.1,43.4z M395,43.6c0.2,0,0.4-0.3,0.4-0.6s-0.1-0.6-0.3-0.6c-0.2,0-0.4,0.3-0.4,0.6S394.8,43.5,395,43.6
		z M396.9,43.7c0.2,0,0.4-0.3,0.4-0.6s-0.1-0.6-0.3-0.6c-0.2,0-0.4,0.3-0.4,0.6S396.7,43.7,396.9,43.7z M381.6,44.7
		c0.2,0,0.4-0.3,0.4-0.6s-0.1-0.6-0.3-0.6c-0.2,0-0.4,0.3-0.4,0.6C381.3,44.4,381.4,44.7,381.6,44.7z M383.5,44.9
		c0.2,0,0.4-0.3,0.4-0.6s-0.1-0.6-0.3-0.6c-0.2,0-0.4,0.3-0.4,0.6C383.2,44.6,383.3,44.9,383.5,44.9z M385.4,45
		c0.2,0,0.4-0.3,0.4-0.6s-0.1-0.6-0.3-0.6c-0.2,0-0.4,0.3-0.4,0.6C385,44.7,385.2,45,385.4,45z M387.3,45.1c0.2,0,0.4-0.3,0.4-0.6
		s-0.1-0.6-0.3-0.6c-0.2,0-0.4,0.3-0.4,0.6C386.9,44.8,387.1,45.1,387.3,45.1z M389.1,45.3c0.2,0,0.4-0.3,0.4-0.6s-0.1-0.6-0.3-0.6
		c-0.2,0-0.4,0.3-0.4,0.6C388.8,45,389,45.3,389.1,45.3z M391,45.4c0.2,0,0.4-0.3,0.4-0.6s-0.1-0.6-0.3-0.6c-0.2,0-0.4,0.3-0.4,0.6
		C390.7,45.1,390.8,45.4,391,45.4z M392.9,45.5c0.2,0,0.4-0.3,0.4-0.6s-0.1-0.6-0.3-0.6c-0.2,0-0.4,0.3-0.4,0.6
		S392.7,45.5,392.9,45.5z M394.8,45.7c0.2,0,0.4-0.3,0.4-0.6s-0.1-0.6-0.3-0.6c-0.2,0-0.4,0.3-0.4,0.6S394.6,45.7,394.8,45.7z
		 M396.7,45.8c0.2,0,0.4-0.3,0.4-0.6s-0.1-0.6-0.3-0.6c-0.2,0-0.4,0.3-0.4,0.6C396.4,45.5,396.5,45.8,396.7,45.8z M379.6,46.8
		c0.2,0,0.4-0.3,0.4-0.6s-0.1-0.6-0.2-0.6l-0.4,0.7C379.3,46.5,379.4,46.7,379.6,46.8z M381.5,46.9c0.2,0,0.4-0.3,0.4-0.6
		s-0.1-0.6-0.3-0.6c-0.2,0-0.4,0.3-0.4,0.6C381.2,46.6,381.3,46.9,381.5,46.9z M383.4,47c0.2,0,0.4-0.3,0.4-0.6s-0.1-0.6-0.3-0.6
		c-0.2,0-0.4,0.3-0.4,0.6S383.2,47,383.4,47z M385.3,47.2c0.2,0,0.4-0.3,0.4-0.6s-0.1-0.6-0.3-0.6c-0.2,0-0.4,0.3-0.4,0.6
		C384.9,46.9,385.1,47.1,385.3,47.2z M387.1,47.3c0.2,0,0.4-0.3,0.4-0.6s-0.1-0.6-0.3-0.6c-0.2,0-0.4,0.3-0.4,0.6
		C386.8,47,387,47.3,387.1,47.3z M389,47.4c0.2,0,0.4-0.3,0.4-0.6s-0.1-0.6-0.3-0.6c-0.2,0-0.4,0.3-0.4,0.6
		C388.7,47.1,388.8,47.4,389,47.4z M390.9,47.6c0.2,0,0.4-0.3,0.4-0.6s-0.1-0.6-0.3-0.6c-0.2,0-0.4,0.3-0.4,0.6
		S390.7,47.5,390.9,47.6z M392.8,47.7c0.2,0,0.4-0.3,0.4-0.6s-0.1-0.6-0.3-0.6c-0.2,0-0.4,0.3-0.4,0.6S392.6,47.7,392.8,47.7z
		 M394.7,47.8c0.2,0,0.4-0.3,0.4-0.6s-0.1-0.6-0.3-0.6c-0.2,0-0.4,0.3-0.4,0.6C394.4,47.5,394.5,47.8,394.7,47.8z M396.6,48
		c0.2,0,0.4-0.3,0.4-0.6s-0.1-0.6-0.3-0.6c-0.2,0-0.4,0.3-0.4,0.6C396.3,47.7,396.4,48,396.6,48z M379.4,48.9c0.2,0,0.4-0.3,0.4-0.6
		s-0.1-0.6-0.3-0.6c-0.2,0-0.4,0.3-0.4,0.6C379.1,48.6,379.2,48.9,379.4,48.9z M381.3,49c0.2,0,0.4-0.3,0.4-0.6s-0.1-0.6-0.3-0.6
		c-0.2,0-0.4,0.3-0.4,0.6S381.1,49,381.3,49z M383.2,49.2c0.2,0,0.4-0.3,0.4-0.6s-0.1-0.6-0.3-0.6c-0.2,0-0.4,0.3-0.4,0.6
		C382.9,48.9,383,49.1,383.2,49.2z M385.1,49.3c0.2,0,0.4-0.3,0.4-0.6s-0.1-0.6-0.3-0.6c-0.2,0-0.4,0.3-0.4,0.6
		C384.7,49,384.9,49.3,385.1,49.3z M386.9,49.4c0.2,0,0.4-0.3,0.4-0.6s-0.1-0.6-0.3-0.6c-0.2,0-0.4,0.3-0.4,0.6
		C386.6,49.1,386.8,49.4,386.9,49.4z M388.8,49.6c0.2,0,0.4-0.3,0.4-0.6s-0.1-0.6-0.3-0.6c-0.2,0-0.4,0.3-0.4,0.6
		S388.7,49.5,388.8,49.6z M390.7,49.7c0.2,0,0.4-0.3,0.4-0.6s-0.1-0.6-0.3-0.6c-0.2,0-0.4,0.3-0.4,0.6
		C390.4,49.4,390.5,49.7,390.7,49.7z M392.6,49.8c0.2,0,0.4-0.3,0.4-0.6s-0.1-0.6-0.3-0.6c-0.2,0-0.4,0.3-0.4,0.6
		C392.3,49.5,392.4,49.8,392.6,49.8z M394.5,50c0.2,0,0.4-0.3,0.4-0.6s-0.1-0.6-0.3-0.6c-0.2,0-0.4,0.3-0.4,0.6S394.3,50,394.5,50z
		 M396.4,50.1c0.2,0,0.4-0.3,0.4-0.6s-0.1-0.6-0.3-0.6c-0.2,0-0.4,0.3-0.4,0.6S396.2,50.1,396.4,50.1z M377.8,50.3
		c0-0.2,0-0.4-0.1-0.5l-0.3,1.1c0,0,0,0,0.1,0C377.6,50.9,377.8,50.6,377.8,50.3z M379.3,51c0.2,0,0.4-0.3,0.4-0.6s-0.1-0.6-0.3-0.6
		c-0.2,0-0.4,0.3-0.4,0.6S379.1,51,379.3,51z M381.2,51.2c0.2,0,0.4-0.3,0.4-0.6s-0.1-0.6-0.3-0.6c-0.2,0-0.4,0.3-0.4,0.6
		C380.9,50.9,381,51.1,381.2,51.2z M383.1,51.3c0.2,0,0.4-0.3,0.4-0.6s-0.1-0.6-0.3-0.6c-0.2,0-0.4,0.3-0.4,0.6
		C382.7,51,382.9,51.3,383.1,51.3z M385,51.4c0.2,0,0.4-0.3,0.4-0.6s-0.1-0.6-0.3-0.6c-0.2,0-0.4,0.3-0.4,0.6
		C384.6,51.1,384.8,51.4,385,51.4z M386.8,51.6c0.2,0,0.4-0.3,0.4-0.6s-0.1-0.6-0.3-0.6c-0.2,0-0.4,0.3-0.4,0.6
		S386.7,51.6,386.8,51.6z M388.7,51.7c0.2,0,0.4-0.3,0.4-0.6s-0.1-0.6-0.3-0.6c-0.2,0-0.4,0.3-0.4,0.6
		C388.4,51.4,388.5,51.7,388.7,51.7z M390.6,51.8c0.2,0,0.4-0.3,0.4-0.6s-0.1-0.6-0.3-0.6c-0.2,0-0.4,0.3-0.4,0.6
		C390.3,51.5,390.4,51.8,390.6,51.8z M392.5,52c0.2,0,0.4-0.3,0.4-0.6s-0.1-0.6-0.3-0.6c-0.2,0-0.4,0.3-0.4,0.6S392.3,52,392.5,52z
		 M394.4,52.1c0.2,0,0.4-0.3,0.4-0.6s-0.1-0.6-0.3-0.6c-0.2,0-0.4,0.3-0.4,0.6S394.2,52.1,394.4,52.1z M396.4,51L396.4,51
		c-0.2,0-0.4,0.3-0.4,0.6c0,0.1,0,0.1,0,0.2C396.1,51.5,396.3,51.3,396.4,51z M377.2,53c0.2,0,0.4-0.3,0.4-0.6s-0.1-0.6-0.3-0.6
		c-0.2,0-0.4,0.3-0.4,0.6C376.9,52.7,377,53,377.2,53z M379.1,53.2c0.2,0,0.4-0.3,0.4-0.6s-0.1-0.6-0.3-0.6c-0.2,0-0.4,0.3-0.4,0.6
		C378.8,52.9,378.9,53.1,379.1,53.2z M381,53.3c0.2,0,0.4-0.3,0.4-0.6s-0.1-0.6-0.3-0.6c-0.2,0-0.4,0.3-0.4,0.6S380.8,53.3,381,53.3
		z M382.9,53.4c0.2,0,0.4-0.3,0.4-0.6s-0.1-0.6-0.3-0.6c-0.2,0-0.4,0.3-0.4,0.6C382.6,53.1,382.7,53.4,382.9,53.4z M384.8,53.6
		c0.2,0,0.4-0.3,0.4-0.6s-0.1-0.6-0.3-0.6c-0.2,0-0.4,0.3-0.4,0.6C384.4,53.3,384.6,53.6,384.8,53.6z M386.6,53.7
		c0.2,0,0.4-0.3,0.4-0.6s-0.1-0.6-0.3-0.6c-0.2,0-0.4,0.3-0.4,0.6C386.3,53.4,386.5,53.7,386.6,53.7z M388.5,53.9
		c0.2,0,0.4-0.3,0.4-0.6s-0.1-0.6-0.3-0.6c-0.2,0-0.4,0.3-0.4,0.6C388.2,53.6,388.3,53.8,388.5,53.9z M390.4,54
		c0.2,0,0.4-0.3,0.4-0.6s-0.1-0.6-0.3-0.6c-0.2,0-0.4,0.3-0.4,0.6S390.2,54,390.4,54z M392.3,54.1c0.2,0,0.4-0.3,0.4-0.6
		s-0.1-0.6-0.3-0.6c-0.2,0-0.4,0.3-0.4,0.6S392.1,54.1,392.3,54.1z M394.2,54.2l0.4-0.4c0-0.1,0-0.1,0-0.2c0-0.3-0.1-0.6-0.3-0.6
		c-0.2,0-0.4,0.3-0.4,0.6C393.9,53.9,394,54.2,394.2,54.2z M377,55.2c0.2,0,0.4-0.3,0.4-0.6s-0.1-0.6-0.3-0.6
		c-0.2,0-0.4,0.3-0.4,0.6S376.8,55.1,377,55.2z M378.9,55.3c0.2,0,0.4-0.3,0.4-0.6s-0.1-0.6-0.3-0.6c-0.2,0-0.4,0.3-0.4,0.6
		S378.7,55.3,378.9,55.3z M380.8,55.4c0.2,0,0.4-0.3,0.4-0.6s-0.1-0.6-0.3-0.6c-0.2,0-0.4,0.3-0.4,0.6
		C380.4,55.1,380.6,55.4,380.8,55.4z M382.7,55.6c0.2,0,0.4-0.3,0.4-0.6s-0.1-0.6-0.3-0.6c-0.2,0-0.4,0.3-0.4,0.6
		C382.3,55.3,382.5,55.6,382.7,55.6z M384.5,55.7c0.2,0,0.4-0.3,0.4-0.6s-0.1-0.6-0.3-0.6c-0.2,0-0.4,0.3-0.4,0.6
		S384.4,55.7,384.5,55.7z M386.4,55.8c0.2,0,0.4-0.3,0.4-0.6s-0.1-0.6-0.3-0.6c-0.2,0-0.4,0.3-0.4,0.6S386.3,55.8,386.4,55.8z
		 M388.3,56c0.2,0,0.4-0.3,0.4-0.6s-0.1-0.6-0.3-0.6c-0.2,0-0.4,0.3-0.4,0.6S388.1,56,388.3,56z M390.2,56.1c0.2,0,0.4-0.3,0.4-0.6
		s-0.1-0.6-0.3-0.6c-0.2,0-0.4,0.3-0.4,0.6C389.9,55.8,390,56.1,390.2,56.1z M392.5,55.8L392.5,55.8c0-0.4-0.1-0.7-0.3-0.7
		c-0.2,0-0.4,0.3-0.4,0.6c0,0.2,0,0.4,0.1,0.6L392.5,55.8z M376.9,57.3c0.2,0,0.4-0.3,0.4-0.6s-0.1-0.6-0.3-0.6
		c-0.2,0-0.4,0.3-0.4,0.6S376.7,57.3,376.9,57.3z M378.8,57.5c0.2,0,0.4-0.3,0.4-0.6s-0.1-0.6-0.3-0.6c-0.2,0-0.4,0.3-0.4,0.6
		S378.6,57.4,378.8,57.5z M380.7,57.6c0.2,0,0.4-0.3,0.4-0.6s-0.1-0.6-0.3-0.6c-0.2,0-0.4,0.3-0.4,0.6
		C380.3,57.3,380.5,57.6,380.7,57.6z M382.6,57.7c0.2,0,0.4-0.3,0.4-0.6s-0.1-0.6-0.3-0.6c-0.2,0-0.4,0.3-0.4,0.6
		C382.2,57.4,382.4,57.7,382.6,57.7z M384.4,57.9c0.2,0,0.4-0.3,0.4-0.6s-0.1-0.6-0.3-0.6c-0.2,0-0.4,0.3-0.4,0.6
		C384.1,57.6,384.3,57.8,384.4,57.9z M386.3,58c0.2,0,0.4-0.3,0.4-0.6s-0.1-0.6-0.3-0.6c-0.2,0-0.4,0.3-0.4,0.6S386.2,58,386.3,58z
		 M388.3,56.9c-0.2,0-0.4,0.3-0.4,0.6s0.1,0.6,0.3,0.6c0.2,0,0.4-0.3,0.4-0.6C388.6,57.2,388.5,56.9,388.3,56.9z M390.2,57
		c-0.2,0-0.3,0.2-0.4,0.5c0.2-0.1,0.4-0.2,0.6-0.4C390.4,57.1,390.3,57,390.2,57z M376.7,59.5c0.2,0,0.4-0.3,0.4-0.6
		s-0.1-0.6-0.3-0.6c-0.2,0-0.4,0.3-0.4,0.6C376.4,59.2,376.5,59.4,376.7,59.5z M378.6,59.6c0.2,0,0.4-0.3,0.4-0.6s-0.1-0.6-0.3-0.6
		c-0.2,0-0.4,0.3-0.4,0.6C378.3,59.3,378.4,59.6,378.6,59.6z M380.5,59.7c0.2,0,0.4-0.3,0.4-0.6s-0.1-0.6-0.3-0.6
		c-0.2,0-0.4,0.3-0.4,0.6C380.1,59.4,380.3,59.7,380.5,59.7z M382.3,59.9c0.2,0,0.4-0.3,0.4-0.6s-0.1-0.6-0.3-0.6
		c-0.2,0-0.4,0.3-0.4,0.6C382,59.6,382.2,59.8,382.3,59.9z M384.2,60c0.2,0,0.4-0.3,0.4-0.6s-0.1-0.6-0.3-0.6
		c-0.2,0-0.4,0.3-0.4,0.6C383.9,59.7,384.1,60,384.2,60z M385.8,59.6c0.2-0.1,0.4-0.2,0.7-0.3c0-0.2-0.2-0.4-0.3-0.4
		C386,58.9,385.9,59.2,385.8,59.6C385.8,59.5,385.8,59.6,385.8,59.6z M376.6,61.6c0.2,0,0.4-0.3,0.4-0.6s-0.1-0.6-0.3-0.6
		c-0.2,0-0.4,0.3-0.4,0.6C376.3,61.3,376.4,61.6,376.6,61.6z M378.5,61.7c0.2,0,0.4-0.3,0.4-0.6s-0.1-0.6-0.3-0.6
		c-0.2,0-0.4,0.3-0.4,0.6S378.3,61.7,378.5,61.7z M380.6,61.6c0.1-0.1,0.1-0.2,0.1-0.4c0-0.3-0.1-0.6-0.3-0.6
		c-0.2,0-0.4,0.3-0.4,0.6s0.1,0.5,0.2,0.6L380.6,61.6z M376.4,63.7c0.2,0,0.4-0.3,0.4-0.6s-0.1-0.6-0.3-0.6c-0.2,0-0.4,0.3-0.4,0.6
		S376.2,63.7,376.4,63.7z M378.4,62.6c-0.2,0-0.3,0.2-0.4,0.5c0.2-0.1,0.4-0.2,0.6-0.4C378.5,62.7,378.4,62.6,378.4,62.6z"/>
	<g>
		<path d="M396.1,42.3c4.1,0,8.1,0.9,9.6,1.3l0.3,0.1V44c-1.9,9.2-4,14.1-10.5,17.2c-2.6,1.2-5.6,2.3-9.6,2.9
			c-5.5,0.8-9.5,3.4-9.5,3.4l-0.6,0.4l0.1-0.7c3.3-15.9,7.2-22.2,15-24.3C392.5,42.5,394.3,42.3,396.1,42.3z M405.3,44.1
			c-1.9-0.5-9.3-2.1-14.2-0.6c-7.4,2-11.2,8-14.5,23.1c1.3-0.8,4.7-2.5,9.1-3.2c3.9-0.6,6.8-1.7,9.4-2.9
			C401.5,57.7,403.4,53.1,405.3,44.1z"/>
	</g>
</g>
<g>
	<path class="st3" d="M134.5,42.4c9.9,0.5,15.6,1.7,20,8.2c1.5,2.3,3.4,5.4,4.8,9.7c1.9,5.9,5.4,9.7,5.4,9.7
		c-18.4-0.9-25.1-4.3-28.4-11.8C133.4,52.5,134.5,42.6,134.5,42.4z"/>
	<path class="st4" d="M142.8,46.9c0-0.3,0-0.5,0-0.8h0.1c0.4,0.1,0.6,0.4,0.5,0.6C143.4,46.9,143.1,46.9,142.8,46.9z M143.5,44.9
		c0.3,0.1,0.7,0.1,0.8-0.1c0.1-0.2-0.1-0.5-0.5-0.6c-0.3-0.1-0.6-0.1-0.7,0v0.3C143.1,44.7,143.3,44.8,143.5,44.9z M144.3,43
		c0.3,0.1,0.7,0.1,0.8-0.1c0.1-0.2-0.1-0.5-0.5-0.6c-0.3-0.1-0.7-0.1-0.8,0.1S143.9,42.9,144.3,43z M145.1,41.1
		c0.3,0.1,0.7,0.1,0.8-0.1c0.1-0.2-0.1-0.5-0.5-0.6c-0.3-0.1-0.7-0.1-0.8,0.1C144.5,40.7,144.7,41,145.1,41.1z M145.8,39.2
		c0.3,0.1,0.7,0.1,0.8-0.1c0.1-0.2-0.1-0.5-0.5-0.6c-0.3-0.1-0.7-0.1-0.8,0.1C145.3,38.8,145.5,39.1,145.8,39.2z M146.6,37.3
		c0.3,0.1,0.7,0.1,0.8-0.1c0.1-0.2-0.1-0.5-0.5-0.6c-0.3-0.1-0.7-0.1-0.8,0.1C146.1,36.9,146.3,37.1,146.6,37.3z M143.6,50.8
		c-0.2-0.1-0.3-0.1-0.5-0.1l0.2,0.8l0,0c0.3,0.1,0.7,0.1,0.8-0.1C144.2,51.2,144,50.9,143.6,50.8z M143.6,49
		c-0.1,0.2,0.1,0.5,0.5,0.6c0.3,0.1,0.7,0.1,0.8-0.1c0.1-0.2-0.1-0.5-0.5-0.6C144.1,48.7,143.7,48.8,143.6,49z M145.7,47.6
		c0.1-0.2-0.1-0.5-0.5-0.6c-0.3-0.1-0.7-0.1-0.8,0.1c-0.1,0.2,0.1,0.5,0.5,0.6C145.3,47.8,145.6,47.8,145.7,47.6z M146.4,45.7
		c0.1-0.2-0.1-0.5-0.5-0.6c-0.3-0.1-0.7-0.1-0.8,0.1c-0.1,0.2,0.1,0.5,0.5,0.6C146,45.9,146.4,45.8,146.4,45.7z M147.2,43.8
		c0.1-0.2-0.1-0.5-0.5-0.6c-0.3-0.1-0.7-0.1-0.8,0.1c-0.1,0.2,0.1,0.5,0.5,0.6C146.8,44,147.1,43.9,147.2,43.8z M146.8,41.3
		c-0.1,0.2,0.1,0.5,0.5,0.6c0.3,0.1,0.7,0.1,0.8-0.1c0.1-0.2-0.1-0.5-0.5-0.6C147.2,41.1,146.8,41.2,146.8,41.3z M148,40
		c0.3,0.1,0.7,0.1,0.8-0.1c0.1-0.2-0.1-0.5-0.5-0.6c-0.3-0.1-0.7-0.1-0.8,0.1C147.5,39.6,147.7,39.9,148,40z M148.8,38.1
		c0.3,0.1,0.7,0.1,0.8-0.1c0.1-0.2-0.1-0.5-0.5-0.6c-0.3-0.1-0.7-0.1-0.8,0.1C148.3,37.7,148.5,38,148.8,38.1z M145,53.6
		c-0.3-0.1-0.7-0.1-0.8,0.1c-0.1,0.2,0.1,0.5,0.5,0.6c0.3,0.1,0.7,0.1,0.8-0.1C145.5,54,145.3,53.8,145,53.6z M146.2,52.3
		c0.1-0.2-0.1-0.5-0.5-0.6c-0.3-0.1-0.7-0.1-0.8,0.1c-0.1,0.2,0.1,0.5,0.5,0.6C145.8,52.5,146.2,52.5,146.2,52.3z M146.3,50.5
		c0.3,0.1,0.7,0.1,0.8-0.1c0.1-0.2-0.1-0.5-0.5-0.6c-0.3-0.1-0.7-0.1-0.8,0.1S145.9,50.4,146.3,50.5z M147.8,48.5
		c0.1-0.2-0.1-0.5-0.5-0.6c-0.3-0.1-0.7-0.1-0.8,0.1c-0.1,0.2,0.1,0.5,0.5,0.6C147.4,48.7,147.7,48.7,147.8,48.5z M148.6,46.6
		c0.1-0.2-0.1-0.5-0.5-0.6c-0.3-0.1-0.7-0.1-0.8,0.1c-0.1,0.2,0.1,0.5,0.5,0.6C148.2,46.8,148.5,46.8,148.6,46.6z M149.4,44.7
		c0.1-0.2-0.1-0.5-0.5-0.6c-0.3-0.1-0.7-0.1-0.8,0.1c-0.1,0.2,0.1,0.5,0.5,0.6C148.9,44.9,149.3,44.9,149.4,44.7z M148.9,42.3
		c-0.1,0.2,0.1,0.5,0.5,0.6c0.3,0.1,0.7,0.1,0.8-0.1s-0.1-0.5-0.5-0.6C149.3,42.1,149,42.1,148.9,42.3z M150.2,41
		c0.3,0.1,0.7,0.1,0.8-0.1c0.1-0.2-0.1-0.5-0.5-0.6c-0.3-0.1-0.7-0.1-0.8,0.1C149.6,40.6,149.8,40.8,150.2,41z M151,39.1
		c0.3,0.1,0.7,0.1,0.8-0.1c0.1-0.2-0.1-0.5-0.5-0.6c-0.3-0.1-0.7-0.1-0.8,0.1C150.4,38.7,150.6,38.9,151,39.1z M146.4,56.4
		c-0.3-0.1-0.6-0.1-0.7,0l0.6,0.7c0.3,0.1,0.6,0,0.6-0.1C146.9,56.8,146.7,56.5,146.4,56.4z M147.2,54.5c-0.3-0.1-0.7-0.1-0.8,0.1
		c-0.1,0.2,0.1,0.5,0.5,0.6c0.3,0.1,0.7,0.1,0.8-0.1C147.7,54.9,147.5,54.6,147.2,54.5z M148.4,53.2c0.1-0.2-0.1-0.5-0.5-0.6
		c-0.3-0.1-0.7-0.1-0.8,0.1c-0.1,0.2,0.1,0.5,0.5,0.6C148,53.4,148.3,53.3,148.4,53.2z M148.4,51.3c0.3,0.1,0.7,0.1,0.8-0.1
		c0.1-0.2-0.1-0.5-0.5-0.6c-0.3-0.1-0.7-0.1-0.8,0.1C147.9,50.9,148.1,51.2,148.4,51.3z M150,49.4c0.1-0.2-0.1-0.5-0.5-0.6
		s-0.7-0.1-0.8,0.1c-0.1,0.2,0.1,0.5,0.5,0.6C149.6,49.6,149.9,49.5,150,49.4z M149.5,46.9c-0.1,0.2,0.1,0.5,0.5,0.6
		c0.3,0.1,0.7,0.1,0.8-0.1c0.1-0.2-0.1-0.5-0.5-0.6C149.9,46.7,149.6,46.7,149.5,46.9z M150.8,45.6c0.3,0.1,0.7,0.1,0.8-0.1
		c0.1-0.2-0.1-0.5-0.5-0.6c-0.3-0.1-0.7-0.1-0.8,0.1C150.2,45.2,150.4,45.5,150.8,45.6z M151.1,43.1c-0.1,0.2,0.1,0.5,0.5,0.6
		c0.3,0.1,0.7,0.1,0.8-0.1c0.1-0.2-0.1-0.5-0.5-0.6C151.5,42.9,151.2,42.9,151.1,43.1z M152.4,41.8c0.3,0.1,0.7,0.1,0.8-0.1
		c0.1-0.2-0.1-0.5-0.5-0.6c-0.3-0.1-0.7-0.1-0.8,0.1C151.8,41.4,152,41.7,152.4,41.8z M153.1,39.9c0.3,0.1,0.7,0.1,0.8-0.1
		c0.1-0.2-0.1-0.5-0.5-0.6c-0.3-0.1-0.7-0.1-0.8,0.1C152.6,39.5,152.8,39.8,153.1,39.9z M148.5,57.3c-0.3-0.1-0.7-0.1-0.8,0.1
		c-0.1,0.2,0.1,0.5,0.5,0.6c0.3,0.1,0.7,0.1,0.8-0.1S148.9,57.4,148.5,57.3z M149.8,56c0.1-0.2-0.1-0.5-0.5-0.6
		c-0.3-0.1-0.7-0.1-0.8,0.1c-0.1,0.2,0.1,0.5,0.5,0.6C149.4,56.2,149.7,56.2,149.8,56z M149.8,54.2c0.3,0.1,0.7,0.1,0.8-0.1
		c0.1-0.2-0.1-0.5-0.5-0.6c-0.3-0.1-0.7-0.1-0.8,0.1S149.5,54,149.8,54.2z M151.4,52.2c0.1-0.2-0.1-0.5-0.5-0.6
		c-0.3-0.1-0.7-0.1-0.8,0.1c-0.1,0.2,0.1,0.5,0.5,0.6C150.9,52.4,151.3,52.4,151.4,52.2z M152.1,50.3c0.1-0.2-0.1-0.5-0.5-0.6
		c-0.3-0.1-0.7-0.1-0.8,0.1c-0.1,0.2,0.1,0.5,0.5,0.6C151.7,50.5,152,50.5,152.1,50.3z M151.7,47.9c-0.1,0.2,0.1,0.5,0.5,0.6
		c0.3,0.1,0.7,0.1,0.8-0.1c0.1-0.2-0.1-0.5-0.5-0.6C152.1,47.6,151.7,47.7,151.7,47.9z M153.7,46.5c0.1-0.2-0.1-0.5-0.5-0.6
		c-0.3-0.1-0.7-0.1-0.8,0.1c-0.1,0.2,0.1,0.5,0.5,0.6C153.3,46.7,153.6,46.7,153.7,46.5z M153.2,44.1c-0.1,0.2,0.1,0.5,0.5,0.6
		c0.3,0.1,0.7,0.1,0.8-0.1c0.1-0.2-0.1-0.5-0.5-0.6C153.6,43.8,153.3,43.9,153.2,44.1z M154.5,42.7c0.3,0.1,0.7,0.1,0.8-0.1
		c0.1-0.2-0.1-0.5-0.5-0.6c-0.3-0.1-0.7-0.1-0.8,0.1S154.1,42.6,154.5,42.7z M155.3,40.8c0.3,0.1,0.7,0.1,0.8-0.1
		c0.1-0.2-0.1-0.5-0.5-0.6c-0.3-0.1-0.7-0.1-0.8,0.1C154.7,40.4,154.9,40.7,155.3,40.8z M149.9,60c-0.2-0.1-0.4-0.1-0.6-0.1l1,0.7
		c0,0,0,0,0-0.1C150.5,60.4,150.3,60.2,149.9,60z M150.7,58.1c-0.3-0.1-0.7-0.1-0.8,0.1c-0.1,0.2,0.1,0.5,0.5,0.6
		c0.3,0.1,0.7,0.1,0.8-0.1C151.2,58.5,151,58.3,150.7,58.1z M152,56.8c0.1-0.2-0.1-0.5-0.5-0.6c-0.3-0.1-0.7-0.1-0.8,0.1
		c-0.1,0.2,0.1,0.5,0.5,0.6C151.5,57.1,151.9,57,152,56.8z M152,55c0.3,0.1,0.7,0.1,0.8-0.1c0.1-0.2-0.1-0.5-0.5-0.6
		c-0.3-0.1-0.7-0.1-0.8,0.1S151.6,54.9,152,55z M153.5,53c0.1-0.2-0.1-0.5-0.5-0.6c-0.3-0.1-0.7-0.1-0.8,0.1
		c-0.1,0.2,0.1,0.5,0.5,0.6C153.1,53.2,153.4,53.2,153.5,53z M154.3,51.1c0.1-0.2-0.1-0.5-0.5-0.6s-0.7-0.1-0.8,0.1
		c-0.1,0.2,0.1,0.5,0.5,0.6C153.9,51.3,154.2,51.3,154.3,51.1z M153.8,48.7c-0.1,0.2,0.1,0.5,0.5,0.6c0.3,0.1,0.7,0.1,0.8-0.1
		c0.1-0.2-0.1-0.5-0.5-0.6C154.3,48.5,153.9,48.5,153.8,48.7z M155.9,47.3c0.1-0.2-0.1-0.5-0.5-0.6c-0.3-0.1-0.7-0.1-0.8,0.1
		c-0.1,0.2,0.1,0.5,0.5,0.6C155.5,47.5,155.8,47.5,155.9,47.3z M155.4,44.9c-0.1,0.2,0.1,0.5,0.5,0.6c0.3,0.1,0.7,0.1,0.8-0.1
		c0.1-0.2-0.1-0.5-0.5-0.6C155.8,44.7,155.5,44.7,155.4,44.9z M156.7,43.6c0.3,0.1,0.7,0.1,0.8-0.1c0.1-0.2-0.1-0.5-0.5-0.6
		c-0.3-0.1-0.7-0.1-0.8,0.1C156.1,43.2,156.3,43.4,156.7,43.6z M157.5,41.7c0.1,0,0.1,0,0.2,0.1c-0.2-0.2-0.4-0.5-0.7-0.7l0,0
		C156.9,41.3,157.1,41.5,157.5,41.7z M152.1,61c-0.3-0.1-0.7-0.1-0.8,0.1c-0.1,0.2,0.1,0.5,0.5,0.6c0.3,0.1,0.7,0.1,0.8-0.1
		C152.6,61.4,152.4,61.1,152.1,61z M152.8,59.1c-0.3-0.1-0.7-0.1-0.8,0.1c-0.1,0.2,0.1,0.5,0.5,0.6c0.3,0.1,0.7,0.1,0.8-0.1
		C153.4,59.5,153.2,59.2,152.8,59.1z M154.1,57.8c0.1-0.2-0.1-0.5-0.5-0.6c-0.3-0.1-0.7-0.1-0.8,0.1c-0.1,0.2,0.1,0.5,0.5,0.6
		C153.7,58,154,58,154.1,57.8z M154.1,55.9c0.3,0.1,0.7,0.1,0.8-0.1c0.1-0.2-0.1-0.5-0.5-0.6c-0.3-0.1-0.7-0.1-0.8,0.1
		C153.6,55.5,153.8,55.8,154.1,55.9z M155.7,54c0.1-0.2-0.1-0.5-0.5-0.6c-0.3-0.1-0.7-0.1-0.8,0.1c-0.1,0.2,0.1,0.5,0.5,0.6
		C155.3,54.2,155.6,54.1,155.7,54z M156.4,52c0.1-0.2-0.1-0.5-0.5-0.6c-0.3-0.1-0.7-0.1-0.8,0.1c-0.1,0.2,0.1,0.5,0.5,0.6
		C156,52.3,156.4,52.2,156.4,52z M156,49.6c-0.1,0.2,0.1,0.5,0.5,0.6c0.3,0.1,0.7,0.1,0.8-0.1c0.1-0.2-0.1-0.5-0.5-0.6
		C156.4,49.4,156.1,49.5,156,49.6z M157.2,48.3c0.3,0.1,0.7,0.1,0.8-0.1c0.1-0.2-0.1-0.5-0.5-0.6c-0.3-0.1-0.7-0.1-0.8,0.1
		C156.7,47.9,156.9,48.2,157.2,48.3z M157.5,45.8c-0.1,0.2,0.1,0.5,0.5,0.6c0.3,0.1,0.7,0.1,0.8-0.1c0.1-0.2-0.1-0.5-0.5-0.6
		C158,45.6,157.6,45.6,157.5,45.8z M158.8,44.5c0.3,0.1,0.6,0.1,0.7-0.1l-0.3-0.5c0,0-0.1-0.1-0.2-0.1c-0.3-0.1-0.7-0.1-0.8,0.1
		C158.2,44.1,158.5,44.4,158.8,44.5z M154.2,61.9c-0.3-0.1-0.7-0.1-0.8,0.1c-0.1,0.2,0.1,0.5,0.5,0.6c0.3,0.1,0.7,0.1,0.8-0.1
		C154.7,62.3,154.5,62.1,154.2,61.9z M155,60c-0.3-0.1-0.7-0.1-0.8,0.1c-0.1,0.2,0.1,0.5,0.5,0.6c0.3,0.1,0.7,0.1,0.8-0.1
		C155.5,60.4,155.3,60.2,155,60z M156.2,58.7c0.1-0.2-0.1-0.5-0.5-0.6c-0.3-0.1-0.7-0.1-0.8,0.1c-0.1,0.2,0.1,0.5,0.5,0.6
		C155.8,58.9,156.2,58.9,156.2,58.7z M156.3,56.9c0.3,0.1,0.7,0.1,0.8-0.1c0.1-0.2-0.1-0.5-0.5-0.6c-0.3-0.1-0.7-0.1-0.8,0.1
		S155.9,56.7,156.3,56.9z M157.8,54.9c0.1-0.2-0.1-0.5-0.5-0.6c-0.3-0.1-0.7-0.1-0.8,0.1c-0.1,0.2,0.1,0.5,0.5,0.6
		S157.7,55.1,157.8,54.9z M158.6,53c0.1-0.2-0.1-0.5-0.5-0.6c-0.3-0.1-0.7-0.1-0.8,0.1c-0.1,0.2,0.1,0.5,0.5,0.6
		C158.2,53.2,158.5,53.2,158.6,53z M159.4,51.1c0.1-0.2-0.1-0.5-0.5-0.6c-0.3-0.1-0.7-0.1-0.8,0.1c-0.1,0.2,0.1,0.5,0.5,0.6
		C158.9,51.3,159.3,51.3,159.4,51.1z M158.9,48.7c-0.1,0.2,0.1,0.5,0.5,0.6c0.3,0.1,0.7,0.1,0.8-0.1c0.1-0.2-0.1-0.5-0.5-0.6
		C159.3,48.4,159,48.5,158.9,48.7z M160.2,47.3c0.2,0.1,0.5,0.1,0.6,0l-0.2-0.7h-0.1c-0.3-0.1-0.7-0.1-0.8,0.1
		C159.6,46.9,159.8,47.2,160.2,47.3z M156.4,62.8c-0.3-0.1-0.7-0.1-0.8,0.1c-0.1,0.2,0.1,0.5,0.5,0.6c0.3,0.1,0.7,0.1,0.8-0.1
		C156.9,63.2,156.7,62.9,156.4,62.8z M157.2,60.9c-0.3-0.1-0.7-0.1-0.8,0.1c-0.1,0.2,0.1,0.5,0.5,0.6c0.3,0.1,0.7,0.1,0.8-0.1
		C157.7,61.3,157.5,61,157.2,60.9z M158.4,59.5c0.1-0.2-0.1-0.5-0.5-0.6c-0.3-0.1-0.7-0.1-0.8,0.1c-0.1,0.2,0.1,0.5,0.5,0.6
		C158,59.8,158.3,59.7,158.4,59.5z M158.4,57.7c0.3,0.1,0.7,0.1,0.8-0.1c0.1-0.2-0.1-0.5-0.5-0.6c-0.3-0.1-0.7-0.1-0.8,0.1
		C157.9,57.3,158.1,57.6,158.4,57.7z M160,55.7c0.1-0.2-0.1-0.5-0.5-0.6c-0.3-0.1-0.7-0.1-0.8,0.1c-0.1,0.2,0.1,0.5,0.5,0.6
		C159.6,56,159.9,55.9,160,55.7z M160.8,53.8c0.1-0.2-0.1-0.5-0.5-0.6c-0.3-0.1-0.7-0.1-0.8,0.1c-0.1,0.2,0.1,0.5,0.5,0.6
		C160.4,54,160.7,54,160.8,53.8z M160.3,51.4c-0.1,0.2,0.1,0.5,0.5,0.6c0.3,0.1,0.7,0.1,0.8-0.1c0.1-0.2-0.1-0.5-0.5-0.6
		C160.7,51.2,160.4,51.2,160.3,51.4z M161.5,50.1c-0.1-0.2-0.1-0.5-0.2-0.7c-0.1,0-0.2,0.1-0.2,0.2C161,49.7,161.2,49.9,161.5,50.1z
		 M158.5,63.7c-0.3-0.1-0.7-0.1-0.8,0.1c-0.1,0.2,0.1,0.5,0.5,0.6c0.3,0.1,0.7,0.1,0.8-0.1C159.1,64.1,158.9,63.8,158.5,63.7z
		 M159.3,61.8c-0.3-0.1-0.7-0.1-0.8,0.1c-0.1,0.2,0.1,0.5,0.5,0.6c0.3,0.1,0.7,0.1,0.8-0.1C159.9,62.2,159.6,61.9,159.3,61.8z
		 M160.6,60.5c0.1-0.2-0.1-0.5-0.5-0.6c-0.3-0.1-0.7-0.1-0.8,0.1c-0.1,0.2,0.1,0.5,0.5,0.6C160.1,60.7,160.5,60.7,160.6,60.5z
		 M160.6,58.7c0.3,0.1,0.7,0.1,0.8-0.1c0.1-0.2-0.1-0.5-0.5-0.6c-0.3-0.1-0.7-0.1-0.8,0.1C160,58.2,160.2,58.5,160.6,58.7z
		 M160.9,56.2c-0.1,0.2,0.1,0.5,0.5,0.6c0.3,0.1,0.7,0.1,0.8-0.1c0.1-0.2-0.1-0.5-0.5-0.6C161.3,55.9,161,56,160.9,56.2z
		 M162.2,54.8C162.2,54.8,162.2,54.9,162.2,54.8c0.1-0.2,0-0.5,0-0.8c-0.2,0-0.4,0-0.5,0.2C161.6,54.4,161.8,54.7,162.2,54.8z
		 M160.7,64.5c-0.3-0.1-0.7-0.1-0.8,0.1s0.1,0.5,0.5,0.6c0.3,0.1,0.7,0.1,0.8-0.1S161,64.7,160.7,64.5z M161.5,62.6
		c-0.3-0.1-0.7-0.1-0.8,0.1c-0.1,0.2,0.1,0.5,0.5,0.6c0.3,0.1,0.7,0.1,0.8-0.1C162,63,161.8,62.8,161.5,62.6z M162.7,61.4l-0.1-0.5
		c-0.1-0.1-0.2-0.2-0.3-0.2c-0.3-0.1-0.7-0.1-0.8,0.1c-0.1,0.2,0.1,0.5,0.5,0.6C162.3,61.5,162.5,61.5,162.7,61.4z M162.8,65.5
		c-0.3-0.1-0.7-0.1-0.8,0.1s0.1,0.5,0.5,0.6c0.3,0.1,0.7,0.1,0.8-0.1C163.4,65.9,163.2,65.6,162.8,65.5z M163.3,64.2
		c-0.1-0.2-0.1-0.5-0.2-0.7c-0.1,0-0.2,0.1-0.2,0.2C162.8,63.8,163,64,163.3,64.2z"/>
	<g>
		<path d="M166.3,68.6l-0.6-0.1c-17.5-2.1-24.7-5.8-27.6-14c-2.2-5.4-1-13.6-0.6-16v-0.3h0.3c10.1,1.2,15.6,3,19.6,9.8
			c1.5,2.8,3,5.9,4.1,10.1c1.4,5.9,4.6,10,4.6,10L166.3,68.6z M137.9,38.7c-0.3,2-1.5,10.3,0.6,15.6c2.8,7.9,9.8,11.5,26.6,13.6
			c-0.9-1.3-3.2-4.9-4.3-9.7c-1-4.2-2.5-7.2-4-10C153,41.6,147.9,39.9,137.9,38.7z"/>
	</g>
</g>
<path class="st5" d="M38.8,53c-2.1-8-4-12.3-10-14.8c-2.1-0.8-4.9-1.8-8.6-2.2c-5.1-0.5-8.8-2.7-8.8-2.7
	c3.8,14.7,7.7,19.5,14.3,20.9C30.9,55.6,38.7,53.1,38.8,53z"/>
<path class="st5" d="M551.7,107c-2.9,4.9-5,7.4-9.4,7.9c-1.5,0.2-3.6,0.3-6.1-0.2c-3.5-0.6-6.3,0.2-6.3,0.2
	c5.3-9.1,8.8-11.5,13.4-11.2C546.9,103.9,551.6,107,551.7,107z"/>
</svg>
