<?xml version="1.0" encoding="utf-8"?>
<!-- Generator: Adobe Illustrator 26.2.1, SVG Export Plug-In . SVG Version: 6.00 Build 0)  -->
<svg version="1.1" id="Layer_1" xmlns="http://www.w3.org/2000/svg" xmlns:xlink="http://www.w3.org/1999/xlink" x="0px" y="0px"
	 viewBox="0 0 593.4 133.8" style="enable-background:new 0 0 593.4 133.8;" xml:space="preserve">
<style type="text/css">
	.st0{fill:#B8C5D0;}
	.st1{fill:#0062AA;}
	.st2{fill:#F3A56D;}
	.st3{fill:#DC5C00;}
	.st4{fill:#FFFFFF;}
</style>
<path class="st0" d="M176,31.5c0-0.7,0.3-1.3,0.7-1.3s0.7,0.6,0.7,1.3s-0.3,1.3-0.7,1.3C176.3,32.7,176,32.2,176,31.5z M180.7,32.7
	c0.4,0,0.7-0.6,0.7-1.3s-0.3-1.3-0.7-1.3s-0.7,0.6-0.7,1.3C179.9,32.1,180.3,32.7,180.7,32.7z M184.6,32.7c0.4,0,0.7-0.6,0.7-1.3
	s-0.3-1.3-0.7-1.3s-0.7,0.6-0.7,1.3S184.2,32.7,184.6,32.7z M188.5,32.6c0.4,0,0.7-0.6,0.7-1.3s-0.3-1.3-0.7-1.3s-0.7,0.6-0.7,1.3
	C187.8,32.1,188.2,32.6,188.5,32.6z M192.5,32.6c0.4,0,0.7-0.6,0.7-1.3s-0.3-1.3-0.7-1.3s-0.7,0.6-0.7,1.3
	C191.8,32.1,192.1,32.6,192.5,32.6z M196.4,32.6c0.4,0,0.7-0.6,0.7-1.3s-0.3-1.3-0.7-1.3s-0.7,0.6-0.7,1.3
	C195.7,32,196,32.6,196.4,32.6z M172.7,37.2c0.4,0,0.7-0.6,0.7-1.3s-0.3-1.3-0.7-1.3s-0.7,0.6-0.7,1.3
	C172,36.7,172.3,37.2,172.7,37.2z M176.6,37.2c0.4,0,0.7-0.6,0.7-1.3s-0.3-1.3-0.7-1.3s-0.7,0.6-0.7,1.3S176.3,37.2,176.6,37.2z
	 M180.6,37.2c0.4,0,0.7-0.6,0.7-1.3s-0.3-1.3-0.7-1.3s-0.7,0.6-0.7,1.3S180.2,37.2,180.6,37.2z M184.5,37.2c0.4,0,0.7-0.6,0.7-1.3
	s-0.3-1.3-0.7-1.3s-0.7,0.6-0.7,1.3S184.1,37.2,184.5,37.2z M188.4,37.1c0.4,0,0.7-0.6,0.7-1.3s-0.3-1.3-0.7-1.3s-0.7,0.6-0.7,1.3
	C187.7,36.6,188.1,37.1,188.4,37.1z M192.4,37.1c0.4,0,0.7-0.6,0.7-1.3s-0.3-1.3-0.7-1.3s-0.7,0.6-0.7,1.3
	C191.7,36.5,192,37.1,192.4,37.1z M196.3,37.1c0.4,0,0.7-0.6,0.7-1.3s-0.3-1.3-0.7-1.3s-0.7,0.6-0.7,1.3
	C195.6,36.5,195.9,37.1,196.3,37.1z M200.3,37c0.4,0,0.7-0.6,0.7-1.3s-0.3-1.3-0.7-1.3s-0.7,0.6-0.7,1.3
	C199.6,36.5,199.9,37,200.3,37z M168.9,41.7c0.4,0,0.7-0.6,0.7-1.3s-0.3-1.3-0.7-1.3s-0.7,0.6-0.7,1.3
	C168.2,41.2,168.5,41.7,168.9,41.7z M172.8,39.1c-0.4,0-0.7,0.6-0.7,1.3s0.3,1.3,0.7,1.3s0.7-0.6,0.7-1.3S173.2,39.1,172.8,39.1z
	 M176.7,39.1c-0.4,0-0.7,0.6-0.7,1.3s0.3,1.3,0.7,1.3s0.7-0.6,0.7-1.3C177.5,39.7,177.1,39.1,176.7,39.1z M180.7,39.1
	c-0.4,0-0.7,0.6-0.7,1.3s0.3,1.3,0.7,1.3s0.7-0.6,0.7-1.3S181.1,39.1,180.7,39.1z M184.6,39.1c-0.4,0-0.7,0.6-0.7,1.3
	s0.3,1.3,0.7,1.3s0.7-0.6,0.7-1.3C185.3,39.6,185,39.1,184.6,39.1z M188.6,39c-0.4,0-0.7,0.6-0.7,1.3s0.3,1.3,0.7,1.3
	s0.7-0.6,0.7-1.3C189.3,39.6,189,39,188.6,39z M192.5,39c-0.4,0-0.7,0.6-0.7,1.3s0.3,1.3,0.7,1.3s0.7-0.6,0.7-1.3
	C193.2,39.6,192.9,39,192.5,39z M196.5,39c-0.4,0-0.7,0.6-0.7,1.3s0.3,1.3,0.7,1.3s0.7-0.6,0.7-1.3C197.2,39.5,196.8,39,196.5,39z
	 M200.4,38.9c-0.4,0-0.7,0.6-0.7,1.3s0.3,1.3,0.7,1.3s0.7-0.6,0.7-1.3S200.8,38.9,200.4,38.9z M204.3,41.5c0.4,0,0.7-0.6,0.7-1.3
	s-0.3-1.3-0.7-1.3s-0.7,0.6-0.7,1.3S204,41.5,204.3,41.5z M168.8,46.2c0.4,0,0.7-0.6,0.7-1.3c0-0.7-0.3-1.3-0.7-1.3
	s-0.7,0.6-0.7,1.3S168.4,46.2,168.8,46.2z M172,44.9c0,0.7,0.3,1.3,0.7,1.3s0.7-0.6,0.7-1.3c0-0.7-0.3-1.3-0.7-1.3
	C172.3,43.6,172,44.2,172,44.9z M176,44.9c0,0.7,0.3,1.3,0.7,1.3s0.7-0.6,0.7-1.3c0-0.7-0.3-1.3-0.7-1.3
	C176.3,43.6,176,44.2,176,44.9z M179.9,44.8c0,0.7,0.3,1.3,0.7,1.3s0.7-0.6,0.7-1.3c0-0.7-0.3-1.3-0.7-1.3
	C180.2,43.6,179.9,44.1,179.9,44.8z M183.9,44.8c0,0.7,0.3,1.3,0.7,1.3s0.7-0.6,0.7-1.3c0-0.7-0.3-1.3-0.7-1.3
	C184.2,43.5,183.9,44.1,183.9,44.8z M187.8,44.8c0,0.7,0.3,1.3,0.7,1.3s0.7-0.6,0.7-1.3c0-0.7-0.3-1.3-0.7-1.3
	C188.1,43.5,187.8,44.1,187.8,44.8z M191.8,44.7c0,0.7,0.3,1.3,0.7,1.3s0.7-0.6,0.7-1.3c0-0.7-0.3-1.3-0.7-1.3
	C192.1,43.5,191.8,44,191.8,44.7z M196.4,46c0.4,0,0.7-0.6,0.7-1.3c0-0.7-0.3-1.3-0.7-1.3s-0.7,0.6-0.7,1.3
	C195.7,45.4,196,46,196.4,46z M199.6,44.7c0,0.7,0.3,1.3,0.7,1.3s0.7-0.6,0.7-1.3c0-0.7-0.3-1.3-0.7-1.3S199.6,44,199.6,44.7z
	 M204.3,46c0.4,0,0.7-0.6,0.7-1.3c0-0.7-0.3-1.3-0.7-1.3s-0.7,0.6-0.7,1.3C203.6,45.4,203.9,46,204.3,46z M168.9,48.1
	c-0.4,0-0.7,0.6-0.7,1.3c0,0.7,0.3,1.3,0.7,1.3s0.7-0.6,0.7-1.3C169.6,48.6,169.3,48.1,168.9,48.1z M172.9,48.1
	c-0.4,0-0.7,0.6-0.7,1.3c0,0.7,0.3,1.3,0.7,1.3s0.7-0.6,0.7-1.3C173.6,48.6,173.3,48.1,172.9,48.1z M176.8,48
	c-0.4,0-0.7,0.6-0.7,1.3c0,0.7,0.3,1.3,0.7,1.3s0.7-0.6,0.7-1.3S177.2,48,176.8,48z M180.8,48c-0.4,0-0.7,0.6-0.7,1.3
	c0,0.7,0.3,1.3,0.7,1.3s0.7-0.6,0.7-1.3S181.1,48,180.8,48z M184.7,48c-0.4,0-0.7,0.6-0.7,1.3c0,0.7,0.3,1.3,0.7,1.3
	s0.7-0.6,0.7-1.3C185.4,48.5,185.1,48,184.7,48z M188.6,48c-0.4,0-0.7,0.6-0.7,1.3c0,0.7,0.3,1.3,0.7,1.3s0.7-0.6,0.7-1.3
	C189.3,48.5,189,47.9,188.6,48z M192.6,47.9c-0.4,0-0.7,0.6-0.7,1.3c0,0.7,0.3,1.3,0.7,1.3s0.7-0.6,0.7-1.3
	C193.3,48.5,193,47.9,192.6,47.9z M196.5,47.9c-0.4,0-0.7,0.6-0.7,1.3c0,0.7,0.3,1.3,0.7,1.3s0.7-0.6,0.7-1.3
	C197.2,48.5,196.9,47.9,196.5,47.9z M200.5,47.9c-0.4,0-0.7,0.6-0.7,1.3c0,0.7,0.3,1.3,0.7,1.3s0.7-0.6,0.7-1.3
	C201.2,48.5,200.9,47.9,200.5,47.9z M204.4,47.9c-0.4,0-0.7,0.6-0.7,1.3c0,0.7,0.3,1.3,0.7,1.3s0.7-0.6,0.7-1.3
	C205.1,48.4,204.8,47.9,204.4,47.9z M168.8,52.6c-0.4,0-0.7,0.6-0.7,1.3c0,0.7,0.3,1.3,0.7,1.3s0.7-0.6,0.7-1.3
	C169.5,53.1,169.2,52.6,168.8,52.6z M173.5,53.8c0-0.7-0.3-1.3-0.7-1.3s-0.7,0.6-0.7,1.3c0,0.7,0.3,1.3,0.7,1.3
	C173.2,55.1,173.5,54.5,173.5,53.8z M177.5,53.8c0-0.7-0.3-1.3-0.7-1.3s-0.7,0.6-0.7,1.3c0,0.7,0.3,1.3,0.7,1.3
	C177.2,55.1,177.5,54.5,177.5,53.8z M181.4,53.8c0-0.7-0.3-1.3-0.7-1.3s-0.7,0.6-0.7,1.3c0,0.7,0.3,1.3,0.7,1.3
	C181.1,55,181.4,54.5,181.4,53.8z M185.3,53.7c0-0.7-0.3-1.3-0.7-1.3s-0.7,0.6-0.7,1.3c0,0.7,0.3,1.3,0.7,1.3S185.3,54.4,185.3,53.7
	z M189.3,53.7c0-0.7-0.3-1.3-0.7-1.3s-0.7,0.6-0.7,1.3c0,0.7,0.3,1.3,0.7,1.3S189.3,54.4,189.3,53.7z M193.2,53.7
	c0-0.7-0.3-1.3-0.7-1.3s-0.7,0.6-0.7,1.3c0,0.7,0.3,1.3,0.7,1.3S193.2,54.4,193.2,53.7z M197.1,53.7c0-0.7-0.3-1.3-0.7-1.3
	s-0.7,0.6-0.7,1.3c0,0.7,0.3,1.3,0.7,1.3C196.8,54.9,197.2,54.4,197.1,53.7z M201.1,53.6c0-0.7-0.3-1.3-0.7-1.3s-0.7,0.6-0.7,1.3
	c0,0.7,0.3,1.3,0.7,1.3C200.8,54.9,201.1,54.3,201.1,53.6z M204.3,52.3c-0.4,0-0.7,0.6-0.7,1.3c0,0.7,0.3,1.3,0.7,1.3
	s0.7-0.6,0.7-1.3C205.1,52.9,204.7,52.3,204.3,52.3z M168.8,57c-0.4,0-0.7,0.6-0.7,1.3c0,0.7,0.3,1.3,0.7,1.3s0.7-0.6,0.7-1.3
	S169.2,57,168.8,57z M172.7,59.6c0.4,0,0.7-0.6,0.7-1.3c0-0.7-0.3-1.3-0.7-1.3s-0.7,0.6-0.7,1.3C172,59,172.4,59.6,172.7,59.6z
	 M176.7,59.5c0.4,0,0.7-0.6,0.7-1.3c0-0.7-0.3-1.3-0.7-1.3s-0.7,0.6-0.7,1.3C176,59,176.3,59.5,176.7,59.5z M180.6,59.5
	c0.4,0,0.7-0.6,0.7-1.3c0-0.7-0.3-1.3-0.7-1.3s-0.7,0.6-0.7,1.3C179.9,58.9,180.2,59.5,180.6,59.5z M184.6,59.5
	c0.4,0,0.7-0.6,0.7-1.3c0-0.7-0.3-1.3-0.7-1.3s-0.7,0.6-0.7,1.3C183.9,58.9,184.2,59.5,184.6,59.5z M188.5,59.5
	c0.4,0,0.7-0.6,0.7-1.3c0-0.7-0.3-1.3-0.7-1.3s-0.7,0.6-0.7,1.3C187.8,58.9,188.1,59.5,188.5,59.5z M192.4,59.4
	c0.4,0,0.7-0.6,0.7-1.3c0-0.7-0.3-1.3-0.7-1.3s-0.7,0.6-0.7,1.3C191.7,58.9,192.1,59.4,192.4,59.4z M196.4,59.4
	c0.4,0,0.7-0.6,0.7-1.3c0-0.7-0.3-1.3-0.7-1.3s-0.7,0.6-0.7,1.3S196,59.4,196.4,59.4z M200.3,59.4c0.4,0,0.7-0.6,0.7-1.3
	c0-0.7-0.3-1.3-0.7-1.3s-0.7,0.6-0.7,1.3S199.9,59.4,200.3,59.4z M204.3,56.8c-0.4,0-0.7,0.6-0.7,1.3c0,0.7,0.3,1.3,0.7,1.3
	s0.7-0.6,0.7-1.3C205,57.3,204.6,56.8,204.3,56.8z M172.8,61.5c-0.4,0-0.7,0.6-0.7,1.3c0,0.7,0.3,1.3,0.7,1.3s0.7-0.6,0.7-1.3
	C173.5,62,173.2,61.5,172.8,61.5z M176.8,61.4c-0.4,0-0.7,0.6-0.7,1.3c0,0.7,0.3,1.3,0.7,1.3s0.7-0.6,0.7-1.3
	C177.5,62,177.2,61.4,176.8,61.4z M180.7,61.4c-0.4,0-0.7,0.6-0.7,1.3c0,0.7,0.3,1.3,0.7,1.3s0.7-0.6,0.7-1.3
	C181.4,62,181.1,61.4,180.7,61.4z M184.7,61.4c-0.4,0-0.7,0.6-0.7,1.3c0,0.7,0.3,1.3,0.7,1.3s0.7-0.6,0.7-1.3
	C185.4,62,185.1,61.4,184.7,61.4z M188.6,61.4c-0.4,0-0.7,0.6-0.7,1.3c0,0.7,0.3,1.3,0.7,1.3s0.7-0.6,0.7-1.3
	C189.3,61.9,189,61.4,188.6,61.4z M192.6,61.3c-0.4,0-0.7,0.6-0.7,1.3c0,0.7,0.3,1.3,0.7,1.3s0.7-0.6,0.7-1.3S193,61.3,192.6,61.3z
	 M196.5,61.3c-0.4,0-0.7,0.6-0.7,1.3c0,0.7,0.3,1.3,0.7,1.3s0.7-0.6,0.7-1.3C197.2,61.9,196.9,61.3,196.5,61.3z M200.4,61.3
	c-0.4,0-0.7,0.6-0.7,1.3c0,0.7,0.3,1.3,0.7,1.3s0.7-0.6,0.7-1.3C201.1,61.8,200.8,61.3,200.4,61.3z M176.7,65.9
	c-0.4,0-0.7,0.6-0.7,1.3c0,0.7,0.3,1.3,0.7,1.3s0.7-0.6,0.7-1.3C177.4,66.5,177.1,65.9,176.7,65.9z M180.7,65.9
	c-0.4,0-0.7,0.6-0.7,1.3c0,0.7,0.3,1.3,0.7,1.3s0.7-0.6,0.7-1.3C181.4,66.5,181,65.9,180.7,65.9z M184.6,65.9
	c-0.4,0-0.7,0.6-0.7,1.3c0,0.7,0.3,1.3,0.7,1.3s0.7-0.6,0.7-1.3C185.3,66.4,185,65.9,184.6,65.9z M188.5,65.8
	c-0.4,0-0.7,0.6-0.7,1.3c0,0.7,0.3,1.3,0.7,1.3s0.7-0.6,0.7-1.3C189.2,66.4,188.9,65.8,188.5,65.8z M192.5,65.8
	c-0.4,0-0.7,0.6-0.7,1.3c0,0.7,0.3,1.3,0.7,1.3s0.7-0.6,0.7-1.3C193.2,66.4,192.9,65.8,192.5,65.8z M196.4,65.8
	c-0.4,0-0.7,0.6-0.7,1.3c0,0.7,0.3,1.3,0.7,1.3s0.7-0.6,0.7-1.3S196.8,65.8,196.4,65.8z"/>
<path class="st0" d="M493.2,82.2c0-0.4,0.2-0.8,0.4-0.8c0.2,0,0.4,0.4,0.4,0.8c0,0.4-0.2,0.8-0.4,0.8
	C493.4,83,493.2,82.6,493.2,82.2z M496.1,83c0.2,0,0.4-0.4,0.4-0.8c0-0.4-0.2-0.8-0.4-0.8c-0.2,0-0.4,0.4-0.4,0.8
	C495.6,82.6,495.9,83,496.1,83z M498.5,83c0.2,0,0.4-0.4,0.4-0.8c0-0.4-0.2-0.8-0.4-0.8c-0.2,0-0.4,0.4-0.4,0.8
	C498.1,82.6,498.3,83,498.5,83z M501,82.9c0.2,0,0.4-0.4,0.4-0.8c0-0.4-0.2-0.8-0.4-0.8c-0.2,0-0.4,0.4-0.4,0.8
	C500.5,82.6,500.8,82.9,501,82.9z M503.5,82.9c0.2,0,0.4-0.4,0.4-0.8c0-0.4-0.2-0.8-0.4-0.8c-0.2,0-0.4,0.4-0.4,0.8
	C503,82.6,503.2,82.9,503.5,82.9z M505.9,82.9c0.2,0,0.4-0.4,0.4-0.8c0-0.4-0.2-0.8-0.4-0.8c-0.2,0-0.4,0.4-0.4,0.8
	C505.4,82.5,505.6,82.9,505.9,82.9z M491.2,85.8c0.2,0,0.4-0.4,0.4-0.8c0-0.4-0.2-0.8-0.4-0.8c-0.2,0-0.4,0.4-0.4,0.8
	C490.7,85.4,490.9,85.8,491.2,85.8z M493.6,85.8c0.2,0,0.4-0.4,0.4-0.8c0-0.4-0.2-0.8-0.4-0.8c-0.2,0-0.4,0.4-0.4,0.8
	C493.1,85.4,493.4,85.8,493.6,85.8z M496.1,85.8c0.2,0,0.4-0.4,0.4-0.8c0-0.4-0.2-0.8-0.4-0.8c-0.2,0-0.4,0.4-0.4,0.8
	C495.6,85.4,495.8,85.8,496.1,85.8z M498.5,85.8c0.2,0,0.4-0.4,0.4-0.8c0-0.4-0.2-0.8-0.4-0.8c-0.2,0-0.4,0.4-0.4,0.8
	C498,85.4,498.2,85.8,498.5,85.8z M500.9,85.7c0.2,0,0.4-0.4,0.4-0.8c0-0.4-0.2-0.8-0.4-0.8c-0.2,0-0.4,0.4-0.4,0.8
	C500.5,85.4,500.7,85.7,500.9,85.7z M503.4,85.7c0.2,0,0.4-0.4,0.4-0.8c0-0.4-0.2-0.8-0.4-0.8c-0.2,0-0.4,0.4-0.4,0.8
	C503,85.3,503.1,85.7,503.4,85.7z M505.8,85.7c0.2,0,0.4-0.4,0.4-0.8c0-0.4-0.2-0.8-0.4-0.8c-0.2,0-0.4,0.4-0.4,0.8
	C505.4,85.3,505.6,85.7,505.8,85.7z M508.3,85.6c0.2,0,0.4-0.4,0.4-0.8c0-0.4-0.2-0.8-0.4-0.8c-0.2,0-0.4,0.4-0.4,0.8
	C507.9,85.3,508.1,85.6,508.3,85.6z M488.8,88.5c0.2,0,0.4-0.4,0.4-0.8c0-0.4-0.2-0.8-0.4-0.8c-0.2,0-0.4,0.4-0.4,0.8
	C488.4,88.2,488.5,88.5,488.8,88.5z M491.2,86.9c-0.2,0-0.4,0.4-0.4,0.8c0,0.4,0.2,0.8,0.4,0.8c0.2,0,0.4-0.4,0.4-0.8
	C491.6,87.3,491.5,86.9,491.2,86.9z M493.6,86.9c-0.2,0-0.4,0.4-0.4,0.8c0,0.4,0.2,0.8,0.4,0.8c0.2,0,0.4-0.4,0.4-0.8
	C494.1,87.3,493.9,86.9,493.6,86.9z M496.1,86.9c-0.2,0-0.4,0.4-0.4,0.8c0,0.4,0.2,0.8,0.4,0.8c0.2,0,0.4-0.4,0.4-0.8
	C496.6,87.3,496.4,86.9,496.1,86.9z M498.5,86.9c-0.2,0-0.4,0.4-0.4,0.8c0,0.4,0.2,0.8,0.4,0.8c0.2,0,0.4-0.4,0.4-0.8
	C499,87.2,498.8,86.9,498.5,86.9z M501,86.9c-0.2,0-0.4,0.4-0.4,0.8s0.2,0.8,0.4,0.8c0.2,0,0.4-0.4,0.4-0.8
	C501.5,87.2,501.3,86.9,501,86.9z M503.5,86.9c-0.2,0-0.4,0.4-0.4,0.8s0.2,0.8,0.4,0.8c0.2,0,0.4-0.4,0.4-0.8
	C503.9,87.2,503.7,86.9,503.5,86.9z M505.9,86.9c-0.2,0-0.4,0.4-0.4,0.8s0.2,0.8,0.4,0.8c0.2,0,0.4-0.4,0.4-0.8
	C506.4,87.2,506.1,86.9,505.9,86.9z M508.4,86.8c-0.2,0-0.4,0.4-0.4,0.8c0,0.4,0.2,0.8,0.4,0.8c0.2,0,0.4-0.4,0.4-0.8
	C508.8,87.2,508.6,86.8,508.4,86.8z M510.8,88.4c0.2,0,0.4-0.4,0.4-0.8c0-0.4-0.2-0.8-0.4-0.8c-0.2,0-0.4,0.4-0.4,0.8
	C510.4,88,510.6,88.4,510.8,88.4z M488.7,91.3c0.2,0,0.4-0.4,0.4-0.8s-0.2-0.8-0.4-0.8c-0.2,0-0.4,0.4-0.4,0.8
	S488.5,91.3,488.7,91.3z M490.7,90.5c0,0.4,0.2,0.8,0.4,0.8c0.2,0,0.4-0.4,0.4-0.8s-0.2-0.8-0.4-0.8
	C490.9,89.7,490.7,90.1,490.7,90.5z M493.2,90.5c0,0.4,0.2,0.8,0.4,0.8c0.2,0,0.4-0.4,0.4-0.8s-0.2-0.8-0.4-0.8
	C493.4,89.7,493.2,90.1,493.2,90.5z M495.6,90.5c0,0.4,0.2,0.8,0.4,0.8c0.2,0,0.4-0.4,0.4-0.8c0-0.4-0.2-0.8-0.4-0.8
	C495.8,89.7,495.6,90,495.6,90.5z M498.1,90.5c0,0.4,0.2,0.8,0.4,0.8c0.2,0,0.4-0.4,0.4-0.8c0-0.4-0.2-0.8-0.4-0.8
	C498.3,89.7,498.1,90,498.1,90.5z M500.5,90.5c0,0.4,0.2,0.8,0.4,0.8c0.2,0,0.4-0.4,0.4-0.8c0-0.4-0.2-0.8-0.4-0.8
	C500.7,89.7,500.5,90,500.5,90.5z M503,90.4c0,0.4,0.2,0.8,0.4,0.8c0.2,0,0.4-0.4,0.4-0.8c0-0.4-0.2-0.8-0.4-0.8
	C503.2,89.7,503,90,503,90.4z M505.9,91.2c0.2,0,0.4-0.4,0.4-0.8c0-0.4-0.2-0.8-0.4-0.8c-0.2,0-0.4,0.4-0.4,0.8
	C505.4,90.8,505.6,91.2,505.9,91.2z M507.9,90.4c0,0.4,0.2,0.8,0.4,0.8c0.2,0,0.4-0.4,0.4-0.8c0-0.4-0.2-0.8-0.4-0.8
	C508.1,89.6,507.9,90,507.9,90.4z M510.8,91.2c0.2,0,0.4-0.4,0.4-0.8c0-0.4-0.2-0.8-0.4-0.8c-0.2,0-0.4,0.4-0.4,0.8
	C510.4,90.8,510.5,91.2,510.8,91.2z M488.8,92.5c-0.2,0-0.4,0.4-0.4,0.8s0.2,0.8,0.4,0.8c0.2,0,0.4-0.4,0.4-0.8
	C489.2,92.8,489,92.5,488.8,92.5z M491.3,92.5c-0.2,0-0.4,0.4-0.4,0.8s0.2,0.8,0.4,0.8c0.2,0,0.4-0.4,0.4-0.8
	C491.7,92.8,491.5,92.5,491.3,92.5z M493.7,92.5c-0.2,0-0.4,0.4-0.4,0.8c0,0.4,0.2,0.8,0.4,0.8c0.2,0,0.4-0.4,0.4-0.8
	S493.9,92.5,493.7,92.5z M496.2,92.5c-0.2,0-0.4,0.4-0.4,0.8c0,0.4,0.2,0.8,0.4,0.8c0.2,0,0.4-0.4,0.4-0.8S496.4,92.5,496.2,92.5z
	 M498.6,92.5c-0.2,0-0.4,0.4-0.4,0.8c0,0.4,0.2,0.8,0.4,0.8c0.2,0,0.4-0.4,0.4-0.8C499,92.8,498.9,92.5,498.6,92.5z M501,92.5
	c-0.2,0-0.4,0.4-0.4,0.8c0,0.4,0.2,0.8,0.4,0.8c0.2,0,0.4-0.4,0.4-0.8C501.5,92.8,501.3,92.4,501,92.5z M503.5,92.4
	c-0.2,0-0.4,0.4-0.4,0.8c0,0.4,0.2,0.8,0.4,0.8c0.2,0,0.4-0.4,0.4-0.8S503.8,92.4,503.5,92.4z M505.9,92.4c-0.2,0-0.4,0.4-0.4,0.8
	c0,0.4,0.2,0.8,0.4,0.8c0.2,0,0.4-0.4,0.4-0.8S506.2,92.4,505.9,92.4z M508.4,92.4c-0.2,0-0.4,0.4-0.4,0.8c0,0.4,0.2,0.8,0.4,0.8
	c0.2,0,0.4-0.4,0.4-0.8C508.9,92.8,508.7,92.4,508.4,92.4z M510.8,92.4c-0.2,0-0.4,0.4-0.4,0.8c0,0.4,0.2,0.8,0.4,0.8
	c0.2,0,0.4-0.4,0.4-0.8C511.3,92.7,511.1,92.4,510.8,92.4z M488.7,95.3c-0.2,0-0.4,0.4-0.4,0.8s0.2,0.8,0.4,0.8
	c0.2,0,0.4-0.4,0.4-0.8C489.2,95.6,489,95.3,488.7,95.3z M491.6,96.1c0-0.4-0.2-0.8-0.4-0.8c-0.2,0-0.4,0.4-0.4,0.8
	c0,0.4,0.2,0.8,0.4,0.8C491.5,96.9,491.6,96.5,491.6,96.1z M494.1,96.1c0-0.4-0.2-0.8-0.4-0.8c-0.2,0-0.4,0.4-0.4,0.8
	c0,0.4,0.2,0.8,0.4,0.8C493.9,96.9,494.1,96.5,494.1,96.1z M496.6,96.1c0-0.4-0.2-0.8-0.4-0.8c-0.2,0-0.4,0.4-0.4,0.8
	c0,0.4,0.2,0.8,0.4,0.8C496.4,96.8,496.6,96.5,496.6,96.1z M499,96c0-0.4-0.2-0.8-0.4-0.8c-0.2,0-0.4,0.4-0.4,0.8
	c0,0.4,0.2,0.8,0.4,0.8C498.8,96.8,499,96.4,499,96z M501.5,96c0-0.4-0.2-0.8-0.4-0.8c-0.2,0-0.4,0.4-0.4,0.8c0,0.4,0.2,0.8,0.4,0.8
	C501.3,96.8,501.5,96.4,501.5,96z M503.9,96c0-0.4-0.2-0.8-0.4-0.8c-0.2,0-0.4,0.4-0.4,0.8c0,0.4,0.2,0.8,0.4,0.8
	C503.7,96.8,503.9,96.4,503.9,96z M506.3,96c0-0.4-0.2-0.8-0.4-0.8c-0.2,0-0.4,0.4-0.4,0.8c0,0.4,0.2,0.8,0.4,0.8
	C506.1,96.7,506.4,96.4,506.3,96z M508.8,95.9c0-0.4-0.2-0.8-0.4-0.8c-0.2,0-0.4,0.4-0.4,0.8c0,0.4,0.2,0.8,0.4,0.8
	C508.6,96.7,508.8,96.4,508.8,95.9z M510.8,95.1c-0.2,0-0.4,0.4-0.4,0.8c0,0.4,0.2,0.8,0.4,0.8c0.2,0,0.4-0.4,0.4-0.8
	C511.3,95.5,511,95.1,510.8,95.1z M488.7,98.1c-0.2,0-0.4,0.4-0.4,0.8c0,0.4,0.2,0.8,0.4,0.8c0.2,0,0.4-0.4,0.4-0.8
	S489,98.1,488.7,98.1z M491.2,99.7c0.2,0,0.4-0.4,0.4-0.8c0-0.4-0.2-0.8-0.4-0.8c-0.2,0-0.4,0.4-0.4,0.8
	C490.7,99.3,491,99.7,491.2,99.7z M493.6,99.6c0.2,0,0.4-0.4,0.4-0.8s-0.2-0.8-0.4-0.8c-0.2,0-0.4,0.4-0.4,0.8
	C493.2,99.3,493.4,99.6,493.6,99.6z M496.1,99.6c0.2,0,0.4-0.4,0.4-0.8s-0.2-0.8-0.4-0.8c-0.2,0-0.4,0.4-0.4,0.8
	C495.6,99.2,495.8,99.6,496.1,99.6z M498.5,99.6c0.2,0,0.4-0.4,0.4-0.8s-0.2-0.8-0.4-0.8c-0.2,0-0.4,0.4-0.4,0.8
	C498.1,99.2,498.3,99.6,498.5,99.6z M501,99.6c0.2,0,0.4-0.4,0.4-0.8S501.2,98,501,98c-0.2,0-0.4,0.4-0.4,0.8
	C500.5,99.2,500.7,99.6,501,99.6z M503.4,99.5c0.2,0,0.4-0.4,0.4-0.8s-0.2-0.8-0.4-0.8c-0.2,0-0.4,0.4-0.4,0.8
	C503,99.2,503.2,99.5,503.4,99.5z M505.9,99.5c0.2,0,0.4-0.4,0.4-0.8s-0.2-0.8-0.4-0.8c-0.2,0-0.4,0.4-0.4,0.8
	S505.6,99.5,505.9,99.5z M508.3,99.5c0.2,0,0.4-0.4,0.4-0.8s-0.2-0.8-0.4-0.8c-0.2,0-0.4,0.4-0.4,0.8S508.1,99.5,508.3,99.5z
	 M510.8,97.9c-0.2,0-0.4,0.4-0.4,0.8s0.2,0.8,0.4,0.8c0.2,0,0.4-0.4,0.4-0.8C511.2,98.2,511,97.9,510.8,97.9z M491.2,100.9
	c-0.2,0-0.4,0.4-0.4,0.8c0,0.4,0.2,0.8,0.4,0.8c0.2,0,0.4-0.4,0.4-0.8C491.6,101.2,491.5,100.9,491.2,100.9z M493.7,100.8
	c-0.2,0-0.4,0.4-0.4,0.8c0,0.4,0.2,0.8,0.4,0.8c0.2,0,0.4-0.4,0.4-0.8C494.1,101.2,493.9,100.8,493.7,100.8z M496.1,100.8
	c-0.2,0-0.4,0.4-0.4,0.8c0,0.4,0.2,0.8,0.4,0.8c0.2,0,0.4-0.4,0.4-0.8C496.6,101.2,496.4,100.8,496.1,100.8z M498.6,100.8
	c-0.2,0-0.4,0.4-0.4,0.8c0,0.4,0.2,0.8,0.4,0.8c0.2,0,0.4-0.4,0.4-0.8C499,101.2,498.9,100.8,498.6,100.8z M501,100.8
	c-0.2,0-0.4,0.4-0.4,0.8c0,0.4,0.2,0.8,0.4,0.8c0.2,0,0.4-0.4,0.4-0.8C501.5,101.1,501.3,100.8,501,100.8z M503.5,100.7
	c-0.2,0-0.4,0.4-0.4,0.8s0.2,0.8,0.4,0.8c0.2,0,0.4-0.4,0.4-0.8S503.8,100.7,503.5,100.7z M505.9,100.7c-0.2,0-0.4,0.4-0.4,0.8
	s0.2,0.8,0.4,0.8c0.2,0,0.4-0.4,0.4-0.8S506.2,100.7,505.9,100.7z M508.4,100.7c-0.2,0-0.4,0.4-0.4,0.8s0.2,0.8,0.4,0.8
	c0.2,0,0.4-0.4,0.4-0.8C508.8,101,508.6,100.7,508.4,100.7z M493.6,103.6c-0.2,0-0.4,0.4-0.4,0.8c0,0.4,0.2,0.8,0.4,0.8
	c0.2,0,0.4-0.4,0.4-0.8C494.1,104,493.9,103.6,493.6,103.6z M496.1,103.6c-0.2,0-0.4,0.4-0.4,0.8c0,0.4,0.2,0.8,0.4,0.8
	c0.2,0,0.4-0.4,0.4-0.8C496.6,104,496.3,103.6,496.1,103.6z M498.5,103.6c-0.2,0-0.4,0.4-0.4,0.8c0,0.4,0.2,0.8,0.4,0.8
	c0.2,0,0.4-0.4,0.4-0.8C499,103.9,498.8,103.6,498.5,103.6z M501,103.5c-0.2,0-0.4,0.4-0.4,0.8s0.2,0.8,0.4,0.8
	c0.2,0,0.4-0.4,0.4-0.8S501.2,103.5,501,103.5z M503.5,103.5c-0.2,0-0.4,0.4-0.4,0.8s0.2,0.8,0.4,0.8c0.2,0,0.4-0.4,0.4-0.8
	C503.9,103.9,503.7,103.5,503.5,103.5z M505.9,103.5c-0.2,0-0.4,0.4-0.4,0.8s0.2,0.8,0.4,0.8c0.2,0,0.4-0.4,0.4-0.8
	S506.1,103.5,505.9,103.5z"/>
<circle class="st1" cx="389.8" cy="70.4" r="4.8"/>
<circle class="st1" cx="574.7" cy="50" r="4.8"/>
<g>
	<path class="st2" d="M42.9,77c9.9,0.5,15.6,1.7,20,8.2c1.5,2.3,3.4,5.4,4.8,9.7c1.9,5.9,5.4,9.7,5.4,9.7
		c-18.5-0.8-25.1-4.3-28.4-11.7C41.8,87,42.9,77.1,42.9,77z"/>
	<path class="st3" d="M51.3,81.4c0-0.3,0-0.5,0-0.8h0.1c0.4,0.1,0.6,0.4,0.5,0.6C51.9,81.4,51.6,81.5,51.3,81.4z M52,79.5
		c0.3,0.1,0.7,0.1,0.8-0.1c0.1-0.2-0.1-0.5-0.5-0.6c-0.3-0.1-0.6-0.1-0.7,0v0.3C51.6,79.2,51.7,79.4,52,79.5z M52.7,77.5
		c0.3,0.1,0.7,0.1,0.8-0.1c0.1-0.2-0.1-0.5-0.5-0.6c-0.3-0.1-0.7-0.1-0.8,0.1C52.2,77.1,52.4,77.4,52.7,77.5z M53.5,75.6
		c0.3,0.1,0.7,0.1,0.8-0.1c0.1-0.2-0.1-0.5-0.5-0.6c-0.3-0.1-0.7-0.1-0.8,0.1C53,75.2,53.2,75.5,53.5,75.6z M54.3,73.7
		c0.3,0.1,0.7,0.1,0.8-0.1c0.1-0.2-0.1-0.5-0.5-0.6c-0.3-0.1-0.7-0.1-0.8,0.1C53.7,73.3,54,73.6,54.3,73.7z M55.1,71.8
		c0.3,0.1,0.7,0.1,0.8-0.1c0.1-0.2-0.1-0.5-0.5-0.6c-0.3-0.1-0.7-0.1-0.8,0.1C54.5,71.4,54.7,71.7,55.1,71.8z M52.1,85.3
		c-0.2-0.1-0.3-0.1-0.5-0.1l0.2,0.8l0,0c0.3,0.1,0.7,0.1,0.8-0.1C52.6,85.7,52.4,85.5,52.1,85.3z M52.1,83.5
		c-0.1,0.2,0.1,0.5,0.5,0.6c0.3,0.1,0.7,0.1,0.8-0.1s-0.1-0.5-0.5-0.6S52.2,83.3,52.1,83.5z M54.1,82.1c0.1-0.2-0.1-0.5-0.5-0.6
		c-0.3-0.1-0.7-0.1-0.8,0.1c-0.1,0.2,0.1,0.5,0.5,0.6C53.7,82.3,54,82.3,54.1,82.1z M54.9,80.2c0.1-0.2-0.1-0.5-0.5-0.6
		c-0.3-0.1-0.7-0.1-0.8,0.1c-0.1,0.2,0.1,0.5,0.5,0.6C54.5,80.4,54.8,80.4,54.9,80.2z M55.7,78.3c0.1-0.2-0.1-0.5-0.5-0.6
		c-0.3-0.1-0.7-0.1-0.8,0.1c-0.1,0.2,0.1,0.5,0.5,0.6S55.6,78.5,55.7,78.3z M55.2,75.9c-0.1,0.2,0.1,0.5,0.5,0.6
		c0.3,0.1,0.7,0.1,0.8-0.1c0.1-0.2-0.1-0.5-0.5-0.6C55.6,75.7,55.3,75.7,55.2,75.9z M56.5,74.6c0.3,0.1,0.7,0.1,0.8-0.1
		c0.1-0.2-0.1-0.5-0.5-0.6c-0.3-0.1-0.7-0.1-0.8,0.1C55.9,74.2,56.1,74.4,56.5,74.6z M57.3,72.7c0.3,0.1,0.7,0.1,0.8-0.1
		c0.1-0.2-0.1-0.5-0.5-0.6c-0.3-0.1-0.7-0.1-0.8,0.1C56.7,72.3,56.9,72.5,57.3,72.7z M53.4,88.2c-0.3-0.1-0.7-0.1-0.8,0.1
		s0.1,0.5,0.5,0.6c0.3,0.1,0.7,0.1,0.8-0.1C54,88.6,53.8,88.3,53.4,88.2z M54.7,86.9c0.1-0.2-0.1-0.5-0.5-0.6
		c-0.3-0.1-0.7-0.1-0.8,0.1s0.1,0.5,0.5,0.6S54.6,87,54.7,86.9z M54.7,85c0.3,0.1,0.7,0.1,0.8-0.1s-0.1-0.5-0.5-0.6
		c-0.3-0.1-0.7-0.1-0.8,0.1S54.4,84.9,54.7,85z M56.2,83c0.1-0.2-0.1-0.5-0.5-0.6c-0.3-0.1-0.7-0.1-0.8,0.1
		c-0.1,0.2,0.1,0.5,0.5,0.6C55.8,83.3,56.2,83.2,56.2,83z M57,81.1c0.1-0.2-0.1-0.5-0.5-0.6s-0.7-0.1-0.8,0.1
		c-0.1,0.2,0.1,0.5,0.5,0.6C56.6,81.4,57,81.3,57,81.1z M57.8,79.2c0.1-0.2-0.1-0.5-0.5-0.6c-0.3-0.1-0.7-0.1-0.8,0.1
		c-0.1,0.2,0.1,0.5,0.5,0.6C57.4,79.5,57.7,79.4,57.8,79.2z M57.3,76.8c-0.1,0.2,0.1,0.5,0.5,0.6c0.3,0.1,0.7,0.1,0.8-0.1
		c0.1-0.2-0.1-0.5-0.5-0.6C57.8,76.6,57.4,76.6,57.3,76.8z M58.6,75.5c0.3,0.1,0.7,0.1,0.8-0.1c0.1-0.2-0.1-0.5-0.5-0.6
		c-0.3-0.1-0.7-0.1-0.8,0.1C58.1,75.1,58.3,75.4,58.6,75.5z M59.4,73.6c0.3,0.1,0.7,0.1,0.8-0.1c0.1-0.2-0.1-0.5-0.5-0.6
		c-0.3-0.1-0.7-0.1-0.8,0.1C58.8,73.2,59.1,73.5,59.4,73.6z M54.8,90.9c-0.3-0.1-0.6-0.1-0.7,0l0.6,0.7c0.3,0.1,0.6,0,0.6-0.1
		C55.4,91.3,55.2,91,54.8,90.9z M55.6,89c-0.3-0.1-0.7-0.1-0.8,0.1c-0.1,0.2,0.1,0.5,0.5,0.6c0.3,0.1,0.7,0.1,0.8-0.1
		S55.9,89.1,55.6,89z M56.9,87.7c0.1-0.2-0.1-0.5-0.5-0.6c-0.3-0.1-0.7-0.1-0.8,0.1s0.1,0.5,0.5,0.6C56.4,87.9,56.8,87.9,56.9,87.7z
		 M56.9,85.9c0.3,0.1,0.7,0.1,0.8-0.1c0.1-0.2-0.1-0.5-0.5-0.6c-0.3-0.1-0.7-0.1-0.8,0.1S56.6,85.7,56.9,85.9z M58.4,83.9
		c0.1-0.2-0.1-0.5-0.5-0.6c-0.3-0.1-0.7-0.1-0.8,0.1s0.1,0.5,0.5,0.6C58,84.1,58.4,84.1,58.4,83.9z M58,81.5
		c-0.1,0.2,0.1,0.5,0.5,0.6c0.3,0.1,0.7,0.1,0.8-0.1c0.1-0.2-0.1-0.5-0.5-0.6C58.4,81.2,58.1,81.3,58,81.5z M59.2,80.1
		c0.3,0.1,0.7,0.1,0.8-0.1c0.1-0.2-0.1-0.5-0.5-0.6c-0.3-0.1-0.7-0.1-0.8,0.1C58.7,79.7,58.9,80,59.2,80.1z M59.5,77.7
		c-0.1,0.2,0.1,0.5,0.5,0.6c0.3,0.1,0.7,0.1,0.8-0.1c0.1-0.2-0.1-0.5-0.5-0.6C60,77.4,59.6,77.5,59.5,77.7z M60.8,76.3
		c0.3,0.1,0.7,0.1,0.8-0.1c0.1-0.2-0.1-0.5-0.5-0.6c-0.3-0.1-0.7-0.1-0.8,0.1C60.2,75.9,60.5,76.2,60.8,76.3z M61.6,74.4
		c0.3,0.1,0.7,0.1,0.8-0.1c0.1-0.2-0.1-0.5-0.5-0.6c-0.3-0.1-0.7-0.1-0.8,0.1C61,74,61.2,74.3,61.6,74.4z M57,91.8
		c-0.3-0.1-0.7-0.1-0.8,0.1s0.1,0.5,0.5,0.6c0.3,0.1,0.7,0.1,0.8-0.1C57.5,92.3,57.3,92,57,91.8z M58.2,90.5
		c0.1-0.2-0.1-0.5-0.5-0.6c-0.3-0.1-0.6-0.1-0.7,0.1c-0.1,0.2,0.1,0.5,0.5,0.6C57.8,90.8,58.1,90.7,58.2,90.5z M58.3,88.7
		c0.3,0.1,0.7,0.1,0.8-0.1c0.1-0.2-0.1-0.5-0.5-0.6c-0.3-0.1-0.7-0.1-0.8,0.1C57.7,88.3,57.9,88.6,58.3,88.7z M59.8,86.7
		c0.1-0.2-0.1-0.5-0.5-0.6C59,86,58.6,86,58.5,86.2s0.1,0.5,0.5,0.6C59.4,87,59.7,86.9,59.8,86.7z M60.6,84.8
		c0.1-0.2-0.1-0.5-0.5-0.6c-0.3-0.1-0.7-0.1-0.8,0.1s0.1,0.5,0.5,0.6C60.1,85,60.5,85,60.6,84.8z M60.1,82.4
		c-0.1,0.2,0.1,0.5,0.5,0.6c0.3,0.1,0.7,0.1,0.8-0.1s-0.1-0.5-0.5-0.6S60.2,82.2,60.1,82.4z M62.1,81c0.1-0.2-0.1-0.5-0.5-0.6
		c-0.3-0.1-0.7-0.1-0.8,0.1c-0.1,0.2,0.1,0.5,0.5,0.6C61.7,81.2,62.1,81.2,62.1,81z M61.7,78.6c-0.1,0.2,0.1,0.5,0.5,0.6
		c0.3,0.1,0.7,0.1,0.8-0.1c0.1-0.2-0.1-0.5-0.5-0.6C62.1,78.4,61.7,78.4,61.7,78.6z M62.9,77.3c0.3,0.1,0.7,0.1,0.8-0.1
		c0.1-0.2-0.1-0.5-0.5-0.6c-0.3-0.1-0.7-0.1-0.8,0.1C62.4,76.9,62.6,77.1,62.9,77.3z M63.7,75.4c0.3,0.1,0.7,0.1,0.8-0.1
		c0.1-0.2-0.1-0.5-0.5-0.6c-0.3-0.1-0.7-0.1-0.8,0.1C63.2,75,63.4,75.2,63.7,75.4z M58.4,94.6c-0.2-0.1-0.4-0.1-0.6-0.1l1,0.7
		c0,0,0,0,0-0.1C58.9,95,58.7,94.7,58.4,94.6z M59.1,92.7c-0.3-0.2-0.7-0.1-0.7,0.1c-0.1,0.2,0.1,0.5,0.5,0.6
		c0.3,0.1,0.7,0.1,0.8-0.1C59.7,93.1,59.5,92.8,59.1,92.7z M60.4,91.4c0.1-0.2-0.1-0.5-0.5-0.6c-0.3-0.1-0.7-0.1-0.8,0.1
		s0.1,0.5,0.5,0.6C60,91.6,60.3,91.6,60.4,91.4z M60.4,89.6c0.3,0.1,0.7,0.1,0.8-0.1s-0.1-0.5-0.5-0.6c-0.3-0.1-0.7-0.1-0.8,0.1
		C59.9,89.1,60.1,89.4,60.4,89.6z M62,87.6c0.1-0.2-0.1-0.5-0.5-0.6c-0.3-0.1-0.7-0.1-0.8,0.1c-0.1,0.2,0.1,0.5,0.5,0.6
		C61.6,87.8,61.9,87.7,62,87.6z M62.8,85.7c0.1-0.2-0.1-0.5-0.5-0.6C62,85,61.6,85,61.5,85.2c-0.1,0.2,0.1,0.5,0.5,0.6
		C62.3,85.9,62.7,85.8,62.8,85.7z M62.3,83.2c-0.1,0.2,0.1,0.5,0.5,0.6c0.3,0.1,0.7,0.1,0.8-0.1c0.1-0.2-0.1-0.5-0.5-0.6
		C62.7,83,62.4,83,62.3,83.2z M64.3,81.8c0.1-0.2-0.1-0.5-0.5-0.6c-0.3-0.1-0.7-0.1-0.8,0.1c-0.1,0.2,0.1,0.5,0.5,0.6
		C63.9,82.1,64.2,82,64.3,81.8z M63.9,79.4c-0.1,0.2,0.1,0.5,0.5,0.6c0.3,0.1,0.7,0.1,0.8-0.1c0.1-0.2-0.1-0.5-0.5-0.6
		S63.9,79.2,63.9,79.4z M65.1,78.1c0.3,0.1,0.7,0.1,0.8-0.1c0.1-0.2-0.1-0.5-0.5-0.6c-0.3-0.1-0.7-0.1-0.8,0.1
		C64.6,77.7,64.8,78,65.1,78.1z M65.9,76.2c0.1,0,0.1,0,0.2,0.1c-0.2-0.2-0.4-0.5-0.7-0.7l0,0C65.3,75.8,65.6,76.1,65.9,76.2z
		 M60.5,95.5c-0.3-0.1-0.7-0.1-0.8,0.1c-0.1,0.2,0.1,0.5,0.5,0.6c0.3,0.1,0.7,0.1,0.8-0.1C61.1,95.9,60.9,95.7,60.5,95.5z
		 M61.3,93.6c-0.3-0.1-0.7-0.1-0.8,0.1c-0.1,0.2,0.1,0.5,0.5,0.6c0.3,0.1,0.7,0.1,0.8-0.1C61.8,94,61.6,93.8,61.3,93.6z M62.5,92.3
		c0.1-0.2-0.1-0.5-0.5-0.6c-0.3-0.1-0.7-0.1-0.8,0.1s0.1,0.5,0.5,0.6C62.1,92.5,62.5,92.5,62.5,92.3z M62.6,90.5
		c0.3,0.1,0.7,0.1,0.8-0.1c0.1-0.2-0.1-0.5-0.5-0.6c-0.3-0.1-0.7-0.1-0.8,0.1C62,90.1,62.2,90.3,62.6,90.5z M64.1,88.5
		c0.1-0.2-0.1-0.5-0.5-0.6c-0.3-0.1-0.7-0.1-0.8,0.1c-0.1,0.2,0.1,0.5,0.5,0.6C63.7,88.7,64,88.7,64.1,88.5z M64.9,86.6
		c0.1-0.2-0.1-0.5-0.5-0.6c-0.3-0.1-0.7-0.1-0.8,0.1c-0.1,0.2,0.1,0.5,0.5,0.6C64.5,86.8,64.8,86.8,64.9,86.6z M64.4,84.2
		c-0.1,0.2,0.1,0.5,0.5,0.6c0.3,0.1,0.7,0.1,0.8-0.1c0.1-0.2-0.1-0.5-0.5-0.6C64.9,84,64.5,84,64.4,84.2z M65.7,82.9
		c0.3,0.1,0.7,0.1,0.8-0.1c0.1-0.2-0.1-0.5-0.5-0.6c-0.3-0.1-0.7-0.1-0.8,0.1C65.1,82.4,65.3,82.7,65.7,82.9z M66,80.4
		c-0.1,0.2,0.1,0.5,0.5,0.6c0.3,0.1,0.7,0.1,0.8-0.1c0.1-0.2-0.1-0.5-0.5-0.6C66.4,80.1,66.1,80.2,66,80.4z M67.3,79
		c0.3,0.1,0.6,0.1,0.7-0.1l-0.3-0.5c0,0-0.1-0.1-0.2-0.1c-0.3-0.1-0.7-0.1-0.8,0.1C66.7,78.6,66.9,78.9,67.3,79z M62.6,96.4
		c-0.3-0.1-0.7-0.1-0.8,0.1c-0.1,0.2,0.1,0.5,0.5,0.6c0.3,0.1,0.7,0.1,0.8-0.1C63.2,96.9,63,96.6,62.6,96.4z M63.4,94.5
		c-0.3-0.1-0.7-0.1-0.8,0.1c-0.1,0.2,0.1,0.5,0.5,0.6c0.3,0.1,0.7,0.1,0.8-0.1C64,95,63.8,94.7,63.4,94.5z M64.7,93.2
		c0.1-0.2-0.1-0.5-0.5-0.6c-0.3-0.1-0.7-0.1-0.8,0.1c-0.1,0.2,0.1,0.5,0.5,0.6C64.3,93.5,64.6,93.4,64.7,93.2z M64.7,91.4
		c0.3,0.1,0.7,0.1,0.8-0.1c0.1-0.2-0.1-0.5-0.5-0.6c-0.3-0.1-0.7-0.1-0.8,0.1C64.2,91,64.4,91.3,64.7,91.4z M66.3,89.4
		c0.1-0.2-0.1-0.5-0.5-0.6c-0.3-0.1-0.7-0.1-0.8,0.1c-0.1,0.2,0.1,0.5,0.5,0.6C65.8,89.7,66.2,89.6,66.3,89.4z M67,87.5
		c0.1-0.2-0.1-0.5-0.5-0.6c-0.3-0.1-0.7-0.1-0.8,0.1c-0.1,0.2,0.1,0.5,0.5,0.6C66.6,87.7,67,87.7,67,87.5z M67.8,85.6
		c0.1-0.2-0.1-0.5-0.5-0.6c-0.3-0.1-0.7-0.1-0.8,0.1c-0.1,0.2,0.1,0.5,0.5,0.6C67.4,85.8,67.7,85.8,67.8,85.6z M67.4,83.2
		c-0.1,0.2,0.1,0.5,0.5,0.6c0.3,0.1,0.7,0.1,0.8-0.1c0.1-0.2-0.1-0.5-0.5-0.6C67.8,83,67.4,83,67.4,83.2z M68.6,81.9
		c0.2,0.1,0.5,0.1,0.6,0L69,81.2h-0.1c-0.3-0.1-0.7-0.1-0.8,0.1C68.1,81.5,68.3,81.7,68.6,81.9z M64.8,97.3
		c-0.3-0.1-0.7-0.1-0.8,0.1c-0.1,0.2,0.1,0.5,0.5,0.6c0.3,0.1,0.7,0.1,0.8-0.1C65.4,97.7,65.2,97.4,64.8,97.3z M65.6,95.4
		c-0.3-0.1-0.7-0.1-0.8,0.1c-0.1,0.2,0.1,0.5,0.5,0.6c0.3,0.1,0.7,0.1,0.8-0.1S66,95.5,65.6,95.4z M66.9,94.1
		c0.1-0.2-0.1-0.5-0.5-0.6c-0.3-0.1-0.7-0.1-0.8,0.1c-0.1,0.2,0.1,0.5,0.5,0.6C66.5,94.3,66.8,94.3,66.9,94.1z M66.9,92.2
		c0.3,0.1,0.7,0.1,0.8-0.1c0.1-0.2-0.1-0.5-0.5-0.6c-0.3-0.1-0.7-0.1-0.8,0.1C66.3,91.8,66.5,92.1,66.9,92.2z M68.4,90.3
		c0.1-0.2-0.1-0.5-0.5-0.6c-0.3-0.1-0.7-0.1-0.8,0.1c-0.1,0.2,0.1,0.5,0.5,0.6S68.4,90.4,68.4,90.3z M69.2,88.4
		c0.1-0.2-0.1-0.5-0.5-0.6c-0.3-0.1-0.7-0.1-0.8,0.1c-0.1,0.2,0.1,0.5,0.5,0.6S69.1,88.5,69.2,88.4z M68.8,85.9
		c-0.1,0.2,0.1,0.5,0.5,0.6c0.3,0.1,0.7,0.1,0.8-0.1c0.1-0.2-0.1-0.5-0.5-0.6S68.8,85.8,68.8,85.9z M69.9,84.6
		c-0.1-0.2-0.1-0.5-0.2-0.7c-0.1,0-0.2,0.1-0.2,0.2C69.5,84.2,69.6,84.4,69.9,84.6z M67,98.2c-0.3-0.1-0.7-0.1-0.8,0.1
		c-0.1,0.2,0.1,0.5,0.5,0.6c0.3,0.1,0.7,0.1,0.8-0.1C67.5,98.6,67.3,98.4,67,98.2z M67.7,96.3c-0.3-0.1-0.7-0.1-0.8,0.1
		c-0.1,0.2,0.1,0.5,0.5,0.6c0.3,0.1,0.7,0.1,0.8-0.1C68.3,96.7,68.1,96.5,67.7,96.3z M69,95c0.1-0.2-0.1-0.5-0.5-0.6
		c-0.3-0.1-0.7-0.1-0.8,0.1c-0.1,0.2,0.1,0.5,0.5,0.6C68.6,95.2,68.9,95.2,69,95z M69,93.2c0.3,0.1,0.7,0.1,0.8-0.1
		c0.1-0.2-0.1-0.5-0.5-0.6c-0.3-0.1-0.7-0.1-0.8,0.1C68.5,92.8,68.7,93,69,93.2z M69.3,90.7c-0.1,0.2,0.1,0.5,0.5,0.6
		c0.3,0.1,0.7,0.1,0.8-0.1c0.1-0.2-0.1-0.5-0.5-0.6C69.7,90.5,69.4,90.5,69.3,90.7z M70.6,89.4C70.6,89.4,70.7,89.4,70.6,89.4
		c0.1-0.2,0-0.5,0-0.8c-0.2,0-0.4,0-0.5,0.2C70,89,70.3,89.2,70.6,89.4z M69.1,99.1c-0.3-0.1-0.7-0.1-0.8,0.1
		c-0.1,0.2,0.1,0.5,0.5,0.6c0.3,0.1,0.7,0.1,0.8-0.1S69.5,99.2,69.1,99.1z M69.9,97.2c-0.3-0.1-0.7-0.1-0.8,0.1
		c-0.1,0.2,0.1,0.5,0.5,0.6c0.3,0.1,0.7,0.1,0.8-0.1C70.5,97.6,70.3,97.3,69.9,97.2z M71.1,95.9L71,95.4c-0.1-0.1-0.2-0.2-0.3-0.2
		c-0.3-0.1-0.7-0.1-0.8,0.1c-0.1,0.2,0.1,0.5,0.5,0.6C70.7,96,71,96,71.1,95.9z M71.3,100c-0.3-0.1-0.7-0.1-0.8,0.1
		c-0.1,0.2,0.1,0.5,0.5,0.6c0.3,0.1,0.7,0.1,0.8-0.1C71.9,100.4,71.6,100.1,71.3,100z M71.7,98.7c-0.1-0.2-0.1-0.5-0.2-0.7
		c-0.1,0-0.2,0.1-0.2,0.2C71.2,98.3,71.4,98.6,71.7,98.7z"/>
	<g>
		<path d="M74.8,103.1l-0.6-0.1c-17.5-2.1-24.7-5.8-27.6-14c-2.2-5.4-1-13.6-0.6-16v-0.3h0.3c10.1,1.2,15.6,3,19.6,9.8
			c1.5,2.8,3,5.9,4.1,10.1c1.4,5.9,4.6,10,4.6,10L74.8,103.1z M46.4,73.2c-0.3,2-1.5,10.3,0.6,15.6c2.8,7.9,9.8,11.5,26.6,13.6
			c-0.9-1.3-3.2-4.9-4.3-9.7c-1-4.2-2.5-7.2-4-10C61.5,76.2,56.4,74.5,46.4,73.2z"/>
	</g>
</g>
<path class="st4" d="M364.8,108.8c3.9-7.2,6.8-11,13.2-12c2.2-0.3,5.2-0.6,8.9-0.1c5.1,0.7,9.2-0.6,9.2-0.6
	c-7.2,13.4-12.1,17.2-18.8,17C371.9,113.1,364.9,108.8,364.8,108.8z"/>
<path class="st2" d="M284.5,100.4c1.1,7.3,2.5,11.4,7.6,14.2c1.8,0.9,4.2,2.1,7.6,2.8c4.5,1,7.6,3.2,7.6,3.2
	c-2.1-13.6-5.2-18.2-10.9-20.1C291.9,98.8,284.6,100.4,284.5,100.4z"/>
<g>
	<path d="M310.5,117.9l-0.4-0.3c0,0-3.1-2.3-7.5-3.2c-3.2-0.7-5.6-1.8-7.6-2.8c-5.2-2.8-6.6-6.8-7.8-14.3v-0.2h0.3
		c1.8-0.4,7.9-1.4,12,0.1c6.2,2,9.1,7.3,11,20.3V117.9z M287.6,97.4c1.1,7.4,2.5,11.2,7.5,13.9c1.9,1,4.4,2.1,7.5,2.8
		c3.6,0.8,6.3,2.4,7.3,3c-1.9-12.4-4.8-17.5-10.7-19.5C295.2,96.1,289.1,97.2,287.6,97.4z"/>
</g>
</svg>
