<?xml version="1.0" encoding="utf-8"?>
<!-- Generator: Adobe Illustrator 26.2.1, SVG Export Plug-In . SVG Version: 6.00 Build 0)  -->
<svg version="1.1" id="Layer_1" xmlns="http://www.w3.org/2000/svg" xmlns:xlink="http://www.w3.org/1999/xlink" x="0px" y="0px"
	 viewBox="0 0 455 377" style="enable-background:new 0 0 455 377;" xml:space="preserve">
<style type="text/css">
	.st0{fill:#EB690B;}
</style>
<path d="M114.4,203.7c0,3.8-0.6,7.4-2.1,10.8c-1.5,3.4-3.4,6.4-5.7,8.7c-2.5,2.5-5.3,4.5-8.7,5.7c-3.4,1.5-6.8,2.1-10.6,2.1
	c-3.8,0-7.4-0.6-10.6-2.1c-3.4-1.5-6.1-3.4-8.7-5.7c-2.5-2.5-4.5-5.5-5.7-8.7c-1.5-3.4-2.1-7-2.1-10.8V62.9
	C59.7,32.7,35.3,8.1,4.9,8.1v195.5c0,11.2,2.1,22.1,6.4,32c4.2,10,10.2,18.7,17.6,26.1c7.4,7.4,16.1,13.4,26.1,17.6
	c10,4.2,20.6,6.4,32,6.4c10.2,0,19.9-1.7,29.5-5.3c9.3-3.6,17.8-8.7,25.4-15.7c7.4,6.8,15.9,12.1,25.2,15.7
	c9.3,3.6,19.1,5.3,29.3,5.3c11.2,0,22.1-2.1,32-6.4s18.7-10.2,26.1-17.6c7.4-7.4,13.4-16.1,17.6-26.1c4.2-10,6.4-20.6,6.4-32v-29.3
	h88.4c3.8,0,7.4,0.6,11,2.1c3.4,1.5,6.4,3.4,8.9,5.9c2.5,2.5,4.5,5.5,5.9,8.7c1.5,3.4,2.1,7,2.1,10.8s-0.6,7.4-2.1,10.8
	c-1.5,3.4-3.4,6.4-5.9,8.7c-2.5,2.5-5.5,4.5-8.9,5.9c-3.4,1.5-7,2.1-11,2.1h-25.7h-3.4h-16.8h-3.4c-10,0-16.8,3.4-23.3,16.8
	c-4.5,7.6-6.6,14.4-11,22.1c-6.6,11-14.4,16.8-14.4,16.8h12.3h85h0.4c11.5,0,22.3-2.1,32.4-6.6c10.2-4.2,18.9-10.2,26.5-17.8
	c7.6-7.6,13.6-16.3,17.8-26.5c4.2-10.2,6.6-21,6.6-32.4c0-10.4-1.9-20.1-5.5-29.7c-3.6-9.5-8.9-18-15.9-25.7
	c7-7.6,12.3-16.1,15.9-25.7c3.6-9.5,5.5-19.3,5.5-29.7c0-11.5-2.1-22.3-6.6-32.4c-4.2-10.2-10.2-18.9-17.8-26.5
	c-7.6-7.6-16.3-13.6-26.5-17.8s-21-6.6-32.4-6.6h-88.2h-48.8H224v195.5c0,3.8-0.6,7.4-2.1,10.8c-1.5,3.4-3.4,6.4-5.9,8.7
	c-2.5,2.5-5.3,4.5-8.7,5.7c-3.4,1.5-6.8,2.1-10.6,2.1s-7.4-0.6-10.6-2.1c-3.4-1.5-6.1-3.4-8.7-5.7c-2.5-2.5-4.5-5.5-5.7-8.7
	c-1.5-3.4-2.1-7-2.1-10.8v-147l-0.2,0.2v-0.2c0,0-1.7,2.3-5.1,5.5c-0.4,0.4-0.8,0.8-1.3,1.3c-2.5,2.3-5.9,4.9-10,7.4
	c-7.6,4.2-14.2,6.6-21.8,10.8c-10.8,5.5-15.1,10.8-16.1,18.2c0,0.2,0,0.2,0,0.4c0,0.6-0.2,1.3-0.2,2.1L114.4,203.7z M392.6,102.1
	c-1.5,3.4-3.4,6.4-5.9,8.7c-2.5,2.5-5.5,4.5-8.9,5.9c-3.4,1.5-7,2.1-11,2.1h-88.2V63.5h88.4c3.8,0,7.4,0.6,11,2.1
	c3.4,1.5,6.4,3.4,8.9,5.9c2.5,2.5,4.5,5.5,5.9,8.7c1.5,3.4,2.1,7,2.1,10.8C394.7,95.1,394.1,98.7,392.6,102.1z"/>
<path class="st0" d="M108.6,59.5c21.2,0,33.3-2.1,43.5-15.5c3.4-4.7,7.8-11,11-20.1c4.9-12.3,12.5-20.1,12.5-20.1
	c-39.2,0-53.9,6.8-61.5,22.3C107.4,38,108.6,59.3,108.6,59.5z"/>
<g>
	<path d="M80.4,323.1L66,372.7h-7.2l-11.5-39.9l-11.9,39.9h-7.2l-13.8-49.6h7l10.8,42l11.9-42h7.4l11.2,41.8l10.8-41.8H80.4z"/>
	<path d="M94,323.1v49.6h-6.4v-49.6H94z"/>
	<path d="M125.2,347.9l15.3,24.8H133l-11.9-19.3l-11.2,19.3h-7.2l15.3-24.8l-15.3-24.8h7.2l11.9,19.3l11.2-19.3h7.4L125.2,347.9z"/>
	<path d="M200,349.3c1.5,1.3,2.8,2.8,3.6,4.5c0.8,1.7,1.3,3.6,1.3,5.5c0,2.5-0.6,4.9-1.9,6.8c-1.3,1.9-3.2,3.6-5.5,4.7
		c-2.5,1.1-5.3,1.7-8.7,1.7h-18.4v-49.6h17.8c3.4,0,6.1,0.6,8.7,1.7c2.3,1.1,4.2,2.5,5.3,4.5c1.3,1.9,1.7,4,1.7,6.4
		c0,3-0.8,5.3-2.3,7.2c-1.5,1.9-3.6,3.4-6.4,4.2C196.9,347.2,198.6,348.1,200,349.3z M176.7,344.5h10.8c3,0,5.3-0.6,7-2.1
		c1.7-1.5,2.5-3.4,2.5-5.9c0-2.5-0.8-4.7-2.5-5.9c-1.7-1.5-4-2.1-7.2-2.1h-10.6V344.5z M195.6,365c1.9-1.5,2.8-3.8,2.8-6.4
		c0-2.8-0.8-4.9-2.8-6.6c-1.9-1.7-4.5-2.3-7.6-2.3h-11.2v17.8h11.5C191.3,367.4,193.9,366.7,195.6,365z"/>
	<path d="M248.4,333.7v39H242v-5.7c-1.3,1.9-3,3.6-5.1,4.7s-4.7,1.7-7.2,1.7c-3,0-5.7-0.6-8.3-1.9c-2.3-1.3-4.2-3.2-5.7-5.7
		c-1.5-2.5-2.1-5.5-2.1-9.1v-22.9h6.4v22.1c0,3.8,1.1,6.8,3,8.9c1.9,2.1,4.7,3.2,8.1,3.2c3.4,0,6.1-1.1,8.3-3.2c1.9-2.1,3-5.3,3-9.3
		v-21.4h6.1V333.7z"/>
	<path d="M259.4,326c-0.8-0.8-1.3-1.9-1.3-3.2c0-1.3,0.4-2.3,1.3-3.2c0.8-0.8,1.9-1.3,3.2-1.3c1.3,0,2.1,0.4,3,1.3
		c0.8,0.8,1.3,1.9,1.3,3.2c0,1.3-0.4,2.3-1.3,3.2c-0.8,0.8-1.9,1.3-3,1.3C261.3,327.3,260.3,326.9,259.4,326z M265.8,333.7v39h-6.4
		v-39H265.8z"/>
	<path d="M283.2,319.9v52.6h-6.4v-52.6H283.2z"/>
	<path d="M294.2,342.6c1.7-3,3.8-5.3,6.6-7c2.8-1.7,5.9-2.5,9.5-2.5c3,0,5.9,0.6,8.5,2.1c2.5,1.5,4.7,3.2,5.9,5.5v-20.6h6.6v52.6
		h-6.6v-7.4c-1.3,2.3-3.2,4.2-5.7,5.7c-2.5,1.5-5.5,2.3-8.9,2.3c-3.4,0-6.6-0.8-9.3-2.5c-2.8-1.7-5.1-4-6.6-7.2
		c-1.7-3.2-2.3-6.6-2.3-10.6C291.9,348.9,292.7,345.5,294.2,342.6z M323,345.3c-1.3-2.1-2.8-3.8-4.9-5.1c-1.9-1.1-4.2-1.7-6.6-1.7
		c-2.3,0-4.7,0.6-6.6,1.7c-1.9,1.1-3.6,2.8-4.7,4.9c-1.3,2.1-1.7,4.7-1.7,7.6s0.6,5.5,1.7,7.8c1.3,2.1,2.8,3.8,4.7,5.1
		c1.9,1.1,4.2,1.7,6.6,1.7c2.3,0,4.7-0.6,6.6-1.7c1.9-1.1,3.6-2.8,4.9-5.1c1.3-2.1,1.7-4.9,1.7-7.6C324.7,350,324.3,347.4,323,345.3
		z"/>
	<path d="M377.5,355.3h-31.2c0.2,3.8,1.5,6.8,3.8,9.1c2.3,2.3,5.3,3.4,8.7,3.4c2.8,0,5.1-0.6,7-1.9c1.9-1.3,3.2-3,4-5.3h7
		c-1.1,3.8-3.2,6.8-6.1,9.1c-3.2,2.3-7,3.6-11.7,3.6c-3.6,0-7-0.8-10-2.5c-3-1.7-5.3-4-6.8-7c-1.7-3-2.5-6.6-2.5-10.6
		c0-4,0.8-7.6,2.3-10.6c1.7-3,3.8-5.3,6.8-7c3-1.7,6.4-2.5,10-2.5c3.6,0,7,0.8,9.8,2.3c2.8,1.7,5.1,3.8,6.6,6.6
		c1.5,2.8,2.3,5.9,2.3,9.5C377.7,352.5,377.7,354,377.5,355.3z M369.5,344c-1.1-1.9-2.5-3.2-4.5-4.2c-1.9-0.8-4-1.5-6.1-1.5
		c-3.4,0-6.1,1.1-8.5,3.2c-2.3,2.1-3.6,5.1-3.8,8.9h24.6C371.2,348.1,370.5,345.7,369.5,344z"/>
	<path d="M397.7,334.9c2.1-1.5,4.7-2.1,7.6-2.1v6.6h-1.7c-7.2,0-10.8,4-10.8,11.9v21.2h-6.4v-39h6.4v7.4
		C393.9,338.5,395.6,336.4,397.7,334.9z"/>
	<path d="M418.7,371.6c-2.3-1.1-4.2-2.5-5.5-4.2c-1.3-1.9-2.1-3.8-2.3-6.4h6.6c0.2,2.1,1.1,3.6,2.8,4.9c1.7,1.3,3.8,1.9,6.4,1.9
		c2.5,0,4.5-0.6,5.9-1.7c1.5-1.1,2.1-2.5,2.1-4.5c0-1.7-0.8-3-2.3-3.8c-1.5-0.8-3.8-1.7-7-2.5c-3-0.8-5.3-1.5-7-2.3
		c-1.7-0.8-3.4-1.9-4.7-3.4c-1.3-1.5-1.9-3.4-1.9-5.9c0-2.1,0.6-3.8,1.7-5.5c1.1-1.7,2.8-3,4.9-4c2.1-1.1,4.7-1.5,7.4-1.5
		c4.2,0,7.8,1.1,10.4,3.2c2.8,2.1,4,5.1,4.2,8.9h-6.4c-0.2-2.1-1.1-3.8-2.5-5.1c-1.5-1.3-3.4-1.9-5.9-1.9c-2.3,0-4.2,0.4-5.5,1.5
		c-1.3,1.1-2.1,2.3-2.1,4c0,1.3,0.4,2.3,1.3,3.2c0.8,0.8,1.9,1.5,3.2,1.9c1.3,0.4,3,1.1,5.3,1.7c2.8,0.8,5.1,1.5,6.8,2.3
		c1.7,0.6,3.2,1.9,4.5,3.2c1.3,1.5,1.9,3.4,1.9,5.7c0,2.1-0.6,4-1.7,5.7c-1.1,1.7-2.8,3-4.9,4c-2.1,1.1-4.7,1.5-7.4,1.5
		C423.5,373.1,421,372.7,418.7,371.6z"/>
</g>
</svg>
