<?xml version="1.0" encoding="utf-8"?>
<!-- Generator: Adobe Illustrator 26.2.1, SVG Export Plug-In . SVG Version: 6.00 Build 0)  -->
<svg version="1.1" id="Layer_1" xmlns="http://www.w3.org/2000/svg" xmlns:xlink="http://www.w3.org/1999/xlink" x="0px" y="0px"
	 viewBox="0 0 455 290" style="enable-background:new 0 0 455 290;" xml:space="preserve">
<style type="text/css">
	.st0{fill:#EB690B;}
</style>
<path d="M114.4,203.7c0,3.8-0.6,7.4-2.1,10.8c-1.5,3.4-3.4,6.4-5.7,8.7c-2.5,2.5-5.3,4.5-8.7,5.7c-3.4,1.5-6.8,2.1-10.6,2.1
	c-3.8,0-7.4-0.6-10.6-2.1c-3.4-1.5-6.1-3.4-8.7-5.7c-2.5-2.5-4.5-5.5-5.7-8.7c-1.5-3.4-2.1-7-2.1-10.8V62.9
	C59.7,32.7,35.3,8.1,4.9,8.1v195.5c0,11.2,2.1,22.1,6.4,32c4.2,10,10.2,18.7,17.6,26.1c7.4,7.4,16.1,13.4,26.1,17.6s20.6,6.4,32,6.4
	c10.2,0,19.9-1.7,29.5-5.3c9.3-3.6,17.8-8.7,25.4-15.7c7.4,6.8,15.9,12.1,25.2,15.7s19.1,5.3,29.3,5.3c11.2,0,22.1-2.1,32-6.4
	s18.7-10.2,26.1-17.6c7.4-7.4,13.4-16.1,17.6-26.1s6.4-20.6,6.4-32v-29.3h88.4c3.8,0,7.4,0.6,11,2.1c3.4,1.5,6.4,3.4,8.9,5.9
	s4.5,5.5,5.9,8.7c1.5,3.4,2.1,7,2.1,10.8s-0.6,7.4-2.1,10.8c-1.5,3.4-3.4,6.4-5.9,8.7c-2.5,2.5-5.5,4.5-8.9,5.9
	c-3.4,1.5-7,2.1-11,2.1h-25.7h-3.4H321h-3.4c-10,0-16.8,3.4-23.3,16.8c-4.5,7.6-6.6,14.4-11,22.1c-6.6,11-14.4,16.8-14.4,16.8h12.3
	h85h0.4c11.5,0,22.3-2.1,32.4-6.6c10.2-4.2,18.9-10.2,26.5-17.8c7.6-7.6,13.6-16.3,17.8-26.5c4.2-10.2,6.6-21,6.6-32.4
	c0-10.4-1.9-20.1-5.5-29.7c-3.6-9.5-8.9-18-15.9-25.7c7-7.6,12.3-16.1,15.9-25.7c3.6-9.5,5.5-19.3,5.5-29.7
	c0-11.5-2.1-22.3-6.6-32.4c-4.2-10.2-10.2-18.9-17.8-26.5c-7.6-7.6-16.3-13.6-26.5-17.8s-21-6.6-32.4-6.6h-88.2h-48.8H224v195.5
	c0,3.8-0.6,7.4-2.1,10.8c-1.5,3.4-3.4,6.4-5.9,8.7c-2.5,2.5-5.3,4.5-8.7,5.7c-3.4,1.5-6.8,2.1-10.6,2.1s-7.4-0.6-10.6-2.1
	c-3.4-1.5-6.1-3.4-8.7-5.7c-2.5-2.5-4.5-5.5-5.7-8.7c-1.5-3.4-2.1-7-2.1-10.8v-147l-0.2,0.2v-0.2c0,0-1.7,2.3-5.1,5.5
	c-0.4,0.4-0.8,0.8-1.3,1.3c-2.5,2.3-5.9,4.9-10,7.4c-7.6,4.2-14.2,6.6-21.8,10.8c-10.8,5.5-15.1,10.8-16.1,18.2c0,0.2,0,0.2,0,0.4
	c0,0.6-0.2,1.3-0.2,2.1L114.4,203.7z M392.6,102.1c-1.5,3.4-3.4,6.4-5.9,8.7c-2.5,2.5-5.5,4.5-8.9,5.9c-3.4,1.5-7,2.1-11,2.1h-88.2
	V63.5H367c3.8,0,7.4,0.6,11,2.1c3.4,1.5,6.4,3.4,8.9,5.9s4.5,5.5,5.9,8.7c1.5,3.4,2.1,7,2.1,10.8C394.7,95.1,394.1,98.7,392.6,102.1
	z"/>
<path class="st0" d="M108.6,59.5c21.2,0,33.3-2.1,43.5-15.5c3.4-4.7,7.8-11,11-20.1c4.9-12.3,12.5-20.1,12.5-20.1
	c-39.2,0-53.9,6.8-61.5,22.3C107.4,38,108.6,59.3,108.6,59.5z"/>
</svg>
